
<svg xmlns="http://www.w3.org/2000/svg" aria-hidden="true" viewBox="0 0 27 31">
  <path fill="#A9A9A9" d="M27 7.76718826V23.3029503c-4.3999588 2.5317949-8.7999177 5.0663608-13.1998765 7.6036977-.2778921.1648761-.4668588.0872873-.6947303-.0471075C8.882359 28.434892 4.65608275 26.0153238.42656443 23.6008357.08892548 23.4151769 0 23.1948803 0 22.8277192c.012042-4.8132736.012042-9.6260854 0-14.43843541 0-.40872646.11393578-.6401072.47797447-.84931973 2.83079457-1.62197438 5.65464183-3.2578039 8.47154179-4.90748855C10.4376287 1.76375859 11.9174043.87980102 13.3957904 0h.2084192c.1500617.10668453.2931762.2272242.4515747.31866809 2.9086043 1.68663167 5.8172087 3.36956865 8.7258131 5.04881092C24.1863421 6.17523334 25.5952552 6.96774702 27 7.76718826Zm-2.5538287 2.94421604c-.1140669.0400692-.2258534.0863218-.3348601.1385513a12875.29236276 12875.29236276 0 0 1-9.1190304 5.2413973c-.2778922.1593341-.3126287.3602335-.3126287.6359507a3152.26863231 3152.26863231 0 0 1 0 10.2527993c0 .1385514.0208419.2895723.0375155.4890863 1.7257101-.9920276 3.390284-1.9397188 5.0381844-2.9165058.1389461-.0845163.2334294-.3630045.2362083-.5542054.0194525-1.3273218.0250103-2.6560292 0-3.9847366-.0069473-.3824017.123662-.5819156.4529642-.7634179 1.2074413-.671974 2.3912618-1.3855134 3.5959242-2.0616439.2737176-.1165171.4389545-.3976902.407112-.6927568-.0236208-1.1208803-.0083367-2.2431462-.0083367-3.3640266l.0069473-2.4204919ZM12.1133182 27.3874439c.0222162-.0729266.0384796-.1475258.0486312-.2230677 0-3.5372157.0083367-7.073046-.0111157-10.6088763 0-.1801167-.1931351-.4267381-.3640387-.5264951-2.94102514-1.7078762-5.88946071-3.4051301-8.84530673-5.0917618-.11254632-.0651191-.23481886-.1122266-.37376493-.1773457-.01912544.0591867-.0330722.1199146-.04168382.1815022 0 1.9397188-.01250514 3.864197.01250515 5.7969882.03822506.2201061.16924899.4133092.35987032.5306516 1.18243104.7121539 2.37597776 1.4104527 3.58619802 2.0782702.37237546.205056.48492178.4447498.47658501.8520907-.02639975 1.2760579-.01806299 2.5535013 0 3.8295591 0 .1759602.08336764.4350513.21258749.5112545 1.61872169.9532332 3.24716959 1.8801417 4.93953269 2.8472301ZM3.83213256 8.51536551c.10420956.07481773.15700906.12053967.21536641.153792C7.08624949 10.4162899 10.1333368 12.1551093 13.16514 13.9160968c.2931762.1704182.4738061.0665047.6947303-.0637336a27495.97047954 27495.97047954 0 0 1 8.8411383-5.10007489c.126441-.07343221.2445451-.16210507.4168383-.27710268-1.5951009-.92136643-3.1360128-1.80116746-4.6630301-2.70590772-.3056814-.18011675-.5293845-.19812842-.8420132-.0096986-1.1977151.7218525-2.4232194 1.39798305-3.622324 2.11983554-.3362495.20228496-.5835735.22445318-.9337176.01246962-1.2046624-.73432211-2.4496191-1.41322369-3.66539724-2.13923273-.31401812-.18704431-.53911075-.17318917-.84201317.01246962-.883697.54173575-1.7882359 1.04883367-2.68443805 1.5684012L3.83213256 8.51536551Z"/>
</svg>