<svg xmlns="http://www.w3.org/2000/svg" aria-hidden="true" viewBox="0 0 32 32">
  <path fill="#FFFFFF" d="M30.4117274 9.66955873 16.2437863.22421466c-.4835869-.29758889-.9996875-.3003135-1.4876943 0L.5881509 9.66955873C.22487034 9.9116865-3e-7 10.34423482-3e-7 10.776662v9.4452836c0 .4324877.22487065.8649755.58821174 1.1071638l14.16794106 9.4466761c.483587.2975889.9996875.3003135 1.4876944 0l14.1679411-9.4466761c.3632805-.2421277.5882117-.6746761.5882117-1.1071638V10.776662c0-.43242718-.2249312-.8649755-.5882723-1.10710327Zm-13.5797293-5.8472129L27.2633566 10.776662l-4.6534421 3.1138757-5.7779164-3.85775705V3.82234583Zm-2.6640573 0v6.21043482L8.39002433 13.8905377 3.73658224 10.776662 14.1679408 3.82234583ZM2.66405699 13.2677504l3.33872981 2.2315837-3.33872981 2.2315836v-4.4631673ZM14.1679408 27.1763223 3.73658224 20.2220061l4.65344209-3.1138756 5.77791647 3.857757v6.2104348Zm1.3320286-8.5285402-4.7053912-3.148448 4.7053912-3.148448 4.7053912 3.148448-4.7053912 3.148448Zm1.3320287 8.5285402v-6.2104348l5.7779164-3.857757 4.6534421 3.1138756-10.4313585 6.9543162Zm11.5038838-9.4454046-3.3387299-2.2315836 3.3387299-2.2315837v4.4631673Z"/>
</svg>
