<svg xmlns="http://www.w3.org/2000/svg" width="505.42" height="703.508" viewBox="0 0 505.42 703.508">
  <g id="Group_118" data-name="Group 118" transform="translate(-1366.181 -368.742)">
    <g id="Group_104" data-name="Group 104" transform="translate(1420.452 -2169.496)" opacity="0.569">
      <g id="Group_76" data-name="Group 76" transform="translate(-1136 -2082)">
        <path id="Path_37" data-name="Path 37" d="M146.7,2547.526H104.056" transform="translate(1252 2485)" fill="none" stroke="#c4a8dd" stroke-width="1"/>
        <path id="Path_38" data-name="Path 38" d="M146.7,2547.526H104.056" transform="translate(3924.903 4907.149) rotate(90)" fill="none" stroke="#c4a8dd" stroke-width="1"/>
      </g>
      <g id="Group_79" data-name="Group 79" transform="translate(-1130.75 -1947.05)">
        <path id="Path_37-2" data-name="Path 37" d="M146.7,2547.526H104.056" transform="translate(1252 2485)" fill="none" stroke="#c4a8dd" stroke-width="1"/>
        <path id="Path_38-2" data-name="Path 38" d="M146.7,2547.526H104.056" transform="translate(3924.903 4907.149) rotate(90)" fill="none" stroke="#c4a8dd" stroke-width="1"/>
      </g>
      <g id="Group_85" data-name="Group 85" transform="translate(-1125.273 -2216.95)">
        <path id="Path_37-3" data-name="Path 37" d="M146.7,2547.526H104.056" transform="translate(1252 2485)" fill="none" stroke="#c4a8dd" stroke-width="1"/>
        <path id="Path_38-3" data-name="Path 38" d="M146.7,2547.526H104.056" transform="translate(3924.903 4907.149) rotate(90)" fill="none" stroke="#c4a8dd" stroke-width="1"/>
      </g>
      <g id="Group_88" data-name="Group 88" transform="translate(-996.331 -2124.975)">
        <path id="Path_37-4" data-name="Path 37" d="M146.7,2547.526H104.056" transform="translate(1252 2485)" fill="none" stroke="#c4a8dd" stroke-width="1"/>
        <path id="Path_38-4" data-name="Path 38" d="M146.7,2547.526H104.056" transform="translate(3924.903 4907.149) rotate(90)" fill="none" stroke="#c4a8dd" stroke-width="1"/>
      </g>
      <g id="Group_91" data-name="Group 91" transform="translate(-995.888 -2001.443)">
        <path id="Path_37-5" data-name="Path 37" d="M146.7,2547.526H104.056" transform="translate(1252 2485)" fill="none" stroke="#c4a8dd" stroke-width="1"/>
        <path id="Path_38-5" data-name="Path 38" d="M146.7,2547.526H104.056" transform="translate(3924.903 4907.149) rotate(90)" fill="none" stroke="#c4a8dd" stroke-width="1"/>
      </g>
      <g id="Group_94" data-name="Group 94" transform="translate(-1029.989 -1853.046)">
        <path id="Path_37-6" data-name="Path 37" d="M146.7,2547.526H104.056" transform="translate(1252 2485)" fill="none" stroke="#c4a8dd" stroke-width="1"/>
        <path id="Path_38-6" data-name="Path 38" d="M146.7,2547.526H104.056" transform="translate(3924.903 4907.149) rotate(90)" fill="none" stroke="#c4a8dd" stroke-width="1"/>
      </g>
      <g id="Group_77" data-name="Group 77" transform="translate(-1072 -2082)">
        <path id="Path_37-7" data-name="Path 37" d="M167.17,2547.526H104.056" transform="translate(1252 2495.236)" fill="none" stroke="#c4a8dd" stroke-width="1"/>
        <path id="Path_38-7" data-name="Path 38" d="M63.115,0H0" transform="translate(1387.613 5011.205) rotate(90)" fill="none" stroke="#c4a8dd" stroke-width="1"/>
      </g>
      <g id="Group_80" data-name="Group 80" transform="translate(-1066.75 -1947.05)">
        <path id="Path_37-8" data-name="Path 37" d="M167.17,2547.526H104.056" transform="translate(1252 2495.236)" fill="none" stroke="#c4a8dd" stroke-width="1"/>
        <path id="Path_38-8" data-name="Path 38" d="M63.115,0H0" transform="translate(1387.613 5011.205) rotate(90)" fill="none" stroke="#c4a8dd" stroke-width="1"/>
      </g>
      <g id="Group_111" data-name="Group 111" transform="translate(-1163.679 -2018.885)">
        <path id="Path_37-9" data-name="Path 37" d="M153.056,2547.526h-49" transform="translate(1252 2488.179)" fill="none" stroke="#c4a8dd" stroke-width="1"/>
        <path id="Path_38-9" data-name="Path 38" d="M49,0H0" transform="translate(1380.556 5011.205) rotate(90)" fill="none" stroke="#c4a8dd" stroke-width="1"/>
      </g>
      <g id="Group_83" data-name="Group 83" transform="translate(-1138.141 -1832.573)">
        <path id="Path_37-10" data-name="Path 37" d="M167.17,2547.526H104.056" transform="translate(1252 2495.236)" fill="none" stroke="#c4a8dd" stroke-width="1"/>
        <path id="Path_38-10" data-name="Path 38" d="M63.115,0H0" transform="translate(1387.613 5011.205) rotate(90)" fill="none" stroke="#c4a8dd" stroke-width="1"/>
      </g>
      <g id="Group_86" data-name="Group 86" transform="translate(-1061.273 -2216.95)">
        <path id="Path_37-11" data-name="Path 37" d="M167.17,2547.526H104.056" transform="translate(1252 2495.236)" fill="none" stroke="#c4a8dd" stroke-width="1"/>
        <path id="Path_38-11" data-name="Path 38" d="M63.115,0H0" transform="translate(1387.613 5011.205) rotate(90)" fill="none" stroke="#c4a8dd" stroke-width="1"/>
      </g>
      <g id="Group_78" data-name="Group 78" transform="translate(-1093.358 -2131)">
        <path id="Path_37-12" data-name="Path 37" d="M130.22,2547.526H104.056" transform="translate(1252 2476.761)" fill="none" stroke="#c4a8dd" stroke-width="1"/>
        <path id="Path_38-12" data-name="Path 38" d="M26.165,0H0" transform="translate(1369.138 5011.205) rotate(90)" fill="none" stroke="#c4a8dd" stroke-width="1"/>
      </g>
      <g id="Group_98" data-name="Group 98" transform="translate(-1151.938 -2279.032)">
        <path id="Path_37-13" data-name="Path 37" d="M130.22,2547.526H104.056" transform="translate(1252 2476.761)" fill="none" stroke="#c4a8dd" stroke-width="1"/>
        <path id="Path_38-13" data-name="Path 38" d="M26.165,0H0" transform="translate(1369.138 5011.205) rotate(90)" fill="none" stroke="#c4a8dd" stroke-width="1"/>
      </g>
      <g id="Group_81" data-name="Group 81" transform="translate(-1088.108 -1996.05)">
        <path id="Path_37-14" data-name="Path 37" d="M130.22,2547.526H104.056" transform="translate(1252 2476.761)" fill="none" stroke="#c4a8dd" stroke-width="1"/>
        <path id="Path_38-14" data-name="Path 38" d="M26.165,0H0" transform="translate(1369.138 5011.205) rotate(90)" fill="none" stroke="#c4a8dd" stroke-width="1"/>
      </g>
      <g id="Group_112" data-name="Group 112" transform="translate(-1188.33 -1941.658)">
        <path id="Path_37-15" data-name="Path 37" d="M130.22,2547.526H104.056" transform="translate(1252 2476.761)" fill="none" stroke="#c4a8dd" stroke-width="1"/>
        <path id="Path_38-15" data-name="Path 38" d="M26.165,0H0" transform="translate(1369.138 5011.205) rotate(90)" fill="none" stroke="#c4a8dd" stroke-width="1"/>
      </g>
      <g id="Group_113" data-name="Group 113" transform="translate(-1043.071 -1795.623)">
        <path id="Path_37-16" data-name="Path 37" d="M130.22,2547.526H104.056" transform="translate(1252 2476.761)" fill="none" stroke="#c4a8dd" stroke-width="1"/>
        <path id="Path_38-16" data-name="Path 38" d="M26.165,0H0" transform="translate(1369.138 5011.205) rotate(90)" fill="none" stroke="#c4a8dd" stroke-width="1"/>
      </g>
      <g id="Group_114" data-name="Group 114" transform="translate(-931.071 -1938.812)">
        <path id="Path_37-17" data-name="Path 37" d="M130.22,2547.526H104.056" transform="translate(1252 2476.761)" fill="none" stroke="#c4a8dd" stroke-width="1"/>
        <path id="Path_38-17" data-name="Path 38" d="M26.165,0H0" transform="translate(1369.138 5011.205) rotate(90)" fill="none" stroke="#c4a8dd" stroke-width="1"/>
      </g>
      <g id="Group_115" data-name="Group 115" transform="translate(-953.246 -1842.326)">
        <path id="Path_37-18" data-name="Path 37" d="M130.22,2547.526H104.056" transform="translate(1252 2476.761)" fill="none" stroke="#c4a8dd" stroke-width="1"/>
        <path id="Path_38-18" data-name="Path 38" d="M26.165,0H0" transform="translate(1369.138 5011.205) rotate(90)" fill="none" stroke="#c4a8dd" stroke-width="1"/>
      </g>
      <g id="Group_116" data-name="Group 116" transform="translate(-966.771 -2184.694)">
        <path id="Path_37-19" data-name="Path 37" d="M130.22,2547.526H104.056" transform="translate(1252 2476.761)" fill="none" stroke="#c4a8dd" stroke-width="1"/>
        <path id="Path_38-19" data-name="Path 38" d="M26.165,0H0" transform="translate(1369.138 5011.205) rotate(90)" fill="none" stroke="#c4a8dd" stroke-width="1"/>
      </g>
      <g id="Group_84" data-name="Group 84" transform="translate(-1159.499 -1881.573)">
        <path id="Path_37-20" data-name="Path 37" d="M130.22,2547.526H104.056" transform="translate(1252 2476.761)" fill="none" stroke="#c4a8dd" stroke-width="1"/>
        <path id="Path_38-20" data-name="Path 38" d="M26.165,0H0" transform="translate(1369.138 5011.205) rotate(90)" fill="none" stroke="#c4a8dd" stroke-width="1"/>
      </g>
      <g id="Group_117" data-name="Group 117" transform="translate(-1223.499 -1894.656)">
        <path id="Path_37-21" data-name="Path 37" d="M130.22,2547.526H104.056" transform="translate(1252 2476.761)" fill="none" stroke="#c4a8dd" stroke-width="1"/>
        <path id="Path_38-21" data-name="Path 38" d="M26.165,0H0" transform="translate(1369.138 5011.205) rotate(90)" fill="none" stroke="#c4a8dd" stroke-width="1"/>
      </g>
      <g id="Group_101" data-name="Group 101" transform="translate(-1077.512 -1868.491)">
        <path id="Path_37-22" data-name="Path 37" d="M130.22,2547.526H104.056" transform="translate(1252 2476.761)" fill="none" stroke="#c4a8dd" stroke-width="1"/>
        <path id="Path_38-22" data-name="Path 38" d="M26.165,0H0" transform="translate(1369.138 5011.205) rotate(90)" fill="none" stroke="#c4a8dd" stroke-width="1"/>
      </g>
      <g id="Group_87" data-name="Group 87" transform="translate(-1082.631 -2265.95)">
        <path id="Path_37-23" data-name="Path 37" d="M130.22,2547.526H104.056" transform="translate(1252 2476.761)" fill="none" stroke="#c4a8dd" stroke-width="1"/>
        <path id="Path_38-23" data-name="Path 38" d="M26.165,0H0" transform="translate(1369.138 5011.205) rotate(90)" fill="none" stroke="#c4a8dd" stroke-width="1"/>
      </g>
      <g id="Group_93" data-name="Group 93" transform="translate(-953.246 -2050.443)">
        <path id="Path_37-24" data-name="Path 37" d="M130.22,2547.526H104.056" transform="translate(1252 2476.761)" fill="none" stroke="#c4a8dd" stroke-width="1"/>
        <path id="Path_38-24" data-name="Path 38" d="M26.165,0H0" transform="translate(1369.138 5011.205) rotate(90)" fill="none" stroke="#c4a8dd" stroke-width="1"/>
      </g>
      <g id="Group_96" data-name="Group 96" transform="translate(-987.347 -1902.046)">
        <path id="Path_37-25" data-name="Path 37" d="M130.22,2547.526H104.056" transform="translate(1252 2476.761)" fill="none" stroke="#c4a8dd" stroke-width="1"/>
        <path id="Path_38-25" data-name="Path 38" d="M26.165,0H0" transform="translate(1369.138 5011.205) rotate(90)" fill="none" stroke="#c4a8dd" stroke-width="1"/>
      </g>
    </g>
    <g id="Group_105" data-name="Group 105" transform="translate(1183.483 -2267.99)" opacity="0.569">
      <g id="Group_76-2" data-name="Group 76" transform="translate(-1136 -2082)">
        <path id="Path_37-26" data-name="Path 37" d="M146.7,2547.526H104.056" transform="translate(1252 2485)" fill="none" stroke="#c4a8dd" stroke-width="1"/>
        <path id="Path_38-26" data-name="Path 38" d="M146.7,2547.526H104.056" transform="translate(3924.903 4907.149) rotate(90)" fill="none" stroke="#c4a8dd" stroke-width="1"/>
      </g>
      <g id="Group_79-2" data-name="Group 79" transform="translate(-1130.75 -1947.05)">
        <path id="Path_37-27" data-name="Path 37" d="M146.7,2547.526H104.056" transform="translate(1252 2485)" fill="none" stroke="#c4a8dd" stroke-width="1"/>
        <path id="Path_38-27" data-name="Path 38" d="M146.7,2547.526H104.056" transform="translate(3924.903 4907.149) rotate(90)" fill="none" stroke="#c4a8dd" stroke-width="1"/>
      </g>
      <g id="Group_85-2" data-name="Group 85" transform="translate(-1136 -2196.477)">
        <path id="Path_37-28" data-name="Path 37" d="M146.7,2547.526H104.056" transform="translate(1252 2485)" fill="none" stroke="#c4a8dd" stroke-width="1"/>
        <path id="Path_38-28" data-name="Path 38" d="M146.7,2547.526H104.056" transform="translate(3924.903 4907.149) rotate(90)" fill="none" stroke="#c4a8dd" stroke-width="1"/>
      </g>
      <g id="Group_88-2" data-name="Group 88" transform="translate(-996.331 -2124.975)">
        <path id="Path_37-29" data-name="Path 37" d="M146.7,2547.526H104.056" transform="translate(1252 2485)" fill="none" stroke="#c4a8dd" stroke-width="1"/>
        <path id="Path_38-29" data-name="Path 38" d="M146.7,2547.526H104.056" transform="translate(3924.903 4907.149) rotate(90)" fill="none" stroke="#c4a8dd" stroke-width="1"/>
      </g>
      <g id="Group_107" data-name="Group 107" transform="translate(-788.331 -2287.271)">
        <path id="Path_37-30" data-name="Path 37" d="M146.7,2547.526H104.056" transform="translate(1252 2485)" fill="none" stroke="#c4a8dd" stroke-width="1"/>
        <path id="Path_38-30" data-name="Path 38" d="M146.7,2547.526H104.056" transform="translate(3924.903 4907.149) rotate(90)" fill="none" stroke="#c4a8dd" stroke-width="1"/>
      </g>
      <g id="Group_91-2" data-name="Group 91" transform="translate(-995.888 -2001.443)">
        <path id="Path_37-31" data-name="Path 37" d="M146.7,2547.526H104.056" transform="translate(1252 2485)" fill="none" stroke="#c4a8dd" stroke-width="1"/>
        <path id="Path_38-31" data-name="Path 38" d="M146.7,2547.526H104.056" transform="translate(3924.903 4907.149) rotate(90)" fill="none" stroke="#c4a8dd" stroke-width="1"/>
      </g>
      <g id="Group_94-2" data-name="Group 94" transform="translate(-1029.989 -1853.046)">
        <path id="Path_37-32" data-name="Path 37" d="M146.7,2547.526H104.056" transform="translate(1252 2485)" fill="none" stroke="#c4a8dd" stroke-width="1"/>
        <path id="Path_38-32" data-name="Path 38" d="M146.7,2547.526H104.056" transform="translate(3924.903 4907.149) rotate(90)" fill="none" stroke="#c4a8dd" stroke-width="1"/>
      </g>
      <g id="Group_77-2" data-name="Group 77" transform="translate(-1072 -2082)">
        <path id="Path_37-33" data-name="Path 37" d="M167.17,2547.526H104.056" transform="translate(1252 2495.236)" fill="none" stroke="#c4a8dd" stroke-width="1"/>
        <path id="Path_38-33" data-name="Path 38" d="M63.115,0H0" transform="translate(1387.613 5011.205) rotate(90)" fill="none" stroke="#c4a8dd" stroke-width="1"/>
      </g>
      <g id="Group_80-2" data-name="Group 80" transform="translate(-1066.75 -1947.05)">
        <path id="Path_37-34" data-name="Path 37" d="M167.17,2547.526H104.056" transform="translate(1252 2495.236)" fill="none" stroke="#c4a8dd" stroke-width="1"/>
        <path id="Path_38-34" data-name="Path 38" d="M63.115,0H0" transform="translate(1387.613 5011.205) rotate(90)" fill="none" stroke="#c4a8dd" stroke-width="1"/>
      </g>
      <g id="Group_86-2" data-name="Group 86" transform="translate(-1061.273 -2216.95)">
        <path id="Path_37-35" data-name="Path 37" d="M167.17,2547.526H104.056" transform="translate(1252 2495.236)" fill="none" stroke="#c4a8dd" stroke-width="1"/>
        <path id="Path_38-35" data-name="Path 38" d="M63.115,0H0" transform="translate(1387.613 5011.205) rotate(90)" fill="none" stroke="#c4a8dd" stroke-width="1"/>
      </g>
      <g id="Group_106" data-name="Group 106" transform="translate(-888.273 -2263.587)">
        <path id="Path_37-36" data-name="Path 37" d="M167.17,2547.526H104.056" transform="translate(1252 2495.236)" fill="none" stroke="#c4a8dd" stroke-width="1"/>
        <path id="Path_38-36" data-name="Path 38" d="M63.115,0H0" transform="translate(1387.613 5011.205) rotate(90)" fill="none" stroke="#c4a8dd" stroke-width="1"/>
      </g>
      <g id="Group_78-2" data-name="Group 78" transform="translate(-1093.358 -2131)">
        <path id="Path_37-37" data-name="Path 37" d="M130.22,2547.526H104.056" transform="translate(1252 2476.761)" fill="none" stroke="#c4a8dd" stroke-width="1"/>
        <path id="Path_38-37" data-name="Path 38" d="M26.165,0H0" transform="translate(1369.138 5011.205) rotate(90)" fill="none" stroke="#c4a8dd" stroke-width="1"/>
      </g>
      <g id="Group_110" data-name="Group 110" transform="translate(-1173.358 -1993.204)">
        <path id="Path_37-38" data-name="Path 37" d="M130.22,2547.526H104.056" transform="translate(1252 2476.761)" fill="none" stroke="#c4a8dd" stroke-width="1"/>
        <path id="Path_38-38" data-name="Path 38" d="M26.165,0H0" transform="translate(1369.138 5011.205) rotate(90)" fill="none" stroke="#c4a8dd" stroke-width="1"/>
      </g>
      <g id="Group_98-2" data-name="Group 98" transform="translate(-753.938 -2200.473)">
        <path id="Path_37-39" data-name="Path 37" d="M130.22,2547.526H104.056" transform="translate(1252 2476.761)" fill="none" stroke="#c4a8dd" stroke-width="1"/>
        <path id="Path_38-39" data-name="Path 38" d="M26.165,0H0" transform="translate(1369.138 5011.205) rotate(90)" fill="none" stroke="#c4a8dd" stroke-width="1"/>
      </g>
      <g id="Group_108" data-name="Group 108" transform="translate(-745.688 -2374.473)">
        <path id="Path_37-40" data-name="Path 37" d="M130.22,2547.526H104.056" transform="translate(1252 2476.761)" fill="none" stroke="#c4a8dd" stroke-width="1"/>
        <path id="Path_38-40" data-name="Path 38" d="M26.165,0H0" transform="translate(1369.138 5011.205) rotate(90)" fill="none" stroke="#c4a8dd" stroke-width="1"/>
      </g>
      <g id="Group_81-2" data-name="Group 81" transform="translate(-1088.108 -1996.05)">
        <path id="Path_37-41" data-name="Path 37" d="M130.22,2547.526H104.056" transform="translate(1252 2476.761)" fill="none" stroke="#c4a8dd" stroke-width="1"/>
        <path id="Path_38-41" data-name="Path 38" d="M26.165,0H0" transform="translate(1369.138 5011.205) rotate(90)" fill="none" stroke="#c4a8dd" stroke-width="1"/>
      </g>
      <g id="Group_101-2" data-name="Group 101" transform="translate(-1077.512 -1868.491)">
        <path id="Path_37-42" data-name="Path 37" d="M130.22,2547.526H104.056" transform="translate(1252 2476.761)" fill="none" stroke="#c4a8dd" stroke-width="1"/>
        <path id="Path_38-42" data-name="Path 38" d="M26.165,0H0" transform="translate(1369.138 5011.205) rotate(90)" fill="none" stroke="#c4a8dd" stroke-width="1"/>
      </g>
      <g id="Group_87-2" data-name="Group 87" transform="translate(-966.328 -2221.794)">
        <path id="Path_37-43" data-name="Path 37" d="M130.22,2547.526H104.056" transform="translate(1252 2476.761)" fill="none" stroke="#c4a8dd" stroke-width="1"/>
        <path id="Path_38-43" data-name="Path 38" d="M26.165,0H0" transform="translate(1369.138 5011.205) rotate(90)" fill="none" stroke="#c4a8dd" stroke-width="1"/>
      </g>
      <g id="Group_109" data-name="Group 109" transform="translate(-882.881 -2335.794)">
        <path id="Path_37-44" data-name="Path 37" d="M130.22,2547.526H104.056" transform="translate(1252 2476.761)" fill="none" stroke="#c4a8dd" stroke-width="1"/>
        <path id="Path_38-44" data-name="Path 38" d="M26.165,0H0" transform="translate(1369.138 5011.205) rotate(90)" fill="none" stroke="#c4a8dd" stroke-width="1"/>
      </g>
      <g id="Group_93-2" data-name="Group 93" transform="translate(-953.246 -2050.443)">
        <path id="Path_37-45" data-name="Path 37" d="M130.22,2547.526H104.056" transform="translate(1252 2476.761)" fill="none" stroke="#c4a8dd" stroke-width="1"/>
        <path id="Path_38-45" data-name="Path 38" d="M26.165,0H0" transform="translate(1369.138 5011.205) rotate(90)" fill="none" stroke="#c4a8dd" stroke-width="1"/>
      </g>
      <g id="Group_96-2" data-name="Group 96" transform="translate(-987.347 -1902.046)">
        <path id="Path_37-46" data-name="Path 37" d="M130.22,2547.526H104.056" transform="translate(1252 2476.761)" fill="none" stroke="#c4a8dd" stroke-width="1"/>
        <path id="Path_38-46" data-name="Path 38" d="M26.165,0H0" transform="translate(1369.138 5011.205) rotate(90)" fill="none" stroke="#c4a8dd" stroke-width="1"/>
      </g>
    </g>
  </g>
</svg>
