<svg xmlns="http://www.w3.org/2000/svg" aria-hidden="true" viewBox="0 0 28 28">
  <path fill="#A9A9A9" d="M6.04366032 28.0000003H.44598175V9.97348179h5.59767857V28.0000003ZM3.24180764 7.51449833c-1.78995536 0-3.24180803-1.48262239-3.24180803-3.2726177 0-1.79044109 1.45140691-3.24188036 3.24180803-3.24188036s3.24180804 1.45143927 3.24180804 3.24188036c0 1.78999531-1.45245536 3.2726177-3.24180804 3.2726177ZM26.9939728 28.0000003h-5.585625v-8.7751959c0-2.0913413-.0421875-4.7733209-2.9103348-4.7733209-2.9103348 0-3.356317 2.272149-3.356317 4.6226479v8.9258689H9.55004425V9.97348179H14.918705v2.45898351h.0783482c.7473214-1.4163263 2.5728348-2.91100253 5.2963393-2.91100253 5.6651785 0 6.7066071 3.73066363 6.7066071 8.57630753v9.90223h-.0060268Z"/>
</svg>