<svg xmlns="http://www.w3.org/2000/svg" xml:space="preserve" viewBox="0 0 96 96"><linearGradient id="a" x1="28.29" x2="68.705" y1="117.474" y2="6.437" gradientTransform="matrix(1 0 0 -1 0 98)" gradientUnits="userSpaceOnUse"><stop offset="0" stop-color="#2aa4f4"/><stop offset="1" stop-color="#007ad9"/></linearGradient><path fill="url(#a)" d="M5.2 5.7 11.8 81c.3 3.1 2.5 5.8 5.5 6.6l26.9 7.7c2.3.7 4.7.7 7 0l26.9-7.7c3-.9 5.2-3.5 5.5-6.6l6.7-75.4c.3-3-2.1-5.5-5-5.5h-75C7.2.1 4.9 2.7 5.2 5.7z"/><path fill="#35c1f1" d="M47.7 7.7v80.8l25-7.1c2-.6 3.5-2.3 3.7-4.4l5.8-66.4c.1-1.5-1-2.8-2.5-2.8h-32z"/><path fill="#fff" d="M70.7 20.4h-23v10.1h12.4l-.8 10.1H47.7v10.1h11.1L58 62.1l-10.4 3.5v10.6l20-6.6 1.8-29.1 1.3-20.1z"/><path fill="#d6e0e9" d="M47.7 20.4v10.1H25.2l-.8-10.1h23.3zM36.1 40.7l.5 10.1h11.1V40.7H36.1zm1 15.1H26.9l.8 13.9 20 6.6V65.7l-10.4-3.5-.2-6.4z"/><path d="m70.7 20.4-1.3 20.3-1.8 29.1-20 6.6-20-6.6-.8-13.9h10.1l.3 6.3 10.4 3.5L58 62.2l.8-11.4H36.6l-.5-10.1h23.2l.8-10.1H25.2l-.8-10.1h46.3m2.7-2.6H21.7l.2 2.7.8 10.1.2 2.3h34.5l-.4 5.1H33.4l.1 2.7.5 10.1.1 2.4h-9.9l.1 2.7.8 13.9.1 1.7 1.6.5 20 6.6.8.3.8-.3 20-6.6 1.6-.5.1-1.7L72 40.8l1.3-20.2.1-2.7zM39.5 53.3h16.6l-.5 7-8 2.7-7.9-2.7-.2-4.6v-2.4z" opacity=".05"/><path d="m70.7 20.4-1.3 20.3-1.8 29.1-20 6.6-20-6.6-.8-13.9h10.1l.3 6.3 10.4 3.5L58 62.2l.8-11.4H36.6l-.5-10.1h23.2l.8-10.1H25.2l-.8-10.1h46.3m1.4-1.4H23l.1 1.4.8 10.1.1 1.2h34.7l-.6 7.6H34.8l.1 1.3.5 10.1.1 1.2h22.1l-.6 9.2-9.2 3.1-9.1-3.1-.2-5.5-.1-1.2H25.6l.1 1.3.8 13.9v.9l.8.3 20 6.6.4.1.4-.1 20-6.6.8-.3.1-.9 1.8-29.1L72 20.5l.1-1.4z" opacity=".07"/></svg>