<svg xmlns="http://www.w3.org/2000/svg" xml:space="preserve" viewBox="0 0 96 96">
  <path fill="#f4511e" d="m93.8 43.3-41-41c-1.3-1.3-3-2-4.8-2-1.8 0-3.5.8-4.8 2l-8.8 8.8 10.3 10.3c1-.5 2-.8 3.3-.8 4.3 0 7.5 3.3 7.5 7.5 0 1.3-.3 2.3-.8 3.3l10.1 10.1c1-.5 2-.8 3.3-.8 4.3 0 7.5 3.3 7.5 7.5s-3.3 7.5-7.5 7.5-7.5-3.3-7.5-7.5c0-1.3.3-2.3.8-3.3L51.3 35c-.3 0-.5.3-.8.3v26.1c3 1 5 3.8 5 7 0 4.3-3.3 7.5-7.5 7.5s-7.5-3.3-7.5-7.5c0-3.3 2-6 5-7V35c-3-1-5-3.8-5-7 0-1.3.3-2.3.8-3.3L30.9 14.4 2.3 43.3c-1.3 1.3-2 3-2 4.8s.8 3.5 2 4.8l41 41c1.3 1.3 3 2 4.8 2 1.8 0 3.5-.8 4.8-2l41-41c1.3-1.3 2-3 2-4.8-.1-1.8-.9-3.5-2.1-4.8z"/>
</svg>