<svg xmlns="http://www.w3.org/2000/svg" xml:space="preserve" viewBox="0 0 96 96">
  <path fill="#e7a42b" d="M5.3.3h85.5L80.7 85.8 48 95.9 12.8 85.8z"/>
  <path fill="#f2bf22" d="M82.3 7.9 73.8 80 48 88V7.9z"/>
  <path fill="#faf9f8" d="m48 40.6 2.5 5-2.5 5H24.9L27 17.9h21l2.5 5.1-2.5 5h-9.9l-.9 12.6z"/>
  <path fill="#ebebeb" d="M47.8 69.6h.2l2.5 6.2-2.5 4.3h-.1l-21-6-1.4-15.9h10.1l.7 8.2z"/>
  <path fill="#fff" d="m70.8 40.6-3.9 33.7L48 80.1V69.6l9.7-3 1.8-16H48v-10zM73 33H62.9l-.6-5H48V17.9h23l.4 3.2z"/>
</svg>