<svg xmlns="http://www.w3.org/2000/svg" xml:space="preserve" id="Layer_1" x="0" y="0" version="1.1" viewBox="0 0 96 96">
  <style>
    .st1{fill:#1c0802}
  </style>
  <path fill="#ff5722" d="M.3 10.9C.3 5 5.1.3 10.9.3h74.5C91.3.3 96 5.1 96 10.9v74.5C96 91.3 91.3 96 85.4 96H10.9C5.1 96 .3 91.3.3 85.4V10.9z"/>
  <path d="M8.3 8.3V88H88V8.3H8.3zm39 58.5-2-7.7H34.9l-2 7.7h-8.1L36.6 29h7l11.9 37.8h-8.2zm19.1 0H59V38.7h7.4v28.1zm-.8-32.6c-.7.7-1.7 1.1-2.9 1.1s-2.2-.4-2.9-1.1c-.7-.7-1.1-1.7-1.1-2.8 0-1.1.4-2.1 1.1-2.8.7-.7 1.7-1.1 2.9-1.1s2.2.4 2.9 1.1 1.1 1.7 1.1 2.8c0 1.1-.4 2.1-1.1 2.8z" class="st1"/>
  <path d="M36.6 52.7h7.1l-3.5-13.5-3.6 13.5z" class="st1"/>
</svg>