<svg xmlns="http://www.w3.org/2000/svg" xml:space="preserve" id="Layer_1" x="0" y="0" version="1.1" viewBox="0 0 96 96">
  <style>
    .st1{fill:#16020b}
  </style>
  <path fill="#e91e63" d="M.1 10.8C.1 4.9 4.9.2 10.7.2h74.4C91 .2 95.7 5 95.7 10.8v74.4c0 5.9-4.8 10.6-10.6 10.6H10.8C4.9 95.8.2 91 .2 85.2V10.8z"/>
  <path d="M56.7 44.1c-1.4 0-2.3.5-3 1.6-.6 1.1-.9 3-.9 5.8v1.9c0 2.8.3 4.7.9 5.8.6 1.1 1.6 1.6 3 1.6 1.5 0 2.6-.6 3.3-1.9V46.2c-.7-1.4-1.8-2.1-3.3-2.1z" class="st1"/>
  <path d="M8.1 8.1v79.8h79.8V8.1H8.1zm32.3 58.5h-7.6V28.8h7.6v37.8zm27 0h-6.7l-.3-2.9c-1.5 2.3-3.4 3.4-5.8 3.4-2.9 0-5.2-1.1-6.7-3.4s-2.3-5.6-2.4-9.9v-2.1c0-4.6.8-8 2.3-10.3 1.6-2.3 3.8-3.4 6.8-3.4 2.2 0 4 .9 5.4 2.8V26.7h7.4v39.9z" class="st1"/>
</svg>