<svg xmlns="http://www.w3.org/2000/svg" xml:space="preserve" id="Layer_1" x="0" y="0" version="1.1" viewBox="0 0 96 96">
  <style>
    .st1{fill:#020f16}
  </style>
  <path fill="#03a9f4" d="M.2 10.9C.2 5 5 .2 10.9.2h74.3C91 .2 95.8 5 95.8 10.9v74.3c0 5.9-4.8 10.6-10.6 10.6H10.9C5 95.8.2 91 .2 85.1V10.9z"/>
  <path d="M37.4 35.2h-5.3V47h5.2c1.5 0 2.6-.5 3.4-1.4s1.2-2.3 1.2-4.1c0-1.9-.4-3.4-1.2-4.5s-1.9-1.8-3.3-1.8z" class="st1"/>
  <path d="M8.2 8.2v79.6h79.6V8.2H8.2zm38.1 41.9c-2.2 2.1-5.2 3.2-9.1 3.2h-5.1v13.3h-7.6V28.8h12.9c3.7 0 6.7 1.2 8.9 3.5s3.3 5.3 3.3 9-1.1 6.7-3.3 8.8zM71 64.8c-1.9 1.5-4.4 2.3-7.4 2.3-2.1 0-3.9-.4-5.4-1.2-1.6-.8-2.8-1.9-3.7-3.4-.9-1.4-1.3-3-1.3-4.6h7c0 1.3.3 2.2.9 2.9.6.6 1.5 1 2.8 1 2 0 3-.9 3-2.7 0-.6-.3-1.2-.9-1.7-.6-.5-1.9-1.2-4-2.1-3-1.2-5.1-2.5-6.2-3.8-1.1-1.3-1.7-2.9-1.7-4.9 0-2.5.9-4.5 2.7-6.1s4.1-2.4 7-2.4c3.1 0 5.5.8 7.4 2.4 1.8 1.6 2.8 3.7 2.8 6.4h-7.3c0-2.3-.9-3.4-2.8-3.4-.8 0-1.4.2-1.9.7-.5.5-.8 1.2-.8 2 0 .6.3 1.2.8 1.6s1.9 1.2 3.9 2c3 1.1 5.1 2.3 6.3 3.7 1.2 1.4 1.9 3.1 1.9 5.3-.2 2.5-1.2 4.5-3.1 6z" class="st1"/>
</svg>