<svg xmlns="http://www.w3.org/2000/svg" xml:space="preserve" viewBox="0 0 96 96">
  <path fill="#f06292" d="M82.4 54.3c-3 0-6 .7-8.6 2-.8-1.4-1.5-2.9-1.9-4.5-.3-1.2-.3-2.5-.2-3.8.3-1.4.7-2.7 1.1-4.1 0-.2-.2-1-2.1-1-1.9 0-3.6.4-3.8.9-.3.9-.6 1.9-.8 2.8-1.6 3.9-3.5 7.7-5.8 11.2-.6-1-1-2.1-1.3-3.3-.3-1.2-.3-2.5-.2-3.8.3-1.4.7-2.7 1.1-4.1 0-.2-.2-1-2.1-1-1.9 0-3.6.4-3.8.9s-.4 1.7-.8 2.8-5 11.5-6.3 14.2c-.6 1.4-1.2 2.5-1.5 3.2l-.1.1c-.3.7-.5 1-.5 1-.3.5-.5.9-.7.9-.2-1-.2-2 0-3 .7-3.6 2.4-9.2 2.3-9.4 0-.1.3-1.1-1.1-1.6-.7-.3-1.4-.2-2 .3-.1 0-.2.3-.2.3s1.5-6.3-2.9-6.3c-2.7 0-6.6 3-8.4 5.7-1.2.7-3.7 2-6.4 3.5l-3.1 1.7-.2-.2C16.8 54 6.9 50 7.3 42.3c.2-2.8 1.1-10.1 18.9-19 14.8-6.8 26.5-4.8 28.5-.3 2.9 6.3-6.2 18.1-21.4 19.8-5.8.7-8.8-1.6-9.6-2.4-.8-.9-.9-.9-1.2-.8-.5.3-.2 1 0 1.5 1.2 2.1 3.1 3.7 5.5 4.3 6 1.3 12.2.7 17.8-1.8C54.9 40.1 62.1 30.2 60 22c-2.1-8.4-16.1-11.2-29.2-6.5-8.3 2.8-15.9 7.1-22.5 12.9C1 35.1-.1 41.1.4 43.5 2.1 52.3 14.2 58 19 62.2l-.7.4c-2.4 1.2-11.6 6-14 11.1-2.6 5.8.4 9.9 2.4 10.5 6.2 1.5 12.6-1.1 16-6.5 2.9-4.4 3.4-9.9 1.4-14.8 0 0 0-.1-.1-.1l1.9-1.1c1.2-.7 2.4-1.4 3.5-2-.7 2-1.1 4.2-1.2 6.3-.2 3.3.8 6.6 2.8 9.2.6.5 1.5.8 2.3.8 2 0 3-1.7 4-3.7 1.3-2.5 2.4-5.3 2.4-5.3s-1.4 7.8 2.4 7.8c1.4 0 2.8-1.8 3.4-2.7l.1-.2.2-.4c.6-1 1.8-3.2 3.7-6.9 2.4-4.7 4.7-10.7 4.7-10.7.2 1.3.5 2.6.9 3.8.6 1.5 1.2 3 2 4.5l-.9 1.2c-.2.6-.7 1.3-1.2 1.9-1.6 1.8-3.1 3.6-4.5 5.6-.4.7-.2 1.6.4 2 .7.4 1.5.5 2.3.4 1.2-.1 2.4-.3 3.5-.8 1.1-.4 2.1-.9 3-1.6 1.9-1.3 3-3.6 2.9-5.9-.1-1.5-.5-2.9-1.1-4.2l.5-.7c1.9-2.9 3.7-5.9 5.2-9 .2 1.3.5 2.6.9 3.8.5 1.3 1 2.6 1.7 3.8-2.2 1.7-4 4-5.1 6.6-1.1 3.2-.2 4.6 1.4 4.9.9.1 1.8-.1 2.5-.5 1.2-.4 2.2-.9 3.2-1.7 2.1-1.2 3.4-3.5 3.6-5.9-.1-1.2-.4-2.4-.8-3.5 2.9-1.2 6.1-1.5 9.2-1.1 8.3 1 9.9 6.1 9.6 8.3-.3 1.6-1.3 2.9-2.6 3.7-.6.4-.8.5-.7.8.1.4.3.4.8.3 2.6-.8 4.4-3.1 4.5-5.8.4-5-4.4-10.5-13-10.5zm-64 21.6c-2.7 3-6.6 4.1-8.2 3.2-1.8-1-1.1-5.4 2.3-8.6 2-1.8 4.2-3.4 6.5-4.8l1.7-1 .2-.1.4-.3c1.2 4 .1 8.5-2.9 11.6zm20-13.6c-1 2.3-3 8.3-4.2 8-1-.3-1.7-4.8-.2-9.3.7-2.2 1.8-4.2 3.3-6 1.5-1.7 3.2-2.2 3.6-1.5.5.8-1.9 7.3-2.5 8.8zM55 70.1c-.4.2-.8.3-.9.2-.1-.1.2-.4.2-.4s2.1-2.2 2.9-3.2c.5-.6 1-1.3 1.6-2.1v.2c-.4 2.4-1.8 4.3-3.8 5.3zm12.7-2.9c-.3-.2-.3-.9.7-3.1.7-1.4 1.7-2.6 2.8-3.7.9 2.7-.5 5.7-3.2 6.6-.1.2-.2.2-.3.2z"/>
</svg>