<svg xmlns="http://www.w3.org/2000/svg" width="35.243" height="40" viewBox="0 0 35.243 40"><g transform="translate(-6.379 -4)"><path d="M37.216,11.78a.348.348,0,0,0-.351-.305c-.14,0-3.21-.234-3.21-.234S31.523,9.109,31.265,8.9a.984.984,0,0,0-.867-.117c-.023,0-.469.141-1.195.375-.726-2.086-1.968-3.984-4.194-3.984H24.8A2.728,2.728,0,0,0,22.735,4c-5.155,0-7.639,6.444-8.412,9.725-2.015.633-3.445,1.054-3.609,1.125-1.125.351-1.148.375-1.289,1.429-.117.8-3.046,23.456-3.046,23.456L29.179,44l12.373-2.671C41.575,41.282,37.24,11.991,37.216,11.78Zm-9.279-2.3c-.562.164-1.242.375-1.921.609V9.671a9,9,0,0,0-.469-3.117c1.171.141,1.9,1.43,2.39,2.929Zm-3.82-2.671a9.808,9.808,0,0,1,.516,3.468v.234c-1.265.4-2.6.8-3.984,1.242.773-2.952,2.25-4.4,3.468-4.944Zm-1.5-1.453a1.123,1.123,0,0,1,.656.234c-1.664.773-3.421,2.718-4.148,6.655-1.1.351-2.156.656-3.163.984C16.806,10.233,18.915,5.359,22.617,5.359Z" fill="#7cb342"/><path d="M36.865,11.428c-.141,0-3.21-.234-3.21-.234s-2.132-2.132-2.39-2.343a.458.458,0,0,0-.305-.141L29.249,44l12.373-2.671S37.287,11.991,37.263,11.78A.636.636,0,0,0,36.865,11.428Z" fill="#558b2f"/><path d="M24.792,18.593l-1.475,4.449a6.93,6.93,0,0,0-2.927-.715c-2.374,0-2.489,1.5-2.489,1.867,0,2.028,5.3,2.812,5.3,7.583,0,3.757-2.374,6.177-5.578,6.177a7.678,7.678,0,0,1-5.808-2.4l1.037-3.411S14.881,33.9,16.587,33.9a1.514,1.514,0,0,0,1.59-1.521c0-2.651-4.333-2.766-4.333-7.145,0-3.665,2.628-7.214,7.952-7.214A6.153,6.153,0,0,1,24.792,18.593Z" fill="#fff"/></g></svg>