<svg xmlns="http://www.w3.org/2000/svg" width="38.023" height="34.134" viewBox="0 0 38.023 34.134"><g transform="translate(-3 -9.24)"><path d="M11.3,10.365,22.012,9.24l10.715,1.125,8.3,11.045L22.012,43.374,3,21.411Z" fill="#fdb300"/><path d="M10.7,48.29l11.31,21.963L3,48.29Z" transform="translate(0 -26.879)" fill="#ea6c00"/><path d="M75.31,48.29,64,70.253,83.012,48.29Z" transform="translate(-41.988 -26.879)" fill="#ea6c00"/><path d="M27.71,48.29H50.331L39.02,70.253Z" transform="translate(-17.009 -26.879)" fill="#fdad00"/><path d="M39.02,9.24,28.305,10.365l-.6,11.045Z" transform="translate(-17.009)" fill="#fdd231"/><path d="M64,9.24l10.715,1.125.6,11.045Z" transform="translate(-41.988)" fill="#fdd231"/><path d="M106.677,23.9,98.38,12.85l.6,11.045Z" transform="translate(-65.653 -2.485)" fill="#fdad00"/><path d="M39.02,9.24,27.71,21.411H50.331Z" transform="translate(-17.009)" fill="#feeeb7"/><path d="M3,23.9,11.3,12.85,10.7,23.9Z" transform="translate(0 -2.485)" fill="#fdad00"/></g></svg>