<svg xmlns="http://www.w3.org/2000/svg" xml:space="preserve" viewBox="0 0 80 80">
  <linearGradient id="a" x1="13.3997" x2="63.5046" y1="80.162" y2="8.2389" gradientTransform="matrix(1 0 0 -1 0 82)" gradientUnits="userSpaceOnUse">
    <stop offset="0" stop-color="#0d61a9"/>
    <stop offset="1" stop-color="#16528c"/>
  </linearGradient>
  <path fill="url(#a)" d="M40 .3C18.1.3.3 18.1.3 40S18.1 79.8 40 79.8c21.9 0 39.7-17.8 39.7-39.7S61.9.3 40 .3z"/>
  <path d="M40 77.8C19.2 77.8 2.2 60.9 2.2 40c0-20.8 17-37.7 37.8-37.7 20.8 0 37.8 16.9 37.8 37.8 0 20.8-17 37.7-37.8 37.7zm-6.4-8.6c2.1.5 4.2.7 6.4.7 2.7 0 5.3-.4 7.9-1.1l-7.3-20-7 20.4zM11 33.1c-.5 2.3-.8 4.6-.8 7 0 9.7 4.5 18.4 12.1 24L11 33.1zm58.3 1.6c-.4 1.8-1 3.6-1.8 5.5l-7.6 22c6.2-5.6 9.9-13.7 9.9-22.2 0-1.8-.1-3.6-.5-5.3zM32.1 53.3 37 38.7l-4.5-12.5c-1.2-.1-2.2-.2-2.2-.2-1.7-.1-3-1.6-2.9-3.4.1-1.8 1.5-3.2 3.3-3.2h.4c3.6.2 6.3.4 8.1.4 3.2 0 8.3-.4 8.3-.4 2 0 3.4 1.3 3.5 3.1.1 1.5-.9 3.2-2.9 3.5-.2 0-.6.1-1.2.1l8.9 26.6 1.4-4.6c1.6-4 2.3-7.2 2.3-9.7 0-2.8-1.3-4.8-2.4-6.7-.2-.4-.5-.7-.6-1.1l-.4-.6c-1.5-2.5-3-4.9-3-7.8 0-2.6 1.7-5.2 4.1-6.6-5-3.5-11-5.4-17.1-5.4-8.3 0-16.1 3.4-21.8 9.4 2.7-.1 5.3-.3 5.4-.3h.3c1.8 0 3.2 1.3 3.3 3.1.1 1.5-.9 3.2-2.9 3.5-.1 0-.6.1-1.2.1l8.9 27.3z" opacity=".05"/>
  <path d="M40 76.8C19.7 76.8 3.2 60.3 3.2 40 3.2 19.8 19.7 3.3 40 3.3c20.3 0 36.8 16.5 36.8 36.8 0 20.2-16.5 36.7-36.8 36.7zm-7.7-6.9c2.5.6 5.1 1 7.7 1 3.1 0 6.2-.5 9.2-1.4l-8.6-23.6-8.3 24zm-21.4-40C9.8 33.1 9.2 36.6 9.2 40c0 11 5.7 21 15.1 26.5L10.9 29.9zm58.2-.1c-.2 3.2-1 6.4-2.4 10l-8.8 25.3c8-5.7 12.9-15.1 12.9-25.1 0-3.4-.6-6.9-1.7-10.2zm-37 26.6L38 38.7l-4.8-13.5c-1.5-.1-2.8-.3-2.8-.3-1.2-.1-2.1-1.1-2.1-2.3 0-1.3 1-2.2 2.3-2.2.2 0 5.4.4 8.5.4 3.3 0 8.3-.4 8.4-.4 1.4 0 2.4.9 2.4 2.1.1 1.1-.6 2.3-2.1 2.4-.1 0-1.1.1-2.4.2L55.8 56l2.3-7.6c1.6-4.1 2.4-7.4 2.4-10 0-3-1.4-5.4-2.6-7.2-.2-.4-.4-.7-.6-1.1l-.4-.7C55.4 27 54 24.8 54 22.1c0-2.8 2.2-5.5 5.1-6.3C53.7 11.6 47 9.2 40 9.2c-9.3 0-18.2 4.3-24 11.5 3.2 0 7.6-.4 7.7-.4h.2c1.2 0 2.2.9 2.3 2.2.1 1.1-.6 2.3-2.1 2.4-.1 0-1.1.1-2.4.2l10.4 31.3z" opacity=".07"/>
  <path fill="#fff" d="M40 4.3C20.3 4.3 4.2 20.3 4.2 40S20.3 75.8 40 75.8c19.7 0 35.8-16.1 35.8-35.8S59.7 4.3 40 4.3zM8.2 40c0-4.6 1-9 2.8-12.9l15.2 41.6c-10.7-5.2-18-16.1-18-28.7zM40 71.8c-3.1 0-6.1-.4-9-1.3l9.5-27.7 9.8 26.8c.1.2.2.3.2.4-3.2 1.2-6.8 1.8-10.5 1.8zm4.2-47.5c1.9-.1 3.6-.3 3.6-.3 1.7-.2 1.5-2.7-.2-2.6 0 0-5.1.4-8.5.4-3.1 0-8.4-.4-8.4-.4-1.7-.1-1.9 2.5-.2 2.6 0 0 1.6.2 3.3.3L39 38.7l-7 20.9-11.7-35.3c1.9-.1 3.7-.3 3.7-.3 1.7-.2 1.5-2.7-.2-2.6 0 0-5.2.4-8.5.4-.6 0-.8.1-1.2-.1C19.8 13.5 29.3 8.2 40 8.2c8.3 0 15.8 3.1 21.5 8.3h-.4c-3.1 0-6 2.7-6 5.6 0 2.6 1.5 4.8 3.1 7.5 1.2 2.1 3.3 4.8 3.3 8.8 0 2.7-.8 6.2-2.4 10.3l-3.2 10.6-11.7-35zM56 67.5l9.7-28.1c1.8-4.5 2.4-8.2 2.4-11.4 0-1.2-.1-2.3-.2-3.3 2.5 4.5 3.9 9.7 3.9 15.3 0 11.8-6.3 22-15.8 27.5z"/>
</svg>