<svg xmlns="http://www.w3.org/2000/svg" xml:space="preserve" viewBox="0 0 96 96">
  <path fill="#ff41c8" d="M.1 10.6C.1 4.8 4.8 0 10.7 0h74.5c5.9 0 10.6 4.8 10.6 10.6v74.5c0 5.9-4.8 10.6-10.6 10.6H10.7C4.8 95.7.1 90.9.1 85.1V10.6z"/>
  <path fill="#16020b" d="M8.1 8v79.9H88V8H8.1zm26.8 33.8 5.1-13h8.8l-8.9 18.8 9.1 19h-8.9l-5.2-13.2-5.2 13.2h-8.9l9.2-19-8.9-18.8h8.8l5 13zm15.9 9.9c0-4.6.8-8.1 2.3-10.3C54.7 39.1 57 38 60 38c2.2 0 4 .9 5.4 2.8V26.7h7.4v39.9h-6.7l-.3-2.9c-1.5 2.3-3.5 3.4-5.8 3.4-2.9 0-5.2-1.1-6.7-3.4-1.6-2.3-2.3-5.6-2.4-9.9l-.1-2.1zm7.4 1.9c0 2.8.3 4.7.9 5.8.6 1.1 1.6 1.7 3 1.7 1.5 0 2.6-.6 3.3-1.9v-13c-.7-1.4-1.8-2.1-3.3-2.1-1.4 0-2.3.5-3 1.6-.6 1.1-.9 3-.9 5.8v2.1z"/>
</svg>