<svg xmlns="http://www.w3.org/2000/svg" xml:space="preserve" id="Layer_1" x="0" y="0" version="1.1" viewBox="0 0 96 96">
  <style>
    .st2{fill:url(#SVGID_00000170264168922685254830000007695754676687094461_)}
  </style>
  <linearGradient id="SVGID_1_" x1="49.2986" x2="49.2986" y1="15.9181" y2="83.1639" gradientTransform="matrix(1 0 0 -1 0 98)" gradientUnits="userSpaceOnUse">
    <stop offset="0" stop-color="#570732"/>
    <stop offset=".02" stop-color="#5d0936"/>
    <stop offset=".16" stop-color="#771549"/>
    <stop offset=".3" stop-color="#8b1d58"/>
    <stop offset=".47" stop-color="#992362"/>
    <stop offset=".67" stop-color="#a12768"/>
    <stop offset="1" stop-color="#a4286a"/>
  </linearGradient>
  <path fill="url(#SVGID_1_)" d="M88.5 82.1H24.1c-7.7 0-14-6.3-14-14V28.8c0-7.7 6.3-14 14-14h50.3c7.7 0 14 6.3 14 14v53.3z"/>
  <path fill="#a4286a" d="m69.8 19.7-8.4 1.8-14 31.6-9-28.3H24.9l15 38.6c1.3 3.3 1.3 6.9 0 10.2-1.3 3.3 8.6-16.1 4.7-14.5 0 0 6.7 18.7 7 18.1 1.5-3 2.7-6.1 3.9-9.3l20.1-54.1c0 .1-5.6 5.9-5.8 5.9z"/>
  <linearGradient id="SVGID_00000046310251543496369400000005012507530884851376_" x1="52.4649" x2="52.4649" y1="99.2517" y2="25.5126" gradientTransform="matrix(1 0 0 -1 0 98)" gradientUnits="userSpaceOnUse">
    <stop offset="0" stop-color="#77b227"/>
    <stop offset=".47" stop-color="#75b027"/>
    <stop offset=".64" stop-color="#6eab27"/>
    <stop offset=".75" stop-color="#63a027"/>
    <stop offset=".85" stop-color="#529228"/>
    <stop offset=".93" stop-color="#3c8028"/>
    <stop offset="1" stop-color="#246b29"/>
  </linearGradient>
  <path fill="url(#SVGID_00000046310251543496369400000005012507530884851376_)" d="M65.9 1.3 47.1 53.6l-9-28.3H24.6l15 38.6c1.3 3.3 1.3 6.9 0 10.2-1.7 4.3-4.5 8-11.3 8.9v11.5c13.3 0 20.4-8.2 26.9-26L80.3 1.3H65.9z"/>
  <path fill="#fff" d="M28.4 95.7h-1.2V82.1l1-.1c6.7-.9 9-4.6 10.4-8.2 1.2-3 1.2-6.4 0-9.4L22.9 24.2h16L47.2 50 65.2.1H82L56.3 68.9c-3.4 9.6-7 16-11.1 20.1-4.5 4.6-9.9 6.7-16.8 6.7zm1.1-11.6v9.3c5.7-.2 10.2-2.1 14-5.9 3.9-3.9 7.3-10.1 10.6-19.3L78.6 2.4H66.8L47 57.3l-9.8-30.8H26.3l14.4 37c1.4 3.6 1.4 7.5 0 11.1-1.4 3.8-4 8.2-11.2 9.5z"/>
</svg>