<svg xmlns="http://www.w3.org/2000/svg" viewBox="0 0 66 66"><defs><style>.cls-1{fill:none;stroke:#393a3d;stroke-miterlimit:10;}.cls-2{fill:#393a3d;}</style></defs><g id="Layer_2" data-name="Layer 2"><g id="Layer_1-2" data-name="Layer 1"><path class="cls-1" d="M44,.5V7.85H56c1.9,0,2.77,1,2.73,2.85v7.65c0,.26-.05,3.45,0,3.7h6.8V.5Z"/><path class="cls-1" d="M53.23,30.74H42.4A3.56,3.56,0,0,1,39,27.09l.12-11.28h-7V37.5H53.23Z"/><path class="cls-1" d="M58.63,54.93a3.45,3.45,0,0,1-3.51,3.37l-12-.16V65.5H65.5V42.79H58.7Z"/><path class="cls-2" d="M22.11,57.65H10.76a2.51,2.51,0,0,1-2.45-2.5c0-2,0-4,.06-5.91s.05-3.7.05-5.5V41.94H0V66H25.8V57.89l-.36-.11A27,27,0,0,0,22.11,57.65ZM24.8,65H1V42.94H7.42v.79c0,1.79,0,3.62,0,5.49s-.06,3.91-.06,5.92a3.51,3.51,0,0,0,3.44,3.5H22.09c.55,0,2,0,2.71.07Z"/><path class="cls-2" d="M8.38,11.06a2.56,2.56,0,0,1,2.21-2.71H25.77V0H0V23.08H8.38Zm-1,0v11H1V1H24.77V7.35H10.53A3.57,3.57,0,0,0,7.38,11.09Z"/><path class="cls-2" d="M22.8,38V30.24H12.2V38Zm-9.6-6.72h8.6V37H13.2Z"/></g></g></svg>