<?xml version="1.0" encoding="utf-8"?>
<!-- Generator: Adobe Illustrator 25.4.2, SVG Export Plug-In . SVG Version: 6.00 Build 0)  -->
<svg version="1.1" id="Layer_1" xmlns="http://www.w3.org/2000/svg" xmlns:xlink="http://www.w3.org/1999/xlink" x="0px" y="0px"
	 viewBox="0 0 65.5 66" style="enable-background:new 0 0 65.5 66;" xml:space="preserve">
<style type="text/css">
	.st0{fill:#A3A7AF;}
	.st1{fill:#4E5360;}
</style>
<g id="Layer_2_00000008832336083674404780000012521455176588683175_">
	<g id="Layer_1-2">
		<g id="Layer_2-2">
			<g id="Layer_1-2-2">
				<path class="st0" d="M65.5,0H44v7.5h12c1.9,0,2.8,1,2.7,2.9v7.8c0,0.3,0,3.5,0,3.8h6.8"/>
				<path class="st0" d="M36.5,37.6h16.7v-6.9H42.4C40.5,30.6,38.9,29,39,27l0.1-11.5h-7v22H36.5z"/>
				<path class="st0" d="M58.7,42.9l-0.1,12.3c0,1.9-1.6,3.5-3.5,3.4l-12-0.2V66h22.4V42.9H58.7z"/>
			</g>
		</g>
		<path class="st1" d="M25.8,66H0V41.9h8.4v1.8c0,1.8,0,3.6-0.1,5.5s-0.1,3.9-0.1,5.9c0,1.4,1.1,2.5,2.4,2.5h11.4
			c1.1,0,2.2,0,3.3,0.1l0.4,0.1L25.8,66z M1,65h23.8v-6.3c-0.7,0-2.2-0.1-2.7-0.1H10.8c-1.9,0-3.4-1.6-3.4-3.5c0-2,0-4,0.1-5.9
			s0-3.7,0-5.5V43H1V65z"/>
		<path class="st1" d="M8.4,23.1H0V0h25.8v8.4H10.6c-1.3,0.2-2.3,1.4-2.2,2.7V23.1z M1,22.1h6.4v-11c-0.1-1.9,1.3-3.5,3.2-3.7h14.2
			V1H1V22.1z"/>
		<path class="st1" d="M22.8,38H12.2v-7.8h10.6V38z M13.2,37h8.6v-5.8h-8.6L13.2,37z"/>
	</g>
</g>
</svg>
