<svg xmlns="http://www.w3.org/2000/svg" viewBox="0 0 65.02 65"><defs><style>.cls-1{fill:#9885bd;}.cls-2{fill:#adb9de;}</style></defs><g id="Layer_2" data-name="Layer 2"><g id="Layer_1-2" data-name="Layer 1"><path class="cls-1" d="M65,0H43.47V7.35c.62,0,1.17,0,1.41,0H55.47c1.9,0,2.77,1,2.73,2.85v7.65c0,.26-.05,3.45,0,3.7H65"/><path class="cls-1" d="M36,37H52.73V30.24H41.9a3.56,3.56,0,0,1-3.37-3.65l.12-11.28h-7V37H36Z"/><path class="cls-1" d="M58.2,42.29l-.07,12.14a3.46,3.46,0,0,1-3.51,3.37l-12-.16V65H65V61.11c0-5.39,0-13.17,0-18.82Z"/><path class="cls-2" d="M0,65c6,0,12.61,0,18.55,0h6.25V57.76c-.24-.07-3.49-.11-3.74-.12H10.26a3,3,0,0,1-2.95-3c0-3.94.11-7.75.11-11.41V41.94H0"/><path class="cls-2" d="M18.58,0H0V5c0,5.64,0,11.09,0,17.08H7.38V22c0-3.66,0-7.47,0-11.41a3.07,3.07,0,0,1,2.71-3.24h9.32c.31,0,4.48,0,5.36,0V0"/><rect class="cls-2" x="12.2" y="30.24" width="9.6" height="6.72"/></g></g></svg>