<?xml version="1.0" encoding="utf-8"?>
<!-- Generator: Adobe Illustrator 25.4.2, SVG Export Plug-In . SVG Version: 6.00 Build 0)  -->
<svg version="1.1" id="Layer_1" xmlns="http://www.w3.org/2000/svg" xmlns:xlink="http://www.w3.org/1999/xlink" x="0px" y="0px"
	 viewBox="0 0 65 65" style="enable-background:new 0 0 65 65;" xml:space="preserve">
<style type="text/css">
	.st0{fill:#74767A;}
	.st1{fill:#383A3D;}
</style>
<g id="Layer_2_00000070823909943392687720000000844675487172587910_">
	<g id="Layer_1-2">
		<g id="Group_3">
			<path id="Path_16" class="st0" d="M64.6,21.1V3.9c0-1.9-1.5-3.3-3.4-3.4c-5.6,0-11.1-0.1-16.8-0.3c-1.9,0-3.4,1.5-3.5,3.4l0,0
				c0,1.8,1.5,3.3,3.3,3.3c0,0,0,0,0.1,0l10.1,0.2c1.9,0,3.4,1.6,3.4,3.5l0,0L57.6,21c0,1.8,1.4,3.4,3.3,3.4H61h0.1
				c1.8,0.1,3.4-1.2,3.5-3C64.6,21.3,64.6,21.2,64.6,21.1L64.6,21.1z"/>
		</g>
		<g id="Group_3-2">
			<path id="Path_16-2" class="st0" d="M31.6,16.2v17.2c0,1.9,1.5,3.4,3.4,3.4c5.6,0,11.1,0.1,16.8,0.3c1.9,0,3.4-1.5,3.5-3.4l0,0
				c0-1.8-1.4-3.4-3.3-3.4c0,0,0,0-0.1,0l-10.1-0.1c-1.9,0-3.4-1.6-3.4-3.5l0.1-13.1c0-1.8-1.4-3.4-3.3-3.4h-0.1h-0.2
				c-1.9,0-3.4,1.5-3.5,3.4L31.6,16.2z"/>
		</g>
		<g id="Group_3-3">
			<path id="Path_16-3" class="st0" d="M44.2,64.3h17.1c1.9,0,3.3-1.5,3.4-3.4c0-5.6,0.1-13.9,0.3-19.7c0-1.9-1.5-3.4-3.4-3.5l0,0
				c-1.8,0-3.3,1.5-3.4,3.3v0.1l-0.1,13c0,1.9-1.6,3.4-3.5,3.4l-17.3-0.1c-1.8,0-3.3,1.5-3.3,3.3l0,0l0,0v0.1c0,1.9,1.5,3.4,3.4,3.5
				H44.2z"/>
		</g>
		<path id="Path_17" class="st1" d="M0.4,43c-0.1,6.3-0.1,12.7-0.3,18.6c0,1.7,1.3,3,3,3.1l0,0C9,64.9,15,64.9,20.9,65
			c1.7,0,3-1.3,3.1-3l0,0v-1.4c0-1.6-1.3-3-2.9-3H10.2c-1.6,0-3-1.4-2.9-3l0,0c0-3.9,0.1-7.7,0.1-11.4c0-1.7-1.3-3-3-3.1h-1
			C2,40,0.6,41,0.4,42.5C0.4,42.7,0.4,42.9,0.4,43z"/>
		<path id="Path_17-2" class="st1" d="M3.4,24.8h1c1.7,0,3-1.3,3-3v-0.1c0-3.7-0.1-7.5-0.1-11.4l0,0c0-1.6,1.2-2.9,2.8-2.9h0.1h10.7
			c1.6,0,2.9-1.4,2.9-3V3l0,0c0-1.7-1.3-3-3-3h-0.1C14.9,0.1,8.8,0.1,3,0.3l0,0c-1.7,0-3,1.3-3,3v0.1C0.1,9.3,0.1,15.8,0.3,22
			C0.4,23.6,1.8,24.8,3.4,24.8z"/>
		<path class="st1" d="M12.9,29.7h8.7c1.3-0.1,2.5,0.8,2.7,2.1v2.9C24.1,36,23,37,21.8,36.9L13.1,37c-1.3,0.1-2.5-0.8-2.7-2.1v-3.1
			C10.2,30.7,11.4,29.7,12.9,29.7z"/>
	</g>
</g>
</svg>
