<svg xmlns="http://www.w3.org/2000/svg" viewBox="0 0 64.97 65"><defs><style>.cls-1{fill:#9885bd;}.cls-2{fill:#adb9de;}</style></defs><g id="Layer_2" data-name="Layer 2"><g id="Layer_1-2" data-name="Layer 1"><path class="cls-1" d="M44.22,7l10.1.15a3.45,3.45,0,0,1,3.37,3.51h0L57.55,21a3.16,3.16,0,0,0,.08.76h6.86c0-.12.06-.25.07-.38a1.93,1.93,0,0,1,0-.24V3.94a2,2,0,0,1,0-.24L61.43.59l-.23,0C55.59.56,50.11.42,44.36.28a3.26,3.26,0,0,0-.9.14v6.5a3.08,3.08,0,0,0,.68.08Z"/><path class="cls-1" d="M52.71,36.87V30.33a3.5,3.5,0,0,0-.65-.08H52l-10.11-.14a3.44,3.44,0,0,1-3.37-3.52l.12-11.28H31.58v18A3.42,3.42,0,0,0,35,36.72c5.62,0,11.09.14,16.85.28A3.16,3.16,0,0,0,52.71,36.87Z"/><path class="cls-1" d="M65,41.94H58.24l-.13,12.14a3.46,3.46,0,0,1-3.51,3.37l-17-.14v7H61.43l3.28-3.56C64.71,55.33,64.84,47.6,65,41.94Z"/><path class="cls-2" d="M10.24,57.64a3,3,0,0,1-2.95-3c0-3.94.14-7.74.14-11.4a3,3,0,0,0-.3-1.3H.56a2.64,2.64,0,0,0-.14.57,2.44,2.44,0,0,0,0,.54C.27,49.38.27,55.71.13,61.62a1,1,0,0,0,0,.24L3,64.71h.08C9,64.86,15,64.86,20.91,65a3.17,3.17,0,0,0,.87-.14v-7.1a2.93,2.93,0,0,0-.73-.12Z"/><path class="cls-2" d="M20.76,0C15.07.14,9.25.14,3.6.27L0,4.19C.12,9.8.13,15.87.26,21.76h7.1v-.09c0-3.66-.14-7.46-.14-11.4A2.87,2.87,0,0,1,10,7.32H20.91a2.79,2.79,0,0,0,.87-.16v-7A3.13,3.13,0,0,0,20.85,0Z"/><path class="cls-2" d="M12.9,29.69a3.22,3.22,0,0,0-.72.09v7.13A2.45,2.45,0,0,0,13,37l8.71-.14h0V29.7H12.9Z"/></g></g></svg>