<svg xmlns="http://www.w3.org/2000/svg" viewBox="0 0 67.04 67.04"><defs><style>.cls-1{fill:#9885bd;}</style></defs><g id="Layer_2" data-name="Layer 2"><g id="Layer_1-2" data-name="Layer 1"><path class="cls-1" d="M0,0V67H67V0ZM44.22,5.06c5,.12,9.8.24,14.7.24a3,3,0,0,1,2.94,3v15a2.84,2.84,0,0,1-3.06,2.83h-.12a2.9,2.9,0,0,1-2.94-2.95l.12-9a3,3,0,0,0-2.94-3.07L44.1,11a2.91,2.91,0,0,1-3-2.95A3.1,3.1,0,0,1,44.22,5.06Zm-36.16,0c5.15-.13,10.42-.13,15.56-.25a2.62,2.62,0,0,1,2.7,2.58V8.62a2.59,2.59,0,0,1-2.57,2.58H14.31a2.51,2.51,0,0,0-2.57,2.58c0,3.44.12,6.75.12,9.94a2.62,2.62,0,0,1-2.57,2.71H8.43A2.68,2.68,0,0,1,5.74,24c-.13-5.4-.13-11-.25-16.21A2.61,2.61,0,0,1,8.06,5.06ZM26.44,59a2.69,2.69,0,0,1-2.69,2.58c-5.15-.12-10.42-.12-15.56-.24A2.71,2.71,0,0,1,5.61,58.6c.13-5.15.13-10.68.25-16.21a2.38,2.38,0,0,1,2.69-2.45h.86A2.69,2.69,0,0,1,12,42.64c0,3.19-.12,6.51-.12,10a2.59,2.59,0,0,0,2.58,2.58h9.43a2.58,2.58,0,0,1,2.57,2.57Zm.25-23.82A2.07,2.07,0,0,1,24.48,37l-7.59.12a2.19,2.19,0,0,1-2.33-1.84v-2.7c-.12-1,.86-1.85,2.2-1.85h7.6a2.19,2.19,0,0,1,2.33,1.85Zm6.38-1.23V16.6a3.09,3.09,0,0,1,3.06-3h.12a2.9,2.9,0,0,1,2.94,3L39.07,28A3,3,0,0,0,42,31.09l8.83.13a2.91,2.91,0,0,1,2.94,2.94,3.1,3.1,0,0,1-3.07,3c-5-.12-9.8-.24-14.7-.24A3,3,0,0,1,33.07,33.92ZM62,58a3,3,0,0,1-3,2.95H38.09a3.1,3.1,0,0,1-2.94-3.07v-.13a2.9,2.9,0,0,1,2.94-2.94l15.07.12a3,3,0,0,0,3.07-3l.12-11.3a2.9,2.9,0,0,1,2.94-2.94,3.08,3.08,0,0,1,2.94,3.07C62.11,45.83,62,53.08,62,58Z"/></g></g></svg>