<svg xmlns="http://www.w3.org/2000/svg" viewBox="0 0 65 65"><defs><style>.cls-1{fill:#fff;}</style></defs><g id="Layer_2" data-name="Layer 2"><g id="Layer_1-2" data-name="Layer 1"><g id="Group_3" data-name="Group 3"><path id="Path_16" data-name="Path 16" class="cls-1" d="M64.58,21.1V3.94A3.43,3.43,0,0,0,61.21.56C55.6.56,50.12.42,44.37.28a3.54,3.54,0,0,0-3.51,3.38h0A3.32,3.32,0,0,0,44.23,7l10.1.15a3.44,3.44,0,0,1,3.37,3.51L57.56,21a3.33,3.33,0,0,0,3.37,3.38h.14a3.26,3.26,0,0,0,3.51-3.24Z"/></g><g id="Group_3-2" data-name="Group 3"><path id="Path_16-2" data-name="Path 16" class="cls-1" d="M31.59,16.18V33.34A3.43,3.43,0,0,0,35,36.72c5.62,0,11.09.14,16.85.28a3.53,3.53,0,0,0,3.5-3.37h0A3.33,3.33,0,0,0,52,30.25l-10.11-.14a3.45,3.45,0,0,1-3.37-3.52l.14-13.08a3.33,3.33,0,0,0-3.37-3.38H35.1a3.55,3.55,0,0,0-3.51,3.38Z"/></g><g id="Group_3-3" data-name="Group 3"><path id="Path_16-3" data-name="Path 16" class="cls-1" d="M44.23,64.3H61.35a3.42,3.42,0,0,0,3.37-3.38c0-5.63.14-13.93.28-19.7a3.53,3.53,0,0,0-3.37-3.51h0a3.33,3.33,0,0,0-3.37,3.37l-.14,13a3.45,3.45,0,0,1-3.51,3.37l-17.26-.14A3.33,3.33,0,0,0,34,60.64h0v.14a3.54,3.54,0,0,0,3.37,3.52Z"/></g><path id="Path_17" data-name="Path 17" class="cls-1" d="M.42,43.05C.28,49.38.28,55.71.14,61.62a3.09,3.09,0,0,0,2.95,3.1h0C9,64.86,15,64.86,20.92,65a3.09,3.09,0,0,0,3.08-3h0V60.64a3,3,0,0,0-2.94-3H10.25a3,3,0,0,1-2.95-3h0c0-3.94.14-7.74.14-11.4a3.08,3.08,0,0,0-2.95-3.09h-1A2.73,2.73,0,0,0,.42,43.05Z"/><path id="Path_17-2" data-name="Path 17" class="cls-1" d="M3.37,24.76h1a3,3,0,0,0,3-3.09c0-3.66-.14-7.46-.14-11.4h0a2.88,2.88,0,0,1,2.95-2.95H20.92a3,3,0,0,0,2.94-3V3h0A3,3,0,0,0,20.77,0C14.88.14,8.84.14,3,.28H3A3,3,0,0,0,0,3.38C.14,9.29.14,15.76.28,22A3.07,3.07,0,0,0,3.37,24.76Z"/><path class="cls-1" d="M12.91,29.69h8.71a2.51,2.51,0,0,1,2.66,2.11v2.95a2.36,2.36,0,0,1-2.52,2.11L13.05,37a2.51,2.51,0,0,1-2.66-2.11V31.8C10.25,30.67,11.37,29.69,12.91,29.69Z"/></g></g></svg>