<svg xmlns="http://www.w3.org/2000/svg" viewBox="0 0 65.5 65.58"><g id="Layer_2" data-name="Layer 2"><g id="Layer_1-2" data-name="Layer 1"><g id="Layer_2-2" data-name="Layer 2"><g id="Layer_1-2-2" data-name="Layer 1-2"><path d="M53.23,37.58H31.15V14.89h8L39,26.67a3.05,3.05,0,0,0,2.9,3.15h11.3Zm-21.08-1H52.23V30.82H41.9A4,4,0,0,1,38,26.66l.11-10.77h-6Z"/><path d="M65.5,65.58H42.12V57.21l12.51.17a3,3,0,0,0,3-2.88l.07-12.63h7.8Zm-22.38-1H64.5V42.87H58.7l-.07,11.64a4,4,0,0,1-4,3.87h-.06l-11.49-.15Z"/><path d="M65.5,23.71H57.7l-.07-12.64a3,3,0,0,0-3-2.87h0l-12.51.17V0H65.5Zm-6.8-1h5.8V1H43.12V7.35L54.61,7.2h.06a4,4,0,0,1,4,3.86Z"/><path d="M0,65.08H24.8V57.84c-.24-.07-3.49-.11-3.74-.12H10.26a3,3,0,0,1-2.95-3c0-3.94.11-7.75.11-11.41V42H0"/><path d="M18.58.08H0V22.16H7.38V10.67a3.07,3.07,0,0,1,2.71-3.24H24.77V.08"/><rect x="12.2" y="30.32" width="9.6" height="6.72"/></g></g></g></g></svg>