<svg xmlns="http://www.w3.org/2000/svg" viewBox="0 0 65.5 66"><defs><style>.cls-1{fill:#9885bd;}.cls-2{fill:#adb9de;}</style></defs><g id="Layer_2" data-name="Layer 2"><g id="Layer_1-2" data-name="Layer 1"><g id="Layer_2-2" data-name="Layer 2"><g id="Layer_1-2-2" data-name="Layer 1-2"><path class="cls-1" d="M65.5.5H44V7.85H56c1.9,0,2.77,1,2.73,2.85v7.65c0,.26-.05,3.45,0,3.7h6.8"/><path class="cls-1" d="M36.5,37.5H53.23V30.74H42.4A3.56,3.56,0,0,1,39,27.09l.12-11.28h-7V37.5Z"/><path class="cls-1" d="M58.7,42.79l-.07,12.14a3.45,3.45,0,0,1-3.51,3.37l-12-.16V65.5H65.5V42.79Z"/></g></g><path class="cls-2" d="M25.8,66H0V41.94H8.42v1.79c0,1.8,0,3.63-.05,5.5s-.06,3.91-.06,5.91a2.51,2.51,0,0,0,2.45,2.5H22.11a27,27,0,0,1,3.33.13l.36.11ZM1,65H24.8V58.72c-.7,0-2.16-.06-2.71-.07H10.75a3.51,3.51,0,0,1-3.44-3.5c0-2,0-4,.06-5.92s0-3.7,0-5.49v-.79H1Z"/><path class="cls-2" d="M8.38,23.08H0V0H25.77V8.35H10.59a2.56,2.56,0,0,0-2.21,2.71ZM1,22.08H7.38v-11a3.57,3.57,0,0,1,3.15-3.74H24.77V1H1Z"/><path class="cls-2" d="M22.8,38H12.2V30.24H22.8Zm-9.6-1h8.6V31.24H13.2Z"/></g></g></svg>