<svg xmlns="http://www.w3.org/2000/svg" width="55.996" height="54.736" viewBox="0 0 55.996 54.736">
  <g id="Group_130" data-name="Group 130" transform="translate(-40.923 -61.248)">
    <g id="Layer_1-2" data-name="Layer 1-2">
      <g id="Group_16" data-name="Group 16">
        <path id="Path_13" data-name="Path 13" d="M41.39,95.34c1.082,0,2.148-.012,3.246-.037Z" fill="#dbb2ff"/>
        <path id="Path_15" data-name="Path 15" d="M79.929,90.959l6.061-5.246a3.015,3.015,0,0,0,.651-3.762l-.712-1.256a3.024,3.024,0,0,0-4.946-.459l-5.415,6.433a3.029,3.029,0,0,0,.119,4.017l.058.061a3.011,3.011,0,0,0,4.173.212Z" fill="#dbb2ff"/>
        <path id="Path_16" data-name="Path 16" d="M71.535,89.577l.088-.086c-.136-8.6-.258-17.126-.4-25.128a3,3,0,0,0-3-2.949h0a3.005,3.005,0,0,0-3.009,3v.046c.261,15.992.378,32.906.63,48.4a3,3,0,0,0,2.981,2.952l.142,0a2.994,2.994,0,0,0,3.021-2.968v-.08c-.079-4.341-.143-8.765-.216-13.211l-.028.026-.22-9.994Z" fill="#dbb2ff"/>
        <path id="Path_17" data-name="Path 17" d="M71.746,99.564l.028-.027-.156-10.051-.088.086" fill="#dbb2ff"/>
        <path id="Path_18" data-name="Path 18" d="M96.919,78.6q-.069-7.377-.159-14.336a2.845,2.845,0,0,0-2.85-2.816c-4.7.008-9.354.036-14.1,0a2.85,2.85,0,0,0-2.878,2.822v.024h0a2.843,2.843,0,0,0,2.837,2.848h0c2.773,0,5.534.008,8.477.018a2.862,2.862,0,0,1,2.85,2.86q-.018,4.461-.038,8.613A2.836,2.836,0,0,0,93.88,81.48H93.9l.164,0a2.844,2.844,0,0,0,2.853-2.837v-.041Z" fill="#dbb2ff"/>
        <path id="Path_19" data-name="Path 19" d="M41.4,97.825c.008,5.264,0,10.617-.021,15.622a2.5,2.5,0,0,0,2.488,2.516h.009c4.942.013,10,.012,15,.021a2.506,2.506,0,0,0,2.512-2.5v-.044c-.006-.4-.011-.807-.017-1.223a2.5,2.5,0,0,0-2.535-2.469h0c-2.98.037-6.058.072-9.131.112a2.511,2.511,0,0,1-2.54-2.482v-.025c-.006-3.269.012-6.481.02-9.537A2.5,2.5,0,0,0,44.693,95.3h-.044c-.26.007-.522.013-.777.014a2.509,2.509,0,0,0-2.462,2.508Z" fill="#dbb2ff"/>
        <path id="Path_20" data-name="Path 20" d="M58.511,90.9h0a3.288,3.288,0,0,0-2.464-3.944,3.25,3.25,0,0,0-.735-.084l-3.127,0a3.284,3.284,0,0,0-3.2,2.5h0a3.286,3.286,0,0,0,2.4,3.977,3.345,3.345,0,0,0,.784.1l3.126,0A3.287,3.287,0,0,0,58.511,90.9Z" fill="#dbb2ff"/>
        <path id="Path_21" data-name="Path 21" d="M81.549,100.091,80.56,99.1a2.469,2.469,0,0,0-4.03.806h0a2.472,2.472,0,0,0,.537,2.693l.476.492a1.008,1.008,0,0,1,.181.188l7.669,9.526a2.473,2.473,0,0,0,4.147-.459l.642-1.294a2.47,2.47,0,0,0-.474-2.846l-8.154-8.123Z" fill="#dbb2ff"/>
        <path id="Path_22" data-name="Path 22" d="M59.082,61.268c-5.264.009-10.617,0-15.622-.02a2.5,2.5,0,0,0-2.516,2.487v.009c-.013,4.942-.012,10-.021,15a2.506,2.506,0,0,0,2.5,2.512h.044l1.223-.017a2.5,2.5,0,0,0,2.469-2.535h0c-.036-2.981-.072-6.059-.112-9.132a2.512,2.512,0,0,1,2.482-2.54h.025c3.269,0,6.481.012,9.537.02a2.5,2.5,0,0,0,2.514-2.489v-.043h0c-.007-.261-.013-.522-.014-.778a2.508,2.508,0,0,0-2.508-2.462Z" fill="#dbb2ff"/>
      </g>
    </g>
  </g>
</svg>
