<svg xmlns="http://www.w3.org/2000/svg" id="Layer_2" viewBox="0 0 161.37 161.37"><defs/><g id="Layer_1-2"><circle cx="80.68" cy="80.68" r="80.68" fill="#74e1c1"/><g id="_6o6HOK"><path d="M46.65 56.53c.42 0 .84.02 1.26.02 3.06 0 6.11 0 9.17-.01.18 0 .35 0 .46.17 0 .05 0 .1.02.15.51 1.41 1.03 2.82 1.54 4.23 1.1 3.06 2.19 6.12 3.3 9.18.28.77.5 1.57.88 2.31.26.96.65 1.89.97 2.83.84 2.42 1.7 4.83 2.57 7.24.87 2.42 1.76 4.84 2.63 7.26.77 2.14 1.53 4.29 2.28 6.44.68 1.93 1.35 3.86 2.03 5.79.03.1.07.18.16.23-.05.15.02.3.07.43.34.79.54 1.63.9 2.41.14.31.09.38-.27.39h-3.3c-2.16 0-4.32 0-6.48-.01-1.06 0-1.08-.01-1.42-.97-.5-1.4-1.02-2.79-1.51-4.19-.2-.56-.45-1.12-.56-1.71-.04-.23-.16-.28-.38-.28-6.21 0-12.42.01-18.64.02-.7 0-.71 0-.96.65-.23.59-.44 1.19-.66 1.79-.08.16-.19.32-.17.52l-.06.21c-.25.24-.25.59-.36.89-.03.12-.06.24-.09.35-.07.04-.11.09-.07.17-.05.16-.11.32-.16.49-.19.42-.41.82-.46 1.29-.01.03-.03.07-.04.1-.2.68-.2.67-.9.67-2.58 0-5.16.02-7.74.01-.78 0-1.56-.04-2.33-.06-.43-.01-.48-.07-.33-.48.6-1.68 1.21-3.36 1.81-5.04 1.22-3.41 2.43-6.82 3.64-10.24 1.02-2.87 2.03-5.73 3.06-8.6 1.23-3.44 2.48-6.88 3.72-10.32 1.13-3.14 2.24-6.29 3.36-9.43.55-1.54 1.1-3.08 1.64-4.62.06-.18.16-.26.34-.26.36 0 .72 0 1.07-.01Zm3.41 18.14c-.03.1-.05.2-.08.3-.05.06-.1.13-.07.22 0 .02-.01.05-.02.07-.35.69-.56 1.42-.78 2.15l-.75 2c-.08.11-.14.23-.1.37-.05.14-.1.28-.14.42-.28.46-.43.97-.53 1.5-.05.14-.09.28-.14.42-.06.04-.1.09-.06.17-.21.54-.45 1.07-.61 1.62-.11.37-.38.7-.36 1.11-.29.43-.43.91-.52 1.42-.32.46-.28 1.06-.57 1.54-.08.13.06.2.18.2 1.21.05 2.41.03 3.62-.03.12.1.26.06.39.06h4.08c.93 0 1.85-.02 2.78-.03.32 0 .64.01.96.02.13 0 .22-.01.15-.19-.17-.48-.32-.97-.49-1.46-.58-1.63-1.17-3.25-1.75-4.87-1.06-2.96-2.12-5.91-3.19-8.87-.21-.58-.42-1.16-.65-1.79l-.68 1.79c-.22.62-.44 1.23-.66 1.85Zm48.92-14.56c.16.16.34.29.55.37.7.52 1.41 1.04 2.11 1.56.07.07.13.15.2.21.71.59 1.39 1.21 2.01 1.9 1.03 1.15 1.96 2.37 2.82 3.65.16.24.19.41-.02.67-.28.34-.67.58-.84 1.01-.15.16-.31.32-.46.48l-3.34 3.34c-.21.11-.42.22-.59.41-.6.59-1.21 1.16-1.79 1.76-.28.29-.26.31-.45-.04-.5-.92-.91-1.89-1.53-2.74-2.2-3.01-5.08-4.98-8.77-5.69-.16-.17-.35-.18-.56-.13-1.24-.17-2.48-.14-3.72-.07-.81 0-1.58.14-2.32.46-.92.27-1.82.56-2.67 1.02-2.39 1.28-4.31 3.04-5.7 5.36-.05.04-.11.06-.14.11-.42.69-.81 1.4-1 2.19-.06.13-.15.26-.19.39-.28 1.02-.59 2.02-.68 3.08-.16 2-.08 3.96.56 5.88.39 1.15.84 2.26 1.54 3.26.05.1.09.2.15.29.93 1.33 1.96 2.56 3.29 3.52.82.59 1.61 1.22 2.58 1.56 1.38.71 2.86 1.1 4.39 1.29 2.12.26 4.18.02 6.2-.66 1.94-.65 3.63-1.7 5.14-3.05 1.44-1.28 2.48-2.86 3.28-4.6q.31-.66.83-.14c.57.56 1.14 1.12 1.7 1.68.81.81 1.63 1.62 2.43 2.44.89.91 1.84 1.76 2.67 2.72.18.21.19.38.04.62-.23.36-.5.7-.63 1.11-.82 1.16-1.73 2.25-2.72 3.26-.21.08-.36.24-.48.43l-.28.28c-.2.1-.38.23-.5.43-1.03.52-1.86 1.32-2.82 1.94-1.77 1.13-3.66 2-5.64 2.67-1.01.34-2.06.55-3.1.79-.14-.04-.28-.04-.39.07-.07 0-.13.01-.2.02-.21-.04-.4 0-.59.09-1.29.13-2.57.25-3.87.22-.52-.01-1.03-.12-1.54-.08-.04-.05-.09-.06-.15-.04-.07 0-.15-.01-.22-.02-.16-.09-.34-.08-.52-.06-1.05-.19-2.12-.3-3.14-.59-1.16-.34-2.33-.66-3.44-1.17-.05-.02-.12-.03-.17-.05-.18-.25-.46-.33-.74-.4-.32-.17-.63-.33-.95-.5-.43-1.01-.76-2.06-1.14-3.09-.26-.72-.55-1.43-.74-2.18-.18-.69-.55-1.33-.74-2.03-.09-.31-.26-.58-.34-.88-.1-.39-.24-.77-.39-1.13-.39-.93-.66-1.91-1.05-2.84-.11-.27-.29-.54-.31-.81-.05-.77-.46-1.43-.7-2.12-.25-.7-.4-1.45-.77-2.12-.31-.56-.36-1.23-.64-1.81-.17-.35-.34-.71-.32-1.12 0-.06-.04-.15-.09-.2-.19-.18-.17-.42-.2-.65-.04-.38.13-.82-.26-1.13-.06-.05-.03-.21-.04-.32-.01-.1.01-.26-.03-.28-.33-.19-.24-.5-.27-.78 0-.06-.02-.15-.06-.17-.28-.11-.22-.35-.23-.57 0-.1 0-.25-.06-.28-.36-.17-.12-.69-.5-.84.09-.5-.3-.76-.53-1.11-.44-.68-.64-1.48-.91-2.24-.12-.33-.36-.65-.35-1.03.01-.41-.35-.68-.4-1.07 0-.02-.06-.03-.1-.04.22-.65.46-1.28.79-1.9 1.53-2.86 3.44-5.41 5.94-7.52 1.94-1.64 4.06-2.96 6.37-3.98 1.72-.76 3.53-1.26 5.38-1.58 1.06-.18 2.13-.22 3.2-.28 1.22-.08 2.42-.02 3.62.09 1.2.11 2.37.39 3.54.68 1.27.32 2.49.76 3.69 1.27.88.37 1.7.84 2.55 1.27.03.02.06.04.09.05.12.08.24.15.37.23Z" class="cls-1"/><path d="M102.54 56.59h29.2c.62 0 1.23.02 1.85 0 .29 0 .39.07.39.37 0 1.75.04 3.49.05 5.24v4.39l-.21.21h-21.96c-.19 0-.44-.09-.57 0-.15.11 0 .36 0 .55-.01 3.18 0 6.36-.01 9.54 0 .24-.11.56 0 .71.13.16.45-.02.7.03.17.03.34.02.51.03.32.03.63.04.95-.04h.16c.24.06.48.07.72 0h.16c.04.04.09.04.13 0h.16c.14.06.28.06.43 0h.16c.83.09 1.66.05 2.49.02h.2c.23.04.46.04.69 0h.5c.65 0 1.3.02 1.95.02.48 0 .96.05 1.43-.04h.15c.15.07.32.04.47.04 3.27 0 6.54.01 9.81.02.17.22.01.48.08.71-.04.06-.04.13 0 .19 0 2.26 0 4.51.01 6.77 0 .7-.01 1.41 0 2.11 0 .32-.12.41-.44.41h-21.12c-.27 0-.3.1-.3.33v16.98c0 .28-.07.4-.38.4-3.01-.04-6.03.05-9.04-.03-.78-.02-.77-.02-.83-.8-.06-.83.04-1.66.04-2.49.1-.02.22 0 .28-.06.36-.34.66-.71 1.17-.93.37-.15.64-.6.96-.92.44-.44.88-.88 1.3-1.34.3-.33.79-.52.81-1.07 0-.03.03-.06.06-.09.42-.44.91-.8 1.2-1.37.19-.36.54-.64.54-1.09 0-.35.03-.74-.18-1.01-.44-.58-.9-1.15-1.44-1.66-1.43-1.34-2.79-2.76-4.18-4.15-.14-.14-.26-.3-.44-.39-.13-.57-.16-1.15-.15-1.72.02-3.52-.08-7.03.08-10.55.08-.01.21 0 .25-.05.29-.36.65-.65.97-.98l1.35-1.35c.44-.44.88-.88 1.33-1.32.44-.44.86-.9 1.32-1.33.44-.41.92-.78.78-1.49-.02-.1.03-.22.05-.33.02-.16.02-.32-.06-.47a9.77 9.77 0 0 0-1.2-1.85c-.19-.22-.45-.41-.54-.7-.15-.47-.54-.78-.82-1.15-.3-.4-.69-.76-1.03-1.15-.66-.73-1.39-1.36-2.25-1.83-.17-.62-.17-1.26-.2-1.9-.04-.98-.04-1.97-.01-2.96 0-.37.14-.52.5-.49.17.01.34-.01.52-.02h.06Z" class="cls-1"/><path d="M63.44 71.79s.1.02.1.04c.05.39.42.66.4 1.07-.01.38.23.69.35 1.03.27.76.47 1.56.91 2.24.23.35.62.62.53 1.11.37.15.14.66.5.84.05.02.05.18.06.28.02.21-.04.45.23.57.04.02.05.11.06.17.03.28-.06.59.27.78.05.03.02.19.03.28.01.11-.02.27.04.32.4.31.22.75.26 1.13.02.23 0 .47.2.65.05.05.09.13.09.2-.03.41.14.77.32 1.12.28.58.34 1.25.64 1.81.37.67.52 1.42.77 2.12.24.69.65 1.35.7 2.12.02.27.2.54.31.81.39.93.66 1.91 1.05 2.84.15.36.29.74.39 1.13.08.3.25.57.34.88.19.69.56 1.33.74 2.03.19.75.48 1.47.74 2.18.38 1.03.71 2.08 1.14 3.09-.27.02-.43-.26-.69-.26-.1-.05-.13-.14-.16-.23-.67-1.93-1.35-3.86-2.03-5.79-.76-2.15-1.51-4.3-2.28-6.44-.87-2.42-1.76-4.84-2.63-7.26-.87-2.41-1.73-4.82-2.57-7.24-.33-.94-.71-1.86-.97-2.83.14-.25-.05-.56.17-.79Zm38.18 16.42c.18.09.31.25.44.39 1.39 1.39 2.75 2.81 4.18 4.15.55.51 1 1.08 1.44 1.66.21.27.18.66.18 1.01 0 .45-.36.73-.54 1.09-.29.57-.78.93-1.2 1.37-.02.03-.06.06-.06.09-.02.54-.51.74-.81 1.07-.42.46-.86.9-1.3 1.34-.32.32-.6.77-.96.92-.51.21-.81.58-1.17.93-.06.06-.19.04-.28.06.08-.46-.09-.98.33-1.35.7-.62 1.4-1.24 2.11-1.85.44-.38.8-.83 1.15-1.28.19-.24.38-.46.61-.65.31-.25.32-.68.61-.93.27-.23.29-.61.5-.88.08-.1.12-.23 0-.33-.12-.09-.23-.04-.34.04-.13.11-.22.27-.42.28.13-.41.41-.75.63-1.11.15-.24.15-.41-.04-.62-.83-.96-1.78-1.81-2.67-2.72-.8-.82-1.62-1.63-2.43-2.44.02-.07.03-.15.05-.22Zm.06-26.26c.86.47 1.6 1.1 2.25 1.83.35.38.73.75 1.03 1.15.28.37.67.68.82 1.15.09.28.35.47.54.7.48.57.87 1.19 1.2 1.85.08.15.08.31.06.47-.01.11-.07.22-.05.33.14.71-.34 1.08-.78 1.49-.46.42-.88.89-1.32 1.33-.44.44-.88.88-1.33 1.32l-1.35 1.35c-.32.33-.68.62-.97.98-.04.05-.16.03-.25.05-.02-.56-.07-1.11.42-1.56.41-.38.81-.78 1.18-1.2.69-.77 1.49-1.42 2.21-2.16.49-.5 1.03-.96 1.37-1.58.07-.12.19-.27.04-.4-.16-.13-.31 0-.42.11-.16.15-.35.22-.53.32.16-.43.56-.68.84-1.01.22-.26.18-.43.02-.67-.86-1.28-1.78-2.5-2.82-3.65-.62-.69-1.3-1.31-2.01-1.9-.07-.06-.14-.14-.2-.21.01-.03.02-.06.04-.09Zm31.84 15.77c-3.27 0-6.54-.01-9.81-.02-.16 0-.32.03-.47-.04.16 0 .32-.02.48-.02h9.23c.19 0 .4-.06.57.08Zm-10.44-.07c-.47.09-.95.04-1.43.04-.65 0-1.3 0-1.95-.02.5-.1 1-.03 1.5-.04.63 0 1.25 0 1.88.02Zm-4.77.03c-.83.03-1.66.07-2.49-.02.83-.02 1.66-.06 2.49.02Zm-78.96 27.11c.05-.47.27-.87.46-1.29-.05.47-.2.9-.46 1.29Zm.78-2.3c.1-.3.1-.65.36-.89-.1.3-.1.65-.36.89Zm35.43.63c.28.07.56.15.74.4-.27-.1-.56-.14-.74-.4Z" class="cls-2"/><path d="M102.1 99.73c.12-.2.3-.33.5-.43-.04.3-.26.37-.5.43Zm29.8-43.13h-1.24c.42-.09.83-.09 1.24 0Zm-29.02 42.42c.12-.19.26-.35.48-.43-.08.23-.22.4-.48.43Zm-13.52 6.29c.19-.09.38-.13.59-.09-.19.09-.37.21-.59.09Zm-6.31.02c.18-.02.35-.03.52.06-.18.08-.36.13-.52-.06Zm-42.5-3.94c-.02-.2.09-.36.17-.52.07.22-.06.36-.17.52Zm73.34-23.74c-.31.07-.63.07-.95.04.31-.09.63-.05.95-.04Zm5.31.02c-.23.04-.46.04-.69 0 .23-.06.46-.06.69 0Zm-29.05 27.54c.11-.11.25-.11.39-.07-.11.14-.25.09-.39.07Zm24.62-27.56c-.24.07-.48.06-.72 0h.72Zm19.51-10.83.21-.21c-.02.12.01.3-.21.21Zm-18.62 10.83c-.14.06-.29.06-.43 0h.43Zm-75.69 25.37c-.04-.08 0-.13.07-.17 0 .07-.02.13-.07.17Zm43.82 2.39c.06-.02.11-.01.15.04-.07.07-.12.05-.15-.04Zm49.8-26.79a.165.165 0 0 1 0-.19v.19Zm-14.09-.95h-.1c.03-.03.07-.03.1 0Zm-4.43-.02s-.09.04-.13 0h.13Zm8.31-21.05h-.14c.05-.04.09-.05.14 0Zm.29.01h-.14c.05-.04.09-.04.14 0Zm-10.15-.01h-.06.07Zm13.93 0h-.06.06Zm-1.18 0h-.06.06Zm.29 0h-.06.06Zm.3 0h-.06.06Zm-13.94 0h-.06.07Zm-.59 0h-.06.06Zm13.35 0h-.06.07Zm2.37 0h-.06.07Zm.29 0h-.06.07Zm.3 0h-.06.07Zm.3 0h-.06.07Zm.29 0h-.06.07Zm.3 0h-.06.07Zm.3 0h-.06.07Zm.29 0h-.06.07Zm.3 0h-.06.07Zm-5.04.01h-.06.07Zm6.82-.01h-.06.07Zm-7.12.01h-.06.07Zm-.29 0h-.06.07Zm-.3 0h-.06.07Zm-12.46-.01h-.06.06Zm-.29 0h-.06.06Zm12.16.01h-.06.07Zm-15.13-.01h-.06.06Zm14.24 0h-.06.07Zm11.04 10.23h.08-.08ZM108.48 56.6h-.06.06Zm-.3 0h-.06.06Zm-.3 0h-.06.06Zm-.89 0h-.06.06Zm15.72 0h-.06.06Zm-16.01 0h-.06.06Zm-.3 0h-.06.06Zm16.01 0h-.06.06Zm-16.31 0h-.06.07Zm-.29 0h-.06.07Zm16.31 0h-.06.06Zm-.3 0h-.06.06Zm-.3 0h-.06.06Zm-.29 0h-.06.07Zm-.3 0h-.06.07Zm-.3 0h-.06.07Zm-.29 0h-.06.07Zm-.3 0h-.06.07Zm-14.82 0h-.06.07Zm-.89 0h-.06.07Zm-.3 0h-.06.06Zm15.72 0h-.06.07Zm-.3.01h-.06.07Zm-.3 0h-.06.07Zm-.29 0h-.06.07Zm-.3 0h-.06.07Zm-14.83-.01h-.06.06Zm-.3 0h-.06c.02-.02.04-.02.06 0Zm-.29-.01h-.06c.02-.02.04-.02.06 0Zm15.12.02h-.06.07Zm-.29-.01h-.06.07Zm-.3 0h-.06.07Zm-.3 0h-.06.07Zm-.29 0h-.06.07Zm-.3 0h-.06.07Zm-.3 0h-.06.06Zm-.29 0h-.06.06Zm-.3 0h-.06.06Zm-.3 0h-.06.07Zm-.29 0h-.06.07Zm-.3 0h-.06.06Zm-.3 0h-.06.06Zm-11.86-.01h-.06c.02-.02.04-.02.06 0Zm-.3 0h-.06c.02-.02.04-.02.06 0Zm11.87.01h-.06.06Zm-.3 0h-.06.06Zm-.3 0h-.06.06Zm13.94 0h-.06.06Zm-.59 0h-.06.06Zm-1.19 0h-.06.07Z" class="cls-2"/><path d="M63.44 71.79c-.21.23-.02.55-.17.79-.38-.74-.6-1.54-.88-2.31-1.11-3.06-2.2-6.12-3.3-9.18-.51-1.41-1.03-2.82-1.54-4.23-.02-.05-.01-.1-.02-.15.21 0 .25.17.31.32.09.26.22.49.48.63.58.34.78.93 1.03 1.51.2.47.28.99.54 1.44.24.41.23.92.42 1.37.4.97.72 1.98 1.13 2.94.18.42.23.88.38 1.31.23.66.51 1.3.73 1.97.23.67.43 1.35.74 1.99.06.12.03.29.04.44 0 .08-.02.19.08.22.13.04.15-.09.2-.17.58-1.05 1.11-2.12 1.74-3.13.78-1.26 1.74-2.38 2.74-3.47.73-.79 1.51-1.52 2.31-2.22 1.19-1.05 2.52-1.92 3.93-2.65 1.12-.58 2.26-1.11 3.44-1.54.96-.35 1.95-.61 2.94-.84a22.5 22.5 0 0 1 2.69-.44c1.18-.13 2.38-.23 3.58-.09.55.06 1.11 0 1.66.08 1.21.18 2.41.36 3.6.66.78.2 1.55.4 2.3.68.96.36 1.91.73 2.81 1.23.28.16.57.29.87.41.19.08.4.15.42.42l-.02.02c-.03 0-.06 0-.09.01-.84-.43-1.67-.9-2.55-1.27-1.2-.5-2.42-.95-3.69-1.27-1.17-.29-2.34-.57-3.54-.68-1.2-.11-2.4-.17-3.62-.09-1.07.07-2.14.1-3.2.28-1.86.32-3.66.82-5.38 1.58a25.998 25.998 0 0 0-6.37 3.98c-2.5 2.11-4.41 4.66-5.94 7.52-.33.61-.56 1.25-.79 1.9Zm35.54-11.68c-.12-.08-.24-.15-.37-.23v-.06l.02-.02c.18.03.37.05.35.31ZM56.37 88.19c.1-.36.4-.19.59-.18.33.03.33-.1.24-.34-.44-1.25-.94-2.48-1.37-3.73-.44-1.28-.9-2.54-1.38-3.81-.57-1.5-1.07-3.03-1.6-4.55-.17-.5-.34-1-.52-1.49-.03-.07-.04-.19-.15-.19-.1 0-.15.09-.18.17-.22.71-.61 1.34-.81 2.07-.26.94-.59 1.87-.96 2.78-.31.76-.58 1.54-.81 2.33-.16.53-.46 1.01-.59 1.55-.05.2-.11.4-.11.61 0 .08 0 .18-.05.25-.56.95-.81 2.02-1.19 3.04-.09.25-.18.51-.29.75-.15.32-.09.47.26.5.42.03.84.01 1.26.02.16 0 .33-.02.42.16-1.21.06-2.41.08-3.62.03-.12 0-.26-.07-.18-.2.29-.48.25-1.08.57-1.54.24-.45.4-.92.52-1.42-.02-.41.25-.74.36-1.11.16-.55.4-1.08.61-1.62.06-.04.08-.1.06-.17.05-.14.09-.28.13-.42.28-.46.42-.98.53-1.5.05-.14.1-.28.14-.42.11-.1.18-.22.1-.37.25-.67.5-1.33.75-2 .04-.03.1-.05.11-.08.23-.69.55-1.35.67-2.07 0-.02.01-.05.02-.07.12-.04.15-.11.07-.22.03-.1.05-.2.08-.3.42-.51.55-1.14.71-1.75 0-.03-.03-.06-.05-.09l.68-1.79c.23.63.44 1.21.65 1.79 1.06 2.96 2.12 5.91 3.19 8.87.58 1.62 1.17 3.25 1.75 4.87.17.48.32.97.49 1.46.06.18-.02.19-.15.19-.32 0-.64-.01-.96-.02Z" class="cls-3"/><path d="M49.9 75.26c-.12.72-.44 1.38-.67 2.07-.01.04-.08.05-.11.08.22-.73.43-1.47.78-2.15Zm.83-2.43s.06.07.05.09c-.17.61-.3 1.24-.71 1.75.22-.62.44-1.23.66-1.85Zm-2.61 7.38c-.12.52-.25 1.04-.53 1.5.11-.53.25-1.04.53-1.5Zm-1.7 4.82c-.11.49-.28.97-.52 1.42.09-.5.23-.99.52-1.42Zm1.95-5.62c.07.15 0 .27-.1.37-.04-.14.02-.26.1-.37Zm1.62-4.44c.08.11.05.18-.07.22-.03-.09.02-.15.07-.22Zm-2.54 7.16c.01.07 0 .13-.06.17-.03-.08 0-.13.06-.17Z" class="cls-2"/><path d="M80.02 93.91c.26-.14.49 0 .7.09 1.61.64 3.27 1 5.02 1.05 2.36.07 4.55-.49 6.65-1.48.42-.2.8-.49 1.21-.7.64-.34 1.11-.89 1.69-1.29.67-.46 1.18-1.11 1.68-1.75.8-1.03 1.49-2.13 2.04-3.32.19-.42.44-.44.8-.12.35.32.72.64 1.08.96.16.14.21.13.28-.1.15-.5.11-1.02.12-1.53.03-2.96.01-5.92.01-8.88 0-.55 0-.55-.55-.53-.2 0-.39 0-.59.02-.1 0-.18 0-.19-.12-.03-.32-.29-.33-.5-.31-.3.03-.45-.11-.54-.34-.17-.46-.39-.9-.64-1.33-.45-.77-.89-1.53-1.56-2.16-.35-.33-.83-.52-1.09-.89-.44-.62-1.07-.99-1.67-1.35-.72-.44-1.47-.89-2.35-1.03-.36-.06-.71-.2-1.05-.33-1.09-.4-2.23-.4-3.34-.49-1-.08-2.03.07-3.04.28-1.45.3-2.82.82-4.1 1.55-1.54.87-2.92 1.94-4.02 3.37-.49.64-1.02 1.28-1.38 1.98-.42.84-.87 1.69-1.13 2.61-.28.99-.56 1.98-.62 3-.06 1.23-.22 2.48.14 3.71.04.15.04.32.03.48-.01.29.03.56.19.82.07.12.12.25.11.39-.05.5.16.93.43 1.31.25.35.29.69.16 1.08-.7-1-1.15-2.11-1.54-3.26-.64-1.92-.72-3.88-.56-5.88.08-1.07.4-2.07.68-3.08.04-.14.13-.26.19-.39.21-.17.28-.43.37-.66.23-.56.61-1.05.77-1.65 1.39-2.32 3.31-4.08 5.7-5.36.85-.46 1.75-.75 2.67-1.02.62-.01 1.21-.2 1.81-.32.17-.03.38.05.51-.14 1.24-.07 2.48-.1 3.72.07.17.1.36.15.56.13 3.7.71 6.57 2.68 8.77 5.69.62.85 1.03 1.82 1.53 2.74.19.35.17.33.45.04.58-.6 1.19-1.18 1.79-1.76.36.18.49.08.59-.41l3.34-3.34c.16-.16.31-.32.46-.48.18-.1.38-.17.53-.32.11-.11.26-.24.42-.11.16.13.03.28-.04.4-.35.62-.89 1.07-1.37 1.58-.72.74-1.52 1.39-2.21 2.16-.37.42-.77.82-1.18 1.2-.49.45-.44 1-.42 1.56-.16 3.51-.06 7.03-.08 10.55 0 .57.02 1.16.15 1.72-.02.07-.03.15-.05.22-.57-.56-1.14-1.12-1.7-1.68q-.53-.52-.83.14c-.81 1.74-1.84 3.32-3.28 4.6-1.51 1.35-3.2 2.4-5.14 3.05-2.02.68-4.08.92-6.2.66-1.53-.19-3.01-.58-4.39-1.29Z" class="cls-3"/><path d="M73.92 73.63c-.16.59-.55 1.08-.77 1.65-.09.23-.16.49-.37.66.2-.79.58-1.5 1-2.19.03-.05.09-.07.14-.11Zm10.69-6.84c-.13.19-.34.11-.51.14-.6.12-1.19.3-1.81.32.74-.32 1.52-.46 2.32-.46Zm17.41 6.5c-.09.49-.23.58-.59.41.16-.18.37-.3.59-.41Zm-13.13-6.31a.85.85 0 0 1-.56-.13c.21-.05.4-.04.56.13Zm9.72-7.16v.06a.405.405 0 0 0-.09-.05c.03 0 .06 0 .09-.01Z" class="cls-2"/></g></g></svg>