<svg xmlns="http://www.w3.org/2000/svg" xml:space="preserve" id="Layer_1" x="0" y="0" version="1.1" viewBox="0 0 96 96">
  <style>
    .st1{fill:#88ce02}.st2{fill:#efefef}.st5{fill-opacity:0}.st6{opacity:.4;enable-background:new}
  </style>
  <path fill="#262626" d="M.1.1h96.1v96.2H.1z"/>
  <path d="M17.8 44.7c-2.5 1.2-9 6.4-10.2 7.9-1.3 1.5-1.7-.9-.3-4.9 1.1-3.2 3.8-7.6 8.3-11.4 2.7-2.2 8.5-5.3 12.1-7.1.7-.4 10.1-4.3 18.4-6.3.7-.2-.9 1.2-1.1 2-1.3 3.7-26.3 19.4-26.3 19.4l-.9.4zM53 88.9c.4 2.6 0 2.8-2.7 3.1-2.7.3-4.7-.7-5.4-1.4-.7-.7-.9-2.2-.1-3.5.4-.9.9-1.2 1.1-2.2.2-1 .4-1.3.6-1.6.2-.3.2-.7.3-3 0-2.4 0-6.8.2-8.7.2-1.9 8.6.9 8.6.9s-2 4.9-2.5 6.1c-.5 1.2-.5 3.5-.5 4s-.2 1.4-.3 1.5c-.1 0 .5 1.3.2 2-.2.7.5 2.4.5 2.8zm3.2-73.7c-.3-1.8 0-5.5.4-6 1.2-1.6 7.6-1.8 8.9.1.6.9.5 2.9.4 4.2-.1 1.3-.4 4.1-.5 5 0 .7-7 1.7-8.6-.1-.4-.5-.6-3.2-.6-3.2zm14.2 69c2.9 2.1 5.2 2.5 6.7 3.3 1.5.8 1.1 2.3-1.4 2.7-2 .4-5.2-.4-7.3-.4s-6.8.2-8.1-.6c-1.4-1-.8-2.9-.8-2.9.4-1.1 1.4-3.4 1.1-5.4-.3-1.9-.7-3-1.4-4.8-.7-1.8-1.3-6.2-.6-6.4.7-.2.5 0 1.4.2.9.2 1.8.5 3.7.5s4-.3 4.7-.4c.7-.1 1.3-.3 1.1 1.2-.2 1.5-1 4.3-1 6.5s0 4.7.1 5.1c-.1.4 1 .9 1.8 1.4z"/>
  <path d="M60.1 20c-5.3 4.6-15.6 5.8-30.8 11.7-3.9 1.5-14.3 6-16.8 10.7 8.4-4.9 11.6 1.8 12.3 8.7.6 6.5 3.9 9.8 12.2 9.6 8.5-.2 11.1 4.8 13.5 10.6C54.9 49 62.2 44.7 67 40.9c10-8.2-2.4-22.6-6.9-20.9z" class="st1"/>
  <path d="M60.1 20C47.4 24.4 34.8 25.5 20 34.7c-3.6 2.1-11 7-12.5 16.4 5.4-6 17.9-13.5 33.2-18.3 7.7-2.4 13.4-4 20.2-6.7-.5-3-.5-4.2-.8-6.1z" class="st1"/>
  <path d="M76.3 46.4s-.9 3.1-2.7 4.1c0 0-1.4.5-4.1-1-.8-.4-1.4-1.9-1.3-2.4 0-1.2.8-1.7.8-1.7s.8-1.3 1.7-1.3c.9 0 2.5.2 2.9-.2.4-.4 2.8.9 2.7 2.5zM56.6 16.1s-.2 2.5-.5 4c0 .3-1.5.4-2.6.9 2 5.8 14.2 5.7 15.8 2.9-.8-.5-2.3-1.4-3-1.6-.7-.3-.7-.2-.7-1.6 0-1.4-.1-3.9-.2-4.5-.1-.8-7.6-.8-8.8-.1z"/>
  <path d="M57.1 16.1s0 1.4-.1 2.7c0 .6-.1 1-.2 1.5 0 .3 1.6 1.4 2.1 4 2.3 5.2 7.7 2.6 9.9.1-.8-.5-2-1.3-3.5-1.8-.7-.3-.4-.9-.4-2.3s-.2-3.3-.3-4.1c-.2-.6-6.3-.8-7.5-.1z" class="st2"/>
  <path d="M56.6 16.1s0 .9-.2 1.9c.6.6 1.4 1.5 2.1 2 .4.4 1.5.3 2.5.3.9 0 1.6.1 2-.1.8-.4 1.9-1.4 2.5-2.1 0-.9-.1-1.7-.1-2.1-.1-.6-7.6-.6-8.8.1z"/>
  <path d="M61 19.7c-.6 0-1.3 0-1.8-.1-.2 0-.5-.2-.7-.3-.3-.2-.7-.5-1.1-.8-.8-.6-.8-.9-.8-1.1.3-3-.1-5.6-.1-5.6s-.3-1.3 1.5-1.6 3-.4 3-.4 1.2 0 2.9.4c1.8.3 1.5 1.6 1.5 1.6s-.4 2.6-.1 5.6c0 .1 0 .5-.8 1.1-.7.5-1.2 1-1.7 1.1-.5.1-1.2.1-1.8.1z"/>
  <path d="M61 8.5c-3.2 0-3.8.9-4.7 1.8-.2.2 0 1.7.3 4.8h.4s-.3-.9-.2-1.9.2-1 .1-1.2c-.2-.3-.6-.8.3-1.3.9-.5 2.2.4 3.9.4 1.6 0 3-.9 3.9-.4.9.5.5 1 .3 1.3-.2.3 0 .2.1 1.2 0 1-.2 1.9-.2 1.9h.4c.3-3.1.5-4.4.3-4.7-.9-1-1.7-1.8-4.9-1.9zm15.3 38.1s-.9 2.9-2.7 4c-.4-.2-.3-.5-.7-.9-.1-.1-.4-.2-.6-.4-.1-.1-.1-.4-.3-.6-.2-.2-.3 0-.5-.2s-.2-.4-.4-.6c-.1-.1-.5-.1-.6-.2-.2-.2-2.4-.7-2.3-1.2.2-.7.6-1.3.6-1.3s.9-1.4 1.8-1.3c.9 0 1.8.2 2.3-.2.6-.5 3.6 1.3 3.4 2.9z"/>
  <path d="M70 25.2s3-.7 5.1 1.3c2.1 2 1.9 4.5 1.3 6.1.5.6 1.5 2.4.8 4.4 3.2 2.7 1.8 6.8-1.1 9.6 0 0-.7-2.5-3.4-2.7.1-1-2.5-1.7-1.3-4.2-1.8-.4-1.8-1.7-2.1-3.2-.1-1.6.7-11.3.7-11.3z"/>
  <path d="M68.9 26.6s3.5-1.8 5.6.2c2.1 2 1.5 4.2.9 5.8.5.6 1.8 2.4 1 4.5-.1.5-1.2.5-2 1.7 1.9-1.1 3.1-.8 3.6.6.7 2.2-.8 4.8-2.1 6.2v-.1c-.2.7-.4 2.1-1.9 3.7-.7.8-1.3.7-2.1.5-1-.2-1.3-.7-2.7-1.4-.8-.4-.3-1-.3-1.4 0-.1.1-.2.2-.4s.4-.6.8-1.1c0 0 .6-.9 1.5-.8.9 0 1.9-.1 2.1-.4 0-1.7-1.9-1.7-1.3-4.6 0-.1.3-.4 1.1-.5-1.2-.2-1.7-.3-2.5-1.1-.6-.5-1-1.2-1.2-2.1-.2-1.5-.7-9.3-.7-9.3z" class="st2"/>
  <path d="M58.8 23.5c-.3-.4-1.8-2.3-4.6-3.1-.8-.2-1.4.4-2.2.9-.2-.1-1.3-.6-1.9-.3-.6.3-1 .7-1.5.9-.3-.1-1.1-.1-1.7.1-.6.2-1.6.6-2.5 1.9-.6 2.1 10.2.5 10.2.5l4.2-.9z"/>
  <path d="M58.8 23.5c-1.5-.5-1.3-2.3-4.7-2.6-.7 0-1.1.5-1.6.8.2.2.5.6.6 1-.4-.5-1.2-1.1-2-1.3-.7-.1-1.2.4-2 .8.1.1.3.4.5.7-.7-.4-1.2-.6-2.1-.2-.6.2-1.8.7-2.7 2-.6 2.1 9.7-.2 9.7-.2l4.3-1z" class="st1"/>
  <path d="M67.9 24.3v-1c0-.1-.4-.3-.4-.4l-.1-.1s.8-.4 1.4-.2c.6.2 1 1 1 1 1.1-.4 1.2 0 1.7.6 1.2-.2 1.3.2 2 1.3 0 0-.9-.1-2.6.1-1.6.3-3-1.3-3-1.3z"/>
  <path d="M67.7 24.1s.3-.2.2-.3c.5-.3 1.3-.6 1.6.3 1.1-.4 1.3.1 1.8.7 1.4-.6 1.4.1 1.5.5-.4 0-1.1 0-1.9.1-1.6.3-3.2-1.4-3.2-1.3z" class="st1"/>
  <path d="M51.3 22.9s2.7 1 5.1.8c2.3-.2 6.3-.4 8.4.9 0 0 2.2-.8 4.2-.2 2 .5 5.7 4 4.6 7.7-.1.2-.7.6-1.4.9 0 0 .4 1.6-.3 3-.7 1.3-2.2 3.8-2.2 7.3 0 .6-.1 1.8-.2 2.4-3.8-.1-9.6-1.5-15.2-1.4 0-.6.1-1 .1-1.6h.1c-.3-1.6-.4-2.4-.7-3.6-1.8-1.2-3.8-2.5-5.4-5.1-1.6-2.8 2.9-11.1 2.9-11.1zm18.6 26s3 10.7-.5 15.2c0 0 .5 2.1-.7 4.3-.2 1-.4 1.8-.6 2.8-.6 4-1.7 5.7-2 12.1h-2.9s-.3-4.6-1.4-7.1c-.6-1.4-2.8-3.3-2.7-5.2.1-1.4.4-2.7 2.8-4.6.2-2.8-2.6-5.5-2.2-15.9l10.2-1.6z"/>
  <path d="M69.1 48.5c.8 4.9 2.6 12.2-.7 15.8.1.7.2 1.6 0 2.7-.1.6-.3 1.2-.5 1.9-.5 1.2-.7 2.8-.8 3.9-.6 4-.6 4.2-.9 10.6h-2.9s-.3-4.6-1.4-7.1c-.6-1.4-1.8-2.6-1.9-4.5-.1-1.4.9-4.3 3.3-4.2-.1-5.8-2.8-4.7-3.6-16.8l9.4-2.3zM51.3 22.9s1.1.3 2.2.4c1.2.1 2.4 0 3.5 0 2.3-.2 5.6-.4 7.8.8 0 0 1.2-.4 2.5-.3.6 0 1.2.5 1.8.7 2.1.5 4.1 4.1 3.2 7.2-.1.2-.8 0-1.5.2.1.7.2 2.2-.5 3.9-.8 1.6-1.9 3.8-1.7 7.8-5.1-.2-7.3-.6-12.3-.8-.4-1.8-.7-3.6-.8-4.5.7-.3 1.1-.6 1.6-1.2-1.4.2-2 .1-2.9-.3-.9-.5-2.4-2-3.2-3-.1-.1-.6 1.5-1.8 1.5-.4-.6 1.4-2.4 1.1-3.1-1.2-2.4 1-9.3 1-9.3z" class="st2"/>
  <path d="M69.5 44.5s.1 1.7.1 2.2c0 .5.4 1.9.4 2.6-.5.9-2.8 3-7 3.8-4.1.9-9.6-5.6-9.6-5.6.1-.6.6-2.5 1-3.4 0-.1.1-.3.1-.4.3-.8 15 .8 15 .8z"/>
  <path d="M68.4 44.6c0 1.2.2 2.1.3 2.8.2 1.4.6 2.3.6 3.2 0 2.8-3.7 2.3-6.8 2.4-4.1.9-7.7-5.6-7.7-5.6.3-1.1.5-2.4.9-3.4 0-.6.1-1.3.2-1.6 5.9 0 10 .3 12.4.6.3.5.2 1.4.1 1.6z" class="st2"/>
  <path d="M63.8 50.8s-2.6-5.7-10.2-4c-1.8 5.2-4.3 11.1-2.7 17.5-1.6 2.2-3.4 3.4-3.4 7.4s.2 4.7.2 4.7l5.6.3s1.8-2.4 2.6-4.9c.2-.7.4-2 .2-3.5.2-.3 1-1 1.1-2.3 0 0 2.7-1.4 4.3-5 1.5-3.2 1.1-5.9 2.3-10.2z"/>
  <path d="M63.8 50.8c-.1-.5-2.1-5.7-9.2-4.2-4.2 11.2-2.7 15.8-2 17.8-2.8 3.6-4.1 4.4-3.6 11.7h3.8c1.7-2.7 2.1-3.8 2.2-7.4 0-.1-.5.3-.9.8.3-1.5 1.1-1.8 1.7-2.7.3-.4.5-1 .5-1.7 3.4-2.3 4.6-5.1 5.4-8.1.5-1.9 1.2-5.2 2.1-6.2z" class="st2"/>
  <path d="M51.9 43.1s1.3 0 2.5.4c1.1.4 1.1.6 1.5 1.1.4.5 1.5 1.2 1.3 1.9-.1.4-.3.5-.7.8-.1.1-1.2 1.3-1.4 1.4-.1.1-.3.2-.5.3-.1.1-.6.4-.7.5-.5.4-.9.5-1.4.5 0 0-1.2 0-2-.9 0 0-.1-.4.1-.6 0 0-1-.9-1.3-1.4-.3-.6-.3-1.4-.1-1.8.1-.5 2-1.7 2.7-2.2zM53.1 90l-.1 1.2s-.4.5-3.7.5c-3.3 0-4.1-1.1-4.4-1.6l-.2-1.3s.6-.9.8-.9c1.1.1 4.7 1.5 7.2 1.9.1.1.2.2.4.2zm7-2.4v1.1c.6.4 2 .7 4.8.6 4-.1 7.7 1.2 12.3.4v-.9h-.4l-16.1-1.3-.6.1z"/>
  <path d="M63.6 89.2h1.2c2.6-.1 5.1.5 7.7.6 1.4 0 3.1-.4 3-1.4l-13.7-1.2c-.8 1-.2 1.8 1.8 2zM47.9 68.9c.4.3 3.4 2 8.2 1.8-.1.9 0 2.7-2.2 5.8-1.1 1.5-2 4.2-2.2 7.7 0 .8.5 1.4-.1 2.5.2.6 1 1.9 1.4 2.7.4.8.6 1.6-2 1.7-2.6 0-6.8-.2-6.2-2.3.3-1.1 1.1-2.2 1.2-2.6.1-.4.1-1.7.9-2.6.7-2.4.5-4.7.3-6.9-.3-2.3-.3-5.9.7-7.8zm4.4-39.3c3.4-4.6.5-8.2-5-7.1-2.2.4-4.4 2-4.6 4.8-.7.1-2.4.2-3.2 3.2-.6 2.3-1 2.7-2.1 3.9-.7.8 0 2.5.6 3.7 1.8 4.1 7.3 4.5 11 7.7 1.3-.3 2.6-1.7 2.9-2.7-3.1-3.7-2.5-5.2-3.7-7.1 1.5-.5 4.6-2.4 4.1-6.4z"/>
  <path d="M51.7 29.3c.2-.3.5-.9.7-1.2 0 0 .6.9.6.8 1.3-2.1 1.6-5.2.1-5.5-.3 0-1-.2-1.5-.4-1-.3-1.8-.3-3.4 0-2.1.5-4.2 2-4.2 4.2 0 .1 1.5.6 1.9 2.4-.7-1-2-2.1-3.5-1.2-1.6 1-.8 3.3-2.9 5.7-.7.8-.6 1.8.1 3.7 1.3 3 7.2 4.7 10.4 7.6.8-.3 1.3-1.1 1.7-1.7-2.2-2.3-3-4.4-3.7-5.9-.8-1.8-1.6-2.8-3.3-4.1.9.3 1.5.7 1.9 1 .4.3 1.1.3 1.6.1 2.3-.7 3.4-3.6 3.5-5.5z" class="st2"/>
  <path d="M72.6 30.1c-.1 1.8-1.5.9-2.2.6-1.4-.6-2.9-1.1-4.6-1.1s-3.9.1-5.7.6c-2.6.7-3.4.7-4.5.1-1.2-.6-3.2-2.2-3.2-2.2s0 .5.4 1.1c.6.8 2 1.7 3.9 2.4.9.3 1.6.1 2.5-.1 4.3-1.1 8.8-1.3 12.6 1.1.2.1.9-.2 1.2-.6.4-.6-.4-1.9-.4-1.9z"/>
  <path fill="#001423" d="M50.7 48.5c.4.2.9.4 1.4.8 0 0-.4 0-.6-.2-.3-.1-.8-.6-.8-.6z"/>
  <path d="M64.6 10.2C64.5 9.8 63.4 9 61 9c-2.7 0-3.4.8-3.5 1.3 0 .1-.2 1.7-.2 2.3v1.9c0 .8.2 1.2.3 2.2.1 1.1.4 1.7.9 2.6.2.1.4.3.7.3 1 .2 2.7.2 3.6 0 .5-.1 1.2-1.1 1.4-1.9.2-1 .4-1.7.4-2.4.1-.6.1-2 .2-2.4.1-.9-.1-2.6-.2-2.7z" class="st2"/>
  <path d="M59.6 69.9s2.6 1.1 8.9.1c0 0-1.8 9-1 13.5 0 0 .8 1.2 6.9 3.4 0 0 2.7.7 2.6 2 0 0 .1.3-3.2.2-3.3-.1-6.4-.7-8.5-.7s-4.5.1-4.9-.5c-.4-.6.1-2.1.7-2.9.7-.9.5-1.6.4-3.2-.1-4.4-3.4-8.9-1.9-11.9z"/>
  <path d="M59 70.7c-.3.5 0 2.3.5 4.1.5 1.8 1.5 2.8 1.8 5.8.2 2.9.3 3.3-.5 5-.8 1.7-1.1 3.2 1.8 3.3 2.8 0 4.4 0 7.3.4 2.9.4 3.9.6 5.5.3s1.9-.8 1.3-1.3c-.7-.5-3.5-1-4.7-2-1.2-.9-4.4-2.3-4.5-2.7-.1-1.3-.2-6 0-7.6.2-1.5.6-3.8.7-4.3.1-.6.6-1.2-.2-1-.8.2-3.9.6-6.2.5-2.4-.1-2.6-.7-2.8-.5z" class="st1"/>
  <path d="M60.7 85.6c.8.4 2 .7 2.9.7 0 0-.3 1.6.2 2.6s-3.9.4-3.9.4l-.2-3.4 1-.3zm12.8 4.1c.8-.2 1.3-1.1.7-1.9-.7-.8-1.3-1-.4-1s4.1 1.9 4.1 1.9l-1.6 1.5-2.8-.5zM58.9 72.6c1.1.4 2.8.5 4.2.4 1.4 0 3.6-.2 5-.7 1.4-.5.8.5.8.5l-.8.7s-1.8.7-4.8.7c-3.5 0-4.6-.4-4.6-.4l.2-1.2zM59 75c1.1.4 2.8.5 4.2.4 1.4 0 3.4 0 4.8-.6.6-.2.2.6.2.6l-.2.5s-1.9.7-4.8.6c-3.5 0-4.1-.3-4.1-.3L59 75z" opacity=".3"/>
  <path d="M59.6 69.9s4.2 1.5 8.9.5c0 0-1.8 8.6-1 13.1 0 0 .8 1.2 6.9 3.4 0 0 2.7.7 2.6 2 0 0 .1.3-3.2.2-3.3-.1-6.4-.7-8.5-.7s-4.5.1-4.9-.5c-.4-.6.1-2.1.7-2.9.7-.9.5-1.6.4-3.2-.1-4.4-3.4-8.9-1.9-11.9z" class="st5"/>
  <path d="M59.6 69.9s4.2 1.4 8.9.4c0 0-1.8 8.7-1 13.1 0 0 .8 1.2 6.9 3.4 0 0 2.7.7 2.6 2 0 0 .1.3-3.2.2-3.3-.1-6.4-1-8.5-.7-2.3.4-4.5.2-4.9-.5-.3-.6.1-2.1.7-2.9.7-.9.5-1.6.4-3.2-.1-4.3-3.4-8.8-1.9-11.8z" class="st5"/>
  <path d="M55.8 41.2c0 .3 3.8 2.2 5.8 2.6 2.1.4 6.4 0 7.1-.1l-.1.7s-5.2.8-9.1-.3c-4-1.1-3.5-1.3-3.5-1.3l-.2-1.6z"/>
  <path d="M47.8 82.3c.6.3 2.7.8 4 .5.2 0 0-3.3.5-4.8.8-2.1 2-3.8 2.6-7.4-2-.2-4.3-.7-5.5-1.1-1.6 4.7-1.1 8.7-1.6 12.8zm3.2 3c.3.1.6.5.7.2.2-.4-.3-1.3-.4-1.8-.4-.4-3.4-.4-3.2-.2-.3.6-.9.5-1.1 1.8-.1.6.7.1 1.4 0-1.3.9-2.8 2-3 2.9-.3 1.4.2 1.7 1.6 2.5 1.3.3 2.7.3 3.9.3 1.3-.2 1.5-.9 1.2-1.7-.6-1.4-1-3-1.1-4z" class="st2"/>
  <path d="M51.5 22.7c1.6.9 3.8.7 4.6.6.2 0 2.1-.3 2.2-.3.2 0 .2.2.2.2s-.7.4-2.4.5c-1.5.1-3.4 0-4.4-.5-1.1-.5-.2-.5-.2-.5zm16.4.9c.3.2 2.2.9 3 1.8.7.8.3.7.2.5-.2-.2-1.7-1.3-2.3-1.5s-1.3-.7-1.3-.8.4 0 .4 0z"/>
  <path d="M51.3 43.6c1.4-.1 2.8.2 3.8 1.2.5.5 1.3 1 1.2 1.5 0 .1-.3.5-.5.8-.1.2-.6.6-.7.8-.2.1-.9.7-1 .8-.1.1-.3.3-.5.4-.5.2-1 0-1.5-.2s.1-.3-.4-.7c-1.3-.9-2-1.5-1.5-3.3-.1-.4.4-.8 1.1-1.3z" class="st2"/>
  <path d="M39 32.6c-4.3 1.7-15.4 7.2-18.5 8.9 2.6 1.6 3.8 5.6 4.2 9.6 0 .4.1.7.1 1.1 0 .3.1.6.1.7v.2c2.8-7.8 13-16 13.4-16.6.2-.3-.2-1.5.4-2.7 1-1.6 2.7-2.2.3-1.2zM49.3 69c2.2-4.4 2.3-8.7 2.2-13.7 0-2.1 1.5-5 .7-4.2-2.9 3.2-10.2 9.3-15.4 9.6 7.4-.2 10.3 3.6 12.5 8.3z" class="st6"/>
  <path d="M16.2 45.6c2.7-2 17-9.5 20.4-10.6 3.4-1.1 2.4-2.4 2.4-2.4s-13.9 6-22.2 11.1"/>
  <path d="M56.7 31.7c-1.1-.4-2 .9-1.7 2.1.3 1.3 2.9 2.7 2.7 7.2-.1 3.8-.9 5.3-.9 5.3L55 44s-.3-5.2-.9-6c-.6-.8-2.6-2.2-3.4-2.9-.8-.7.9-1.7.8-3-.1-1.3.8-3.9.8-3.9l4.4 3.5zm6.7 20.5c-.1 3.6.7 9 1.1 11.5.3 2.6.8 2.7 0 3.9-.8 1.1-1.8 2.9-1.8 2.9l-3.3-.3s2.7-3.4 2.8-4c.1-.6-1.4-5.4-1.4-5.4l2.6-8.6zM57 18.4c.7 1.5 1.5 2.2 2.8 2.6.8.3 3.8.7 5-.7.6-.6.2-2.3.2-2.3l-2.7 2.2-3.7-.7-.4-1.1H57z" class="st6"/>
  <path fill="#88ce02" stroke="#000" stroke-linejoin="round" stroke-miterlimit="10" stroke-width=".3756" d="M57.3 21.8c1.3.8 4.4 1.6 5.3 1.7.9.2 2.3-.9 2.9-1.2.7-.3 2-.5 3.4.8.1.1-.3.8-.3.8s-.3 0-.7-.2c-.4-.2-.7-.3-1.3-.3-2.4.3-2.8 1.1-4.9.6-2.1-.5-2.7-.9-4.7-.8"/>
  <path d="M56.9 21.9c1.6.7 4.7 1.4 5.5 1.6.9.2 2.3-.7 2.9-1.1 1.2-.8 2.7-.1 3.5.7.5.5.7.9.7 1 0 .2-.6 0-.6 0-.3-.1-.7-.2-1-.4-.4-.2-.8-.5-1.4-.4-2.4.3-2.9 1.1-5 .6-2.1-.5-2.6-.9-4.8-.8" class="st1"/>
  <path d="M49.4 67c-.1-.1.1-.2 0-.2-.6 0-1.5-.5-2-1.2-2.1-3-5.1-5-10.6-4.8-8.2.2-11.5-3.2-12.2-9.6-.3-3.5-1.3-6.9-3.3-8.9l-1.1.7c2.2 1.9 2.9 5.1 3.4 9.4.8 6.5 6 9.5 12.1 9.6 6.3.1 8.6 1.4 10.9 4.6.8 1 1.6 1.4 2.3 1.5l.5-1.1z"/>
  <path d="M71.8 35.9c.1.7.5 2.1 1.3 2.8.3.3.4.4.1.4-.3 0-2.4-.1-2.4-.1l-.6-1 1.6-2.1z" class="st6"/>
</svg>