<svg xmlns="http://www.w3.org/2000/svg" xmlns:xlink="http://www.w3.org/1999/xlink" width="36" height="36" viewBox="0 0 36 36"><defs><clipPath id="a"><rect width="36" height="36" transform="translate(0 0.004)" fill="none"/></clipPath></defs><g transform="translate(-629 -1990)"><g transform="translate(629 1989.996)"><rect width="36" height="36" transform="translate(0 0.004)" fill="#f7df1e"/><g clip-path="url(#a)"><path d="M32.873,42.948c.692,1.124,1.444,2.2,3.037,2.2,1.338,0,2.04-.665,2.04-1.585,0-1.1-.726-1.492-2.2-2.133l-.807-.344c-2.329-.988-3.878-2.226-3.878-4.842,0-2.41,1.845-4.244,4.729-4.244a4.777,4.777,0,0,1,4.592,2.573l-2.514,1.607A2.2,2.2,0,0,0,35.795,34.8a1.4,1.4,0,0,0-1.545,1.377c0,.964.6,1.354,1.985,1.951l.807.344c2.745,1.169,4.293,2.363,4.293,5.048,0,2.892-2.284,4.477-5.351,4.477a5.9,5.9,0,0,1-5.651-3.368Zm-11.587.082a2.731,2.731,0,0,0,2.381,1.6c1.058,0,1.667-.418,1.667-2.043V32h3.333V43.1c0,3.367-1.953,4.9-4.806,4.9a5.849,5.849,0,0,1-5.2-3.368Z" transform="translate(-9.332 -15.998)" fill="#000001"/></g></g></g></svg>