<svg xmlns="http://www.w3.org/2000/svg" xml:space="preserve" viewBox="0 0 96 96">
  <path fill="#dcd5f2" d="M47.9 95.6C21.5 95.6 0 74.2 0 47.9S21.5.1 47.9.1s47.9 21.4 47.9 47.7-21.6 47.8-47.9 47.8z"/>
  <path fill="none" stroke="#8b75a1" stroke-miterlimit="10" stroke-width=".9985" d="M48 .8c26 0 47.2 21.1 47.2 47.1S74 94.9 48 94.9.8 73.8.8 47.9 22 .8 48 .8"/>
  <path fill="#36404d" stroke="#404956" stroke-miterlimit="10" d="M30.1 37.8c2.1 0 3.8.7 4.9 2 .9 1.1 1.2 2.6.8 4.3-1 4.5-2.9 5.6-9.9 5.6H21l2.1-11.9h7m0-2.4H21l-4.2 23.9h2.4l1.3-7.2h5.4c7 0 10.8-1.1 12.2-7.5 1.3-5.5-2.8-9.2-8-9.2zm43 2.4c2.1 0 3.8.7 4.9 2 .9 1.1 1.2 2.6.8 4.3-1 4.5-2.9 5.6-9.9 5.6H64l2.1-11.9h7m0-2.4H64l-4.2 23.9h2.4l1.3-7.2h5.4c7 0 10.8-1.1 12.2-7.5 1.3-5.5-2.8-9.2-8-9.2zm-14.3 1.4c-1-1-2.9-1.4-5.7-1.4h-6.6l1.4-7.2h-2.5l-4.7 23.9h2.4L46 37.8h7.1c2.8 0 3.7.5 4 .8.4.4.5 1.5.3 2.8l-2.1 10.7h2.5l1.9-10.3c.4-2.3.1-4-.9-5z"/>
</svg>