<svg xmlns="http://www.w3.org/2000/svg" width="44.001" height="32.981" viewBox="0 0 44.001 32.981"><path d="M39.867,25.956a9.032,9.032,0,0,0-3.986.928,8.343,8.343,0,0,1-.891-2.065,5.483,5.483,0,0,1-.077-1.735,15.155,15.155,0,0,1,.521-1.87c-.006-.079-.1-.456-.983-.463s-1.646.171-1.735.405a8.756,8.756,0,0,0-.366,1.311,31.462,31.462,0,0,1-2.688,5.173,5.386,5.386,0,0,1-.608-1.51,5.483,5.483,0,0,1-.077-1.735,15.155,15.155,0,0,1,.521-1.87c-.006-.079-.1-.456-.983-.463s-1.646.171-1.735.405-.185.781-.366,1.311-2.329,5.314-2.892,6.555c-.287.632-.536,1.14-.712,1.486a0,0,0,0,1,0,0l-.029.062c-.151.3-.24.458-.24.458l0,.006c-.12.217-.248.418-.311.418a2.788,2.788,0,0,1,.019-1.369c.32-1.66,1.087-4.248,1.08-4.338,0-.046.143-.5-.5-.733a.8.8,0,0,0-.906.154c-.055,0-.1.135-.1.135s.7-2.911-1.33-2.911c-1.268,0-3.024,1.387-3.889,2.644-.546.3-1.715.936-2.954,1.617l-1.423.783c-.031-.035-.063-.069-.1-.1-2.459-2.623-7-4.478-6.811-8.005.07-1.282.516-4.658,8.733-8.752C20.79,8.528,26.179,9.451,27.11,11.5c1.33,2.923-2.88,8.354-9.87,9.138-2.663.3-4.066-.734-4.415-1.118-.367-.405-.422-.423-.559-.347-.223.124-.082.481,0,.694a4.146,4.146,0,0,0,2.525,1.986,13.382,13.382,0,0,0,8.193-.81c4.236-1.638,7.543-6.2,6.571-10.005-.988-3.874-7.412-5.148-13.492-2.988A30.549,30.549,0,0,0,5.706,13.984c-3.349,3.132-3.883,5.859-3.663,7,.782,4.048,6.361,6.684,8.6,8.637l-.308.17c-1.12.554-5.373,2.78-6.437,5.131-1.207,2.667.192,4.581,1.118,4.839a6.865,6.865,0,0,0,7.4-3,7.436,7.436,0,0,0,.663-6.834c-.009-.017-.019-.034-.028-.052l.876-.517c.57-.335,1.13-.647,1.615-.911a10.824,10.824,0,0,0-.574,2.926,6.085,6.085,0,0,0,1.311,4.241,1.439,1.439,0,0,0,1.06.347c.945,0,1.376-.786,1.851-1.716.582-1.14,1.1-2.468,1.1-2.468s-.648,3.586,1.118,3.586c.644,0,1.291-.835,1.58-1.26a.042.042,0,0,1,0,.007l.05-.083c.067-.1.1-.167.1-.167l0-.019c.259-.449.833-1.473,1.693-3.162,1.112-2.182,2.178-4.916,2.178-4.916a14.6,14.6,0,0,0,.424,1.774A16.541,16.541,0,0,0,28.35,29.6c-.258.358-.416.563-.416.563a.082.082,0,0,0,0,.011c-.206.274-.437.569-.679.857A24.832,24.832,0,0,0,25.2,33.61a.705.705,0,0,0,.193.945,1.733,1.733,0,0,0,1.08.174,4.919,4.919,0,0,0,1.617-.368,5.426,5.426,0,0,0,1.39-.731,3.092,3.092,0,0,0,1.33-2.738,5.546,5.546,0,0,0-.5-1.934l.235-.34a36.794,36.794,0,0,0,2.41-4.164,14.6,14.6,0,0,0,.424,1.774A12.3,12.3,0,0,0,34.151,28a7.566,7.566,0,0,0-2.342,3.032c-.508,1.462-.11,2.124.636,2.275a2.3,2.3,0,0,0,1.175-.239,5.437,5.437,0,0,0,1.486-.764,3.332,3.332,0,0,0,1.639-2.718,5.1,5.1,0,0,0-.372-1.608,8.4,8.4,0,0,1,4.266-.493c3.827.447,4.577,2.836,4.434,3.836a2.525,2.525,0,0,1-1.215,1.716c-.268.166-.35.224-.328.347.033.179.157.173.386.134A2.984,2.984,0,0,0,46,30.855C46.089,28.509,43.844,25.935,39.867,25.956ZM10.37,35.9c-1.268,1.383-3.038,1.9-3.8,1.465-.82-.475-.495-2.511,1.06-3.979a20.12,20.12,0,0,1,2.984-2.225l.786-.472.086-.048v0l.2-.118A5.494,5.494,0,0,1,10.37,35.9ZM19.6,29.623c-.441,1.076-1.365,3.83-1.928,3.682-.483-.127-.777-2.22-.1-4.28a9.528,9.528,0,0,1,1.5-2.757c.692-.774,1.454-1.027,1.639-.713C20.959,25.955,19.882,28.948,19.6,29.623Zm7.629,3.64c-.187.1-.359.159-.438.112-.059-.035.077-.164.077-.164s.954-1.027,1.33-1.494c.219-.272.472-.595.748-.955,0,.036,0,.072,0,.107A3.191,3.191,0,0,1,27.234,33.263Zm5.877-1.34c-.14-.1-.116-.42.343-1.421a5.371,5.371,0,0,1,1.306-1.686,2.4,2.4,0,0,1-1.649,3.107Z" transform="translate(-2 -7)" fill="#f06292"/></svg>