<svg xmlns="http://www.w3.org/2000/svg" viewBox="0 0 295 1121">
  <path fill="#363957" d="M0 0s23 138 97 197 127 73 161 129 53 139 20 240-127 139-161 217-4 141-31 215-85 123-85 123Z"/>
  <path fill="none" stroke="#62C982" d="M185 431h-29m15 14v-28m17 104h-28m14 14v-28m-33 90h-29m15 14v-28m65-242h-28m14 15v-29m100 76h-29m15 14v-29m14 97h-28m14 14v-28m-9 112h-28m14 15v-29m0-131h-42m21 21v-42m24 111h-42m21 21v-42m-96 172H85m21 21v-42m91-54h-42m21 21v-42m72-235h-42m21 21v-42m-25 66h-17m8 9v-18m-30-89h-17m9 8v-17m51 197h-18m9 9v-18m-39 85h-17m8 9v-18m64 18h-18m9 8v-17m-48 83h-17m9 9v-18m61-330h-17m9 9v-17m94 152h-17m9 8v-17m-14 107h-18m9 9v-17m-152 97H95m9 8v-17" opacity=".6"/>
</svg>