<svg xmlns="http://www.w3.org/2000/svg" viewBox="0 0 684 1156">
  <g data-name="Group 214">
    <path fill="#363957" d="M390 210c64 48 172 64 181 232s-52 196-113 262c-34 39-45 54-54 71-7 12-15 26-20 48-11 50 6 120-6 165s-97 135-97 135V0s45 162 109 210Z" data-name="Path 39"/>
    <g fill="none" stroke="#80de9d" data-name="Group 102" opacity=".6">
      <g data-name="Group 76">
        <path d="M458 431h-29" data-name="Path 37"/>
        <path d="M444 445v-28" data-name="Path 38"/>
      </g>
      <g data-name="Group 79">
        <path d="M461 521h-28" data-name="Path 37"/>
        <path d="M447 535v-28" data-name="Path 38"/>
      </g>
      <g data-name="Group 82">
        <path d="M414 597h-29" data-name="Path 37"/>
        <path d="M400 611v-28" data-name="Path 38"/>
      </g>
      <g data-name="Group 85">
        <path d="M465 341h-28" data-name="Path 37"/>
        <path d="M451 356v-29" data-name="Path 38"/>
      </g>
      <g data-name="Group 88">
        <path d="M551 403h-29" data-name="Path 37"/>
        <path d="M537 417v-29" data-name="Path 38"/>
      </g>
      <g data-name="Group 91">
        <path d="M551 485h-28" data-name="Path 37"/>
        <path d="M537 499v-28" data-name="Path 38"/>
      </g>
      <g data-name="Group 94">
        <path d="M528 583h-28" data-name="Path 37"/>
        <path d="M514 598v-29" data-name="Path 38"/>
      </g>
      <g data-name="Group 77">
        <path d="M514 438h-42" data-name="Path 37"/>
        <path d="M493 459v-42" data-name="Path 38"/>
      </g>
      <g data-name="Group 80">
        <path d="M518 528h-42" data-name="Path 37"/>
        <path d="M497 549v-42" data-name="Path 38"/>
      </g>
      <g data-name="Group 99">
        <path d="M400 679h-42" data-name="Path 37"/>
        <path d="M379 700v-42" data-name="Path 38"/>
      </g>
      <g data-name="Group 83">
        <path d="M470 604h-42" data-name="Path 37"/>
        <path d="M449 625v-42" data-name="Path 38"/>
      </g>
      <g data-name="Group 86">
        <path d="M521 348h-42" data-name="Path 37"/>
        <path d="M500 369v-42" data-name="Path 38"/>
      </g>
      <g data-name="Group 78">
        <path d="M475 393h-17" data-name="Path 37"/>
        <path d="M467 402v-18" data-name="Path 38"/>
      </g>
      <g data-name="Group 98">
        <path d="M436 295h-17" data-name="Path 37"/>
        <path d="M428 303v-17" data-name="Path 38"/>
      </g>
      <g data-name="Group 81">
        <path d="M479 483h-18" data-name="Path 37"/>
        <path d="M470 492v-18" data-name="Path 38"/>
      </g>
      <g data-name="Group 84">
        <path d="M431 559h-17" data-name="Path 37"/>
        <path d="M423 568v-18" data-name="Path 38"/>
      </g>
      <g data-name="Group 101">
        <path d="M486 568h-18" data-name="Path 37"/>
        <path d="M477 576v-17" data-name="Path 38"/>
      </g>
      <g data-name="Group 97">
        <path d="M429 642h-17" data-name="Path 37"/>
        <path d="M421 651v-18" data-name="Path 38"/>
      </g>
      <g data-name="Group 87">
        <path d="M482 303h-17" data-name="Path 37"/>
        <path d="M474 312v-17" data-name="Path 38"/>
      </g>
      <g data-name="Group 93">
        <path d="M568 447h-17" data-name="Path 37"/>
        <path d="M560 455v-17" data-name="Path 38"/>
      </g>
      <g data-name="Group 96">
        <path d="M546 545h-18" data-name="Path 37"/>
        <path d="M537 554v-17" data-name="Path 38"/>
      </g>
      <g data-name="Group 100">
        <path d="M385 634h-17" data-name="Path 37"/>
        <path d="M377 642v-17" data-name="Path 38"/>
      </g>
    </g>
  </g>
</svg>