<?xml version="1.0" encoding="utf-8"?>
<!-- Generator: Adobe Illustrator 27.0.1, SVG Export Plug-In . SVG Version: 6.00 Build 0)  -->
<svg version="1.1" id="Layer_1" xmlns="http://www.w3.org/2000/svg" xmlns:xlink="http://www.w3.org/1999/xlink" x="0px" y="0px"
	 viewBox="0 0 293.7 1125.5" style="enable-background:new 0 0 293.7 1125.5;" xml:space="preserve">
<style type="text/css">
	.st0{fill:#781AD6;}
	.st1{opacity:0.6;}
	.st2{fill:none;stroke:#AF6AFF;}
</style>
<g>
	<path class="st0" d="M110.3,210c64,48,172,64,181,232s-52,196-113,262c-34,39-45,54-54,71c-7,12-15,26-20,48c-11,50,6,120-6,165
		s-97,135-97,135V0C1.3,0,46.3,162,110.3,210z"/>
	<g class="st1">
		<g>
			<path class="st2" d="M178.3,431h-29"/>
			<path class="st2" d="M164.3,445v-28"/>
		</g>
		<g>
			<path class="st2" d="M181.3,521h-28"/>
			<path class="st2" d="M167.3,535v-28"/>
		</g>
		<g>
			<path class="st2" d="M134.3,597h-29"/>
			<path class="st2" d="M120.3,611v-28"/>
		</g>
		<g>
			<path class="st2" d="M185.3,341h-28"/>
			<path class="st2" d="M171.3,356v-29"/>
		</g>
		<g>
			<path class="st2" d="M271.3,403h-29"/>
			<path class="st2" d="M257.3,417v-29"/>
		</g>
		<g>
			<path class="st2" d="M271.3,485h-28"/>
			<path class="st2" d="M257.3,499v-28"/>
		</g>
		<g>
			<path class="st2" d="M248.3,583h-28"/>
			<path class="st2" d="M234.3,598v-29"/>
		</g>
		<g>
			<path class="st2" d="M234.3,438h-42"/>
			<path class="st2" d="M213.3,459v-42"/>
		</g>
		<g>
			<path class="st2" d="M238.3,528h-42"/>
			<path class="st2" d="M217.3,549v-42"/>
		</g>
		<g>
			<path class="st2" d="M120.3,679h-42"/>
			<path class="st2" d="M99.3,700v-42"/>
		</g>
		<g>
			<path class="st2" d="M190.3,604h-42"/>
			<path class="st2" d="M169.3,625v-42"/>
		</g>
		<g>
			<path class="st2" d="M241.3,348h-42"/>
			<path class="st2" d="M220.3,369v-42"/>
		</g>
		<g>
			<path class="st2" d="M195.3,393h-17"/>
			<path class="st2" d="M187.3,402v-18"/>
		</g>
		<g>
			<path class="st2" d="M156.3,295h-17"/>
			<path class="st2" d="M148.3,303v-17"/>
		</g>
		<g>
			<path class="st2" d="M199.3,483h-18"/>
			<path class="st2" d="M190.3,492v-18"/>
		</g>
		<g>
			<path class="st2" d="M151.3,559h-17"/>
			<path class="st2" d="M143.3,568v-18"/>
		</g>
		<g>
			<path class="st2" d="M206.3,568h-18"/>
			<path class="st2" d="M197.3,576v-17"/>
		</g>
		<g>
			<path class="st2" d="M149.3,642h-17"/>
			<path class="st2" d="M141.3,651v-18"/>
		</g>
		<g>
			<path class="st2" d="M202.3,303h-17"/>
			<path class="st2" d="M194.3,312v-17"/>
		</g>
		<g>
			<path class="st2" d="M288.3,447h-17"/>
			<path class="st2" d="M280.3,455v-17"/>
		</g>
		<g>
			<path class="st2" d="M266.3,545h-18"/>
			<path class="st2" d="M257.3,554v-17"/>
		</g>
		<g>
			<path class="st2" d="M105.3,634h-17"/>
			<path class="st2" d="M97.3,642v-17"/>
		</g>
	</g>
</g>
</svg>
