<?xml version="1.0" encoding="UTF-8"?><svg id="Layer_2" xmlns="http://www.w3.org/2000/svg" viewBox="0 0 357.4 385.9"><defs><style>.cls-1{fill:#f6ebe9;}.cls-2{fill:#f6f0c8;}.cls-3{fill:#f2eab0;}.cls-4{fill:#f9f5db;}.cls-5{fill:#ebdf81;}.cls-6{fill:#e9f0f6;}.cls-7{fill:#eacfcc;}.cls-8{fill:#fcfbf0;}.cls-9{fill:#efe497;}.cls-10{fill:#6aa4c8;}.cls-11{fill:#8cb7d4;}.cls-12{fill:#b56164;}.cls-13{fill:#c27a7b;}.cls-14{fill:#aecae0;}.cls-15{fill:#dfb5b2;}.cls-16{fill:#d19796;}.cls-17{fill:#cadbea;}.cls-18{fill:#4995bd;}.cls-19{stroke:#84b2d2;}.cls-19,.cls-20,.cls-21{fill:none;stroke-width:0px;}.cls-20{stroke:#f1e9ab;}.cls-21{stroke:#cd908f;}.cls-22{opacity:.9;}</style></defs><g id="Guides"><g class="cls-22"><g class="cls-22"><path class="cls-15" d="m222.64,208.68c3.77.71,9.88-4.99,15.08-11.66,5.21-6.63,9.33-14.01,10.85-15.61,3.19-3.65,5.76-10.27,7.03-17.8,1.27-7.55,1.12-15.94-.4-23.55-1.44-7.62-4.29-14.49-7.04-19.24-2.69-4.78-4.86-7.51-4.09-7.93,2.23-.77,6.66-6.29,9.75-12.88,3-6.43,4.48-13.84,2.71-16.62-4.12-6.92-10.81-11.88-18-15.06-1.72-.88-3.8-1.46-5.8-2.01-2.01-.54-4.04-1-6.08-1.37-1.03-.17-2.01-.37-3.08-.47-1.09-.05-2.18-.09-3.28-.14-2.18-.05-4.34-.02-6.47.09-4.02,0-6.68.59-8.6.92-1.9.31-3.04.36-4.25-.41-1.09-.45-9.06,5.81-18.71,8.05-6.42,1.23-12.97-1.19-18.63.95-1.3.33-2.9.61-4.69.84-.89.1-1.84.2-2.83.31-1.34.02-1.82.2-2.6.32-2.97.52-6.36.92-9.62,1.17-3.37.31-6.48.35-9.39.48-2.79.03-5.21.04-6.95.18-6.34.27-11.15-.22-14.88-1.87-1.85-.84-3.64-1.74-5.02-3.18-1.44-1.38-2.89-2.85-3.93-4.92-.56-1.29-1.19-2.36-1.9-3.3l3.42,15.43c.69-.84,1.21-1.7,1.63-2.59.41-.91.73-1.87,1.26-2.51.46-.75.92-1.5,1.4-2.28.63-.57,1.33-1.08,2.06-1.56.39-.41.92-.64,1.4-.87.47-.25.9-.53,1.3-.83.8-.61,1.92-.89,2.8-1.46,2.03-.88,4.41-1.62,7.65-1.73,6.31,1.21,12.51,2.42,20.7,2.81,1.1-.23,2.21-.45,3.11-1.19.89-.74,3.05-.24,4.22-.45,6.91,2.01,13.34,7.3,22.12,6.32,2.52-.28,6.02-2.37,5.11-4.27-2.17-4.77-4.78-8.88-7.37-12.7-2.58-3.91-5.27-7.36-8.09-10.82-5.3-6.26-12.57-7.19-20.8-9.24-11.26-2.56-20.43-14.14-32.29-23.33-.97-.96-2-1.96-3.06-3-1.1-1-2.3-1.97-3.54-2.95-2.49-1.94-5.25-3.79-8.43-5.13-1.63-.63-3.19-1.33-5.17-1.48-1.94-.2-4.03-.2-6.24.08-2.21.28-4.55.83-6.98,1.72-2.44.92-5.13,2.55-7.78,4.44-2.25,1.69-4.39,3.48-6.43,5.32-1.95,1.94-3.76,4.02-5.51,6.1-1.74,2.1-3.38,4.24-4.92,6.4-1.52,2.16-2.58,4.29-3.8,6.47-1.17,2.17-2.27,4.35-3.33,6.53-.51,1.08-1.08,2.2-1.52,3.24l-1.1,3.01c-1.46,4.03-2.9,7.99-4.35,11.98l-13.01,35.82,25.92,22.35c3.89,3.35,7.48,7.29,11.03,11.43,2.22,2.71,4.41,5.31,6.62,7.83,2.2,2.35,4.41,4.53,6.72,6.7,2.35,2.24,4.66,4.1,7.13,5.92,2.45,1.79,5.22,3.76,7.89,5.18.68.61,2.5,1.93,4.45,3.22.98.65,1.98,1.28,2.88,1.83.85.49,1.59.88,2.1,1.11,13.1,3.45,25.38,9.53,33.73,2.65.72,0,1.42-.01,2.09-.02h.5c.3.05-.5-.16-.31-.15l.12-.13c.16-.16.3-.25.43-.31.26-.11.47-.09.71-.15.5-.13,1-.65,3.11-3.22,2.82-3.47,6.68-6.94,10.92-9.49,4.21-2.56,8.8-4.13,12.26-4,4,.21,6.7,2.07,6.81,5.25.15.49-1.7,2.76-4.22,4.95-2.5,2.22-5.65,4.29-7.23,5.21-5.74,3.32-1.78,3.32,2.28,4.13,8.04.78,12.27,3.91,13.95,8.41-.24,1.58-3.41,2.56-4.28,4.04-.77,3.75,2.92,8.53,2.69,13.87-1.17,3.88-3.4,9.33-4.35,12.68-1.05,3.53-1.43,5.88-1.49,7.45-.12,3.1,1,3.05.43,3.37-.71,1.27-2.24,1.48-3.94,1.83-.85.17-1.75.35-2.6.68-.43.16-.84.36-1.24.61l-.15.1-.04.02h0s0,0,0,0h0s-.72,1.42-.72,1.42h-.02s-.06.06-.06.06l-.24.2c-.16.14-.31.29-.44.45-.9,1.04-2.58,6.56-2.21,9.1.04,3.07.91,5.94,1.99,8.14,2.86,6.52,6.74,12.76,10.75,18.01,2.08,2.64,4.13,5.02,6.24,7.31,2.21,2.19,4.29,4.53,6.84,6.87-.25-1.3.2-2.67-.45-3.14-2.87-3.44-3.74-7.53-3.34-10.97.38-3.49,1.77-6.46,3.3-9.1,1.54-2.64,3.26-4.98,4.8-7.28.42-.57.8-1.13,1.14-1.71.35-.46.65-.83.89-1.28.34-.6.92-1.64,1.32-2.48l.08-.17.04-.08h0c-.22.43.5-1-.49.97v-.02s.03-.04.03-.04l.17-.29.33-.58.62-1.2c.1-1.58.11-3.76.92-5.4,1.72-2.74,2.96-5.53,4.21-8.34,1.39-2.28,5.68-3.39,11.08-4.75,5.29-1.22,11.38-2.22,14.69-1.65Z"/><g class="cls-22"><path class="cls-12" d="m143.49,36.23c8.23,2.06,15.51,2.98,20.82,9.25,2.82,3.46,5.51,6.93,8.09,10.83,2.57,3.84,5.18,7.93,7.34,12.71.91,1.9-2.61,3.99-5.14,4.26-8.75.96-15.17-4.34-22.07-6.35-1.16.2-3.33-.29-4.21.45-.9.74-1.99.97-3.1,1.2-8.17-.39-14.34-1.58-20.61-2.77-3.22.11-5.58.86-7.56,1.74-1.97.92-3.53,1.91-5.41,3.14-.71.48-1.43.94-2.01,1.54-.47.76-.92,1.5-1.38,2.23-.53.63-.82,1.6-1.23,2.48-.41.88-.91,1.72-1.58,2.55l-3.48-15.67c.75.97,1.41,2.08,1.99,3.43,2.29,3.92,5.18,6.48,8.95,8.05,3.74,1.62,8.53,2.12,14.87,1.82,1.74-.15,4.14-.14,6.95-.19,2.91-.13,6.02-.18,9.39-.49,3.25-.25,6.66-.65,9.62-1.17.37-.07.73-.13,1.09-.2.07-.06.55-.03.86-.04l.75-.07c.99-.11,1.94-.21,2.83-.31,1.8-.23,3.4-.5,4.7-.83,5.68-2.12,12.25.28,18.66-.92,0,0,.57,1.06,1.74,3.03,1.19,1.93,2.92,4.84,4.93,8.55,0,0-1.59.13-4.37.35-2.75.24-6.73.79-11.2,1.44-4.5.7-9.57,1.66-14.61,2.75-2.45.56-4.98,1.14-7.55,1.74-2.14.65-4.31,1.32-6.49,1.98-8.69,2.6-17.65,4.7-24.8,5.7-3.54.45-6.61.67-8.79.86-2.17.09-3.43.07-3.43.07-8.92-3.95-17.66-9.42-25.1-16.54l-5.77-5.52,3-6.98c1.29-3.01,2.46-6.05,4.03-9.01l2.82-4.35,1.46-2.15c.57-.67,1.2-1.32,1.8-1.97,1.22-1.3,2.47-2.58,3.74-3.84,1.36-1.15,2.84-2.16,4.29-3.21l2.21-1.54c.75-.47,1.54-.81,2.31-1.21l4.71-2.27c12.81-4.81,24.98-4.85,35.93-4.54Z"/></g><path class="cls-13" d="m179.2,80.67s2.88-.41,7.21-.7c2.11-.08,4.58-.11,7.2-.04,2.64.04,5.38.22,7.9.71,2.55.44,5.03.98,7.12,1.7,1.96.85,3.58,1.82,4.61,2.88,2.1,2.14,1.7,4.64-2.63,7.66,0,0-3.87,1.33-9.66,3.59-5.73,2.18-13.53,5.72-20.99,9.67-7.66,4.18-14.74,8.66-20.17,12.1-5.48,3.41-9.36,5.79-12.03,5.49,0,0-.48-.05-1.27-.13-.39-.04-.86-.08-1.39-.13h-.18s.1.02-.07,0l-.68-.1c-.46-.06-.94-.13-1.43-.2-3.87-.49-8.75-1.22-12.18-1.55,0,0-.6-.6-1.8-1.61-1.19-.99-2.91-2.3-5.06-3.58-4.38-2.64-10.47-5.4-18.43-6.3,0,0-1.07-.3-2.93-.81-1.87-.56-4.55-1.2-7.75-2.55-6.46-2.24-14.96-6.88-22.7-12.86l-12.44-9.62,6.02-19.33c.74-2.37,1.54-4.73,2.4-7.06.45-1.16.89-2.3,1.33-3.44.46-1.13,1.21-2.31,1.82-3.42,1.29-2.25,2.64-4.41,3.99-6.41,1.43-1.99,3.2-3.77,4.76-5.4,3.1-3.38,6.4-5.51,9.03-6.92,2.62-1.41,4.58-2.05,5.61-1.63,0,0,2.11-.85,5.45-1.94.83-.26,1.74-.54,2.71-.84.95-.25,1.92-.38,2.95-.57,2.06-.35,4.28-.67,6.55-.92,8.73-.39,17.14,1.21,20.09,3.75,0,0,.6.82,1.63,2.02,1.03,1.21,2.5,2.76,4.12,4.4,3.34,3.19,7.53,6.36,12.26,5.98,0,0,6.7,4,11.57,8.09,4.89,4.01,8.36,8.21.91,8.83,0,0-2.21.63-4.87,1.26-2.72.64-5.88,1.34-7.99,1.56,0,0-3.57-.62-8.99-1.56-5.32-.87-12.23-1.78-18.79-1.57-6.59.15-12.58,1.84-16.99,4.49-1.06.7-2.11,1.34-3.1,1.92-.85.72-1.62,1.41-2.34,1.97-1.41,1.15-2.66,1.82-3.21,1.99,0,0-1.48,1.81-3.82,5.27l-.28-1.26c1.33,1.66,2.95,3.72,5,5.89,2.22,1.94,4.6,4.36,7.67,6.19,5.9,4.05,13.55,7.17,21.61,8.39,8.06,1.29,16.43.88,24.27-1.53,8.7-2.21,18.4-6.15,28.41-11.82Z"/><path class="cls-16" d="m182.97,76.3s2.25-.8,5.92-1.68c3.62-.81,8.61-1.52,14.05-1.63,10.49.07,22.03,4.11,21.86,13.32,0,0,.32.53.88,1.44.54.91,1.3,2.16,1.98,3.93,1.46,3.36,2.94,7.88,3.3,12.48.21,2.27.2,4.51-.18,6.64-.3,2.06-.9,3.94-1.86,5.52-1.82,3.1-4.6,4.65-8.48,3.99,0,0-3.85-.73-10.26-1.07-3.42-.04-8.05.53-12.67,1.19-4.72.78-9.62,1.69-14.59,3.29-9.85,2.85-18.9,6.64-25.64,9.76-6.83,3.11-11.38,5.59-14.73,5.55,0,0-.37-.08-1.2.65.01.06.28.18.09.2l-.4.11c-.27.09-.57.18-.88.28-.62.22-1.31.49-2.07.83-1.52.68-3.32,1.64-5.43,2.97,0,0-1.32.16-3.42.22-2.16.01-4.87.11-8.22-.51-3.29-.58-6.69-1.42-9.99-3.22-3.2-1.7-5.92-3.99-7.57-7.22,0,0-5.92-5.75-12.72-12.36-7.02-7.12-14.53-15.48-20.33-19.54,0,0-.52-1.99-1.52-4.54l-11.44-29.25,4.04-4.13c1.77-1.81,3.81-4.04,5.47-6.48.86-1.23,1.51-2.48,2.21-3.85.77-1.38,1.39-2.82,1.77-4.34,0,0-.75,1.7-2.05,4.65-.87,2.84-1.99,6.88-3.11,11.57l-5.13,21.48,11.47,7.1c2.32,1.43,4.87,3.01,7.56,4.68,2.69,1.6,5.68,2.92,8.6,4.41,2.95,1.42,6.03,2.48,8.99,3.73,2.98,1.11,5.92,1.98,8.71,2.98,11.16,3.49,19.83,5.63,21.52,9.43,0,0,1.45,1.15,4.04,2.24,2.62,1.14,6.49,2.38,11.17,2.58.59.02,1.2.03,1.82.05.46.03.22-.09.53-.1l.61-.12c.83-.17,1.73-.41,2.7-.72,1.95-.63,4.2-1.58,6.93-2.92,5.48-2.67,12.81-6.89,24.04-12.88,0,0,1.42-1.24,3.36-3.19,1.93-1.95,4.4-4.63,6.33-7.65,3.87-6.02,5.61-13.86-6.09-19.88Z"/><path class="cls-7" d="m221.44,61.91c1.83-.09,3.81-.3,5.68-.35,1.85,0,3.72.02,5.59.03,3.71.13,7.83.22,11.26,1.09,1.74.6,3.53,1.74,5.32,2.97,1.79,1.24,3.63,2.49,5.29,3.72,4.37,3.16,6.59,8.38,7.93,11.79.45,2.2,1.1,4.39,1.85,6.63.63,2.34,1.52,4.6,2.24,7.04,1.37,4.9,3.01,9.93,3.7,15.17,1.77,10.34.55,20.7-4.24,28.08-1.07,2.33-1.63,4.02-1.97,6.25.38.54,1.04,2.75,1.4,3.3-.22,6.76-2.19,13.43-3.01,19.73-.94,10.55-9.81,20.64-19.06,28.08-4.95,4.27-9.85,9.57-14.86,13.8-8.5,7.23-18.89,2.45-24.19,7.08-4.49,3.33-6.41,7.92-7.88,12.34l-1.03,3.24-.26.78-.13.39-.07.19-.03.1h0s0,.02,0,.02c1.36-2.69.37-.74.68-1.34v.03s-.02.06-.02.06l-.58,1.84-.32.9c0,.11-.01.21-.03.31-.04.2-.12.38-.24.56-.23.63-.71,1.29-1.18,1.94-1.55,1.46-2.53,3.03-3.6,4.61-1.08,1.64-2.14,3.27-3.33,5.07-2.49,3.1-3,6.94-1.29,11.54.23.47.36,1.86.53,3.33.14,1.5.39,2.81.16,3.26-1.05,1.11-3.43-.98-5.31-1.49-2.69-.81-3.52-3.14-3.42-5.22.16-2.2,1.09-4.2,1.59-5.85.32-1.92.09-3.61-.23-5.46-.32-1.83-.59-3.86-.29-5.85.81-1.61,2-2.76,3.86-3.92,1.4-.77,1.92-1.83,1.96-3.16.07-.65.04-1.37-.02-2.12-.03-.69-.07-1.36-.07-2.07-.14-.93.38-2.13.9-3.04l.11-.18h0s0,0,0,0c.06-.11-.47.94-.25.49h0s.02-.03.02-.03l.03-.04.06-.08.26-.31.55-.59c.38-.39.79-.76,1.21-1.13,1.72-1.47,3.61-2.85,4.68-4.8,3.12-5.05,1.02-12.28,6.15-15.38-2.31,1.25.27-2.91,3.24-6.92,2.96-3.98,6.28-7.95,5.53-5.59-.15-.52,2.58-1.05,4.11-.83.82.39,2.36.62,2.5,1.17,1.07,4.47,6.46,6.4,9.84,9.47.34-.1,2.93-3.57,6.11-7.71,3.24-4.12,6.97-8.97,10.34-11.56,5.39-3.86,11.02-7.72,13.64-13.95.17-1.62-1.91-2.45-1.79-4.01.38-1.85-1-13.37-5.32-23.4-2.04-5.08-4.76-9.89-7.2-13.58-2.51-3.68-4.61-6.26-4.79-7.39,0-2.85.98-7.18,3.34-7.6,3.06-1.16,4.56-3.13,5.7-5.43,1.18-2.31,1.74-4.72,3.48-6.91,1.02-1.01,3.33-.83,4.36-1.84,2.43-3.37,4.1-8.43,2.2-12.03-2.45-6.34-8.19-12.65-14.26-14.97.42-.27-16.52-10.79-17.15-10.26Z"/><path class="cls-21" d="m54.57,22.77s-.6.96-1.66,2.66c-.89,1.72-2.16,4.17-3.72,7.18-.77,1.53-1.62,3.2-2.52,4.99-.45.9-.9,1.83-1.38,2.79-.35.89-.71,1.8-1.08,2.74-1.5,3.76-3.14,7.88-4.9,12.31l-13.43,33.74,26.33,24.39c3.4,3.15,6.88,6.89,10.45,10.73,3.59,3.67,7.23,8.15,10.67,12.42,0,0,1.11,1.03,2.83,2.62.89.78,1.93,1.71,3.06,2.71,1.13.89,2.35,1.85,3.6,2.83,2.5,1.89,5.34,3.98,7.63,5.33,2.29,1.36,4.28,2.36,5.43,2.61l2.9,2.2c1.38,1.01,2.77,2.01,2.77,2.01,0,0,1.82.7,4.68,1.65,2.97,1.04,6.46,1.89,10.35,2.67,3.91.79,7.46,1.01,10.79.89,3.18-.21,5.64-1.06,7.13-2.64,0,0,.75,0,1.9-.01.29,0,.6,0,.93,0,.37.05-.49-.17-.3-.17l.07-.09c.1-.11.2-.23.3-.36.42-.45.91-.71.76-.04,0,0,.11.25.97-.75.92-.98,2.56-3.23,7.11-7.84"/><path class="cls-1" d="m263.68,177.33c-1.43,2.6-6.52,9.98-12.63,16.77-6.04,6.87-13.06,12.99-16.71,15.11-5.64,3.43-11.19,6.51-16.27,8.73l-3.81,1.59c-1.18.38-2.23.57-3.37.86-2.23.51-4.48,1.03-6.78,1.56-.74.36-1.37,1.08-1.2,1.82.41,2.78-.55,4.81-1.64,6.66-.51.9-1.11,1.8-1.53,2.68-.2.43-.37.87-.5,1.32-.06.23-.11.45-.15.69l-.04.35v.09s0,.04,0,.04v.02s0,.01,0,.01h0c-.76,1.5,1.03-2.04.85-1.67h0s0,.22,0,.22c-.07.97.09,2.01.14,3.01.38.41.74.52.55.56-1.3,1.61-3.21,3.48-5.43,5.22-2.12,1.8-4.83,3.42-6.7,6.74-1.66,2.75-2.63,7.58-.53,12.2.22,1.16,1.04,2.61.61,3.75-.08.98-1.72-.17-2.79-.19-.93-.91-1.14-2.76-1.98-4.07-1.11-2.95-3.09-5.09-2.2-7.91.55-2.75,2.35-4.85,3.57-6.89.28-.65.53-1.25.78-1.84.21-.59.32-1.14.48-1.79.88-2.27,1.84-4.49,2.85-6.65.94-1.99,1.88-3.95,2.82-5.94-1.69-3.81,2.63-6.06,4.42-8.58.64-.73,1.77-1.09,2.81-1.8,1.95-2.2,2.5-5.6,5.67-5.94,7.12-.73,14.58-3.05,22.21-7.47,3.05-1.76,10.01-7.27,16.42-13.86,6.43-6.51,12.21-14,13.86-17.2,5.22-8.54,4.74-17.05,6.79-25.46.02-.36,2.23.8,3.38,4.96.6,2.08.96,4.91.48,8.62-.41,3.7-1.71,8.3-4.42,13.69Z"/></g></g><g class="cls-22"><g class="cls-22"><path class="cls-2" d="m256.72,133.11c-.88,3.5,2.15,6.92,5.3,9.53,3.24,2.68,6.49,4.54,7.02,5.67,1.4,2.17,4.67,3.35,8.45,3.89l-24.75-43.6c.85,1.3,2.65,4.02,3.09,7.36.39,1.54.18,3.27.15,4.3-.22,1.14-.56,1.74-1.06,1.42-1.92-1.28-7.9-4.07-13.75-6.43-2.92-1.18-5.76-2.28-7.96-3.05-2.2-.78-3.97-1.01-4.48-.74-5.29,2.6-7.33,11.4-5.69,22.15.27,2.43.79,4.17,1.05,5.43.27,1.23.3,1.92-.56,2.64-.52.65,5.48,6.92,7.01,13.58.88,4.45-2.02,8.4.08,12.56.33,1,.56,2.21.78,3.61.43,2.21.7,4.8,1.1,7.49.37,2.55.85,5.11,1.27,7.57.93,4.89,1.96,9.18,2.87,11.53,4.03,10.2,4.74,14.82,1.13,21.32-1.74,2.36-2.19,4.46-2.47,6.55-.28,2.05-.4,4.1-1.49,5.79-1.79,3.55-2.02,5.63-3.75,6.4-1.34-.29-2.09-.62-3.06-.78-.43-.05-1.03-.12-1.52-.02-.71-.03-1.16.21-2.04.29-.39.35-.79.7-1.04,1.57-.22.89-1.35.55-1.84.9-3.47-1.35-6.19-6.15-9.93-5.82-1.03.05-2.88,1.75-2.9,3.7-.02,9.78,2.3,17.56,6.33,24.32,3.94,6.14,10.14,6.52,17.49,6.52,2.53.02,5.25.23,8.15.86,2.95.37,6.12,1.2,9.58,1.67,6.91,1.23,14.74,1.89,22.31,1.97,2.81.19,5.72.52,8.87.56,3.16.04,6.45-.2,9.52-.94,3.09-.74,6.34-2.34,8.82-4.41,1.29-1.08,2.49-2.4,3.56-3.97.95-1.41,1.75-3.04,2.38-4.92,2.43-8.72,1.7-15.66,1.33-21.46-.41-5.81-.62-10.36,1.98-14.62,3.94-5.73,7.4-9.64,9.35-13.79.67-.56,2.43-2.67,2.71-3.25-.66-4.28,3.21-6.78-4.94-8.88-.41-.22-.68-.4-.85-.56-.63-.86.74-.4-3.27-3.18-1.65-1.22-3.3-2.4-4.61-4.05-1.4-1.59-2.27-3.66-3.15-5.51-.82-1.91-1.18-4.03-1.4-5.92,0-2.11.12-3.91.9-5.84,1.42-4.29,4.2-8.24,8.28-11.88.67-.76,3.66-1.5,6.97-2.27,3.37-.93,7.03-1.94,8.81-2.43,3.28-1.09,5.14-3.8,5.93-7.13.76-3.5.54-7.15-.31-10.46-1.02-2.96-1.97-5.73-2.88-8.39-.95-2.75-1.82-5.4-2.6-8.01l-13.21-44.01-9.66,3.72c-2.96,1.14-6.01,1.89-8.95,2.46-2.14-.26-3.08-3.01-5.12-3.78-5.2-.66-10.54,3.39-15.46,4.24-8.02-.9-11.75-.5-13.78.15-2.02.65-2.18,1.59-2.29,1.17-1.42-.67.65-5.14-.31-6.8-1.54-1.79-4.86-.87-7.82.32-4.18,1.55-8.88,2.53-12.76,1.81-1.92-.36-3.7-1.05-4.88-2.3-1.25-1.19-2.05-2.8-2.02-4.86-.64.9-1.74,1.82-1.57,2.3.38,5.73.4,12.28,2.19,18.26,1.69,5.98,4.98,11.59,10.66,14.45,1.41.08,3.28-.17,4.62.37,2.22,1.3,4.48,1.85,6.7,2.41,3.42,1.52,4.73,15.09,3.4,21.27Z"/><g class="cls-22"><path class="cls-5" d="m231.71,268.52c-7.34.01-13.53-.34-17.48-6.48-4.04-6.76-6.35-14.53-6.34-24.31.02-1.96,1.86-3.65,2.89-3.7,3.72-.35,6.44,4.47,9.88,5.8.5-.34,1.62-.02,1.82-.91.24-.86.64-1.22,1.03-1.57.85-.1,1.31-.32,2-.29.44-.11,1.08,0,1.46.02.97.18,1.65.51,2.99.8,1.71-.73,1.92-2.83,3.7-6.37,1.08-1.7,1.21-3.73,1.48-5.79.27-2.08.72-4.18,2.47-6.55,1.79-3.19,2.52-6.07,2.3-9.3-.23-3.24-1.43-6.87-3.43-12.04-.9-2.34-1.91-6.6-2.84-11.44-.42-2.45-.89-4.99-1.25-7.53-.39-2.68-.65-5.27-1.07-7.48-.22-1.5-.46-2.78-.8-3.83-2.09-4.17.83-8.13-.04-12.57,0,0,1.11-.24,3.2-.71,2.09-.47,5.13-1.23,9.08-1.98.03,8.47,1.23,16.47,3.62,23.74,4.18,12.45,10.88,21.66,17.44,31.31,0,0-.2,3.71-.49,9.27-.39,5.71-.7,13.55-2.91,22.47-1.13,4.44-2.9,9.23-5.73,13.63-2.78,4.42-6.75,8.12-10.39,10.45-3.66,2.43-6.93,3.61-9.13,4.37-1.13.43-1.97.6-2.56.75-.58.15-.9.22-.9.22Z"/></g><path class="cls-9" d="m238.12,158.37s-.2-1.95-.15-4.82c.11-2.83.52-6.62,1.28-9.47,1.67-6.1,4.88-9.66,11.8-3.34,0,0,1.71,2.53,4.22,6.51,2.5,3.94,5.87,9.22,9.32,14.65,3.45,5.42,7.21,10.62,10.2,14.6,2.98,4.04,5.12,6.94,4.81,8.72,0,0-.06.15-.27,1.01.02.39-.15,1.53-.16,2.91-.06,1.41-.06,3.37.11,4.71,0,0-2.11,1.12-3.76,3.4-1.64,2.28-2.74,5.82-.72,10.01,0,0,.13.52.36,1.44.22.93.53,2.27.9,3.87.7,3.28,1.62,7.79,2.07,12.98.46,5.16.37,11.12-.86,16.4-1.17,5.25-3.5,9.5-5.39,9.77,0,0-.85,1.39-2.29,3.43-1.54,2.09-3.83,4.92-6.92,7.62-3.03,2.71-6.83,5.07-10.32,6.43-3.5,1.27-6.61,1.77-8.53,1.27,0,0-.92-.46-2.31-1.16-1.42-.65-3.28-1.62-5.21-2.65-.97-.49-1.96-.97-2.94-1.39-.97-.49-1.93-.92-2.87-1.24-1.91-.57-3.66-.95-5.43-.35,0,0-.36-.18-.97-.48-.59-.35-1.41-.86-2.32-1.47-1.85-1.18-3.98-3.03-5.65-4.94-3.36-3.87-4.83-8.08-.5-8.76,0,0,1.23-.69,2.75-1.55,1.53-.77,3.05-1.93,4.13-2.32,0,0,.46.03,1.26.08.41.03.9.08,1.47.12.53,0,1.12,0,1.77,0,2.61-.07,5.56-.33,8.33-1.98,2.9-1.5,5.61-5.07,7.68-8.26,2.04-3.22,3.62-5.9,4.74-6.27,0,0,1.01-1.68,2.13-4.67,1.13-2.98,2.36-7.27,3.02-12.21.67-4.95.82-10.48.08-16.2-.73-5.77-2.39-11.6-5.13-18.3-2.27-5.63-5.33-11.7-9.72-18.13Z"/><path class="cls-3" d="m233.95,155.26s-.65-1.59-1.26-4.13c-.64-2.54-.99-6.01-.97-9.33.11-6.44,2.57-12.47,10.7-10.9,0,0,1.72-.49,4.22-.82,2.58-.42,5.87-.63,9.39-.54,6.88.35,14.69,1.53,17.88,6.98,0,0,1.52,2.68,3.5,7.19,1.97,4.48,4.27,10.86,6.38,17.63,2.08,6.78,4.25,13.77,6.38,19.04,2.4,4.83,4.49,8.11,4.45,10.41,0,0-.01.04.02.16.16.4.99,1.44,6.12,4.19,0,0,1.49,1.82,1.82,4.1.31,2.2-.52,5.19-5.42,6.81,0,0-3.45,2.6-6.67,6.62-3.21,3.97-6.23,9.3-5.48,13.2,0,0-2.06,1.33-3.78,3.24-1.75,1.95-3.14,4.43-1.95,7.21,0,0-.09-.79-.25-2.17-.22-1.27-.46-3.19-.86-5.28-.73-4.27-1.95-9.35-2.95-14.16-2.08-9.61-2.75-18.36,1.94-19.39,0,0,1.01-.98,1.81-2.57.39-.82.7-1.82.83-2.94.06-1.03-.04-2.15-.53-3.58-1.28-4.24-5.63-10.38-13.83-23.8,0,0-4.59-4.41-10.66-7.9-6.05-3.37-13.83-6.2-20.83.76Z"/><path class="cls-4" d="m220.18,128.53c-.41-2.35-1.14-4.51-1.71-6.83-.58-2.3-1.04-4.64-1.36-6.52.02-1.91,1.78-3.62,2.11-5.08.37-.93,1.33-1.65,2.23-1.96.9-.3,1.94-.42,2.77-.53,2.47-.02,4.17.06,6.02-.33l2.32-.29c.77-.13,1.52-.26,2.13-.23l2.11-.04c.71.11,1.42.23,2.15.34,1.7.21,3.34.84,5.86,1.44,1.18.21,1.77.29,1.99.2-.38-.18-1-.56-1.37-.71,0-.35.04-.45.14-.66l29.34,51.69c-.82-.25-1.64-.44-2.5-.5-4.72.19-7.78-5.39-10.51-11.36-1.59-3.12-4.13-5.77-6.24-8.73-3.74-5.13.44-15.53-3.28-19.32-2.81-3.43-6.57-4.36-10.55-5.46-1.98-.54-4-1.22-5.89-2.13-1.88-.97-3.62-2.35-4.98-4.22-2.71-5.03-5.41-9.07-5.85-14.94.2-4.72-.36-8.82.24-13.2.08-1.02,2.57-4.71,3.41-5.12,1.3-.43,1.48,1.4,2.61,1.84,3,1.14-.55,5.5-.94,8.5-.06,1.69.71,2.98,1.7,4.18,1.06,1.13,2.34,2.13,3.29,3.46.47,1.42.55,2.88.51,4.98-.3,3.27,3.06,3.4,5.64,4.13,3.54.29,4.3,5.35,7.43,6.72,4,2.1,9.7-1.64,11.81,2.14-.86-1.73,2.14-.57,4.95.93,2.81,1.47,5.46,3.32,3.75,3.29.41-.27.52,1.97.16,3.36-.39.82-.75,2.22-1.16,2.5-3.36,2.18-5.3,7.43-7.77,11.28.07.63,7.95,4.47,9.51,9.16,1.11,3.91,1.8,8.08,4.31,9.67.8-.02,1.93-2,2.74-2.02.22.07.87-.05,1.86-.29l-21.79-38.4c1.51,1.11,5.47,4.2,7.39,8.59,2.08,4.27,2.69,9.19,1.68,9.58-1.71.38-5.15-.12-6.85-1.63-5.17-3.81-8.69-3.72-13.48-6.15-1.24-.71-2.41-2.07-3.65-2.79-3.54-1.7-7.7-3.56-9.26-2.82-1.71.25-3.06.78-4.3,1.9-1.16,1.03-1.92,2.3-2.32,3.97,0,0-.37.47-.92,1.17-.58.75-1.35,1.76-2.13,2.76-.81,1.09-1.63,2.17-2.24,2.98-.65.91-1.09,1.52-1.09,1.52Z"/><path class="cls-20" d="m306.33,247.66s-.05-.37-.13-1.01c-.06-.65-.15-1.59-.26-2.74-.25-2.14-.41-5.28-.41-8.31.08-6.27,1.16-12.93,7.01-18.03,0,0,1.43-2.13,2.95-4.41,1.43-2.19,2.78-4.22,2.48-5,0-.09,2.22-1.86,2.22-1.86,0,0,.6-2.41.32-4.29-.16-1.08-.51-1.8-1.3-2.69-.74-.82-2.03-1.14-3.84-1.67,0,0-.52-.27-.99-.61-.46-.35-.78-.78-.1-.58-.03-.02.29-.02-.67-.74-.61-.45-1.38-1.03-2.4-1.79-1.2-.93-2.83-2.07-4.84-4.03"/><path class="cls-8" d="m267.11,160.88c-.45-.46-1.26-1.44-2.29-2.74-1.09-1.33-2.38-2.97-3.64-4.71-1.34-1.78-2.68-3.66-3.76-5.39-1.13-1.77-2.04-3.42-2.45-4.67-2.83-7.55-5.3-15.02-7.24-23.36-.32-.63-.95-1.1-1.59-.81-4.85,1.68-7.41-2.76-11.39-3.11-1.67-.24-3.8.28-5.1-1-6.81-6.57-10-16.83-8.99-26.72.46-4.22,2.61-8.6,4.35-12.64.63-.92,1.16-2.12,2.26-2.66.77-.57.89.64,1.5.97-.15.91-.99,2.13-1.15,3.4-.69,2.6.69,4.41-.03,7.13-.34,2.68-1.08,5.39-.77,8.22.37,1.75,1.03,3.03,1.98,4.34,2.85,5.28,6.9,9.57,11.74,12.26,3.6-1.58,5.15,2.04,7.29,3.43.6.47.88,1.45,1.48,2.3,1.85,1.44,4.57,1.16,4.92,4,.43,6.31,1.4,12.04,3.32,17.25,1.64,4.36,10.2,16.65,12.3,18.73,1.69,1.82,3.52,2.31,5.5,2.82l-28.59-50.37c.04.22.24.48-.29.59-.05.02-.96-.34-2.17-.72-1.13-.37-2.7-.79-3.1-.87l32.11,56.77c-1.85.02-3.73-.52-6.21-2.42Z"/></g></g><g class="cls-22"><g class="cls-22"><path class="cls-14" d="m80.82,196.14c1.73,3.14,4.58,4.13,6.05,5.11.74.48,1.14.92,1.22,1.34.02.14-.04-.21-.07-.38l-.1-.6c-.05-.39-.11-.78-.16-1.14-.07-.74-.14-1.41-.2-2.02-.1-.96-.17-1.68-.22-2.19-.31-3.88.16-9.32.85-11.01.05-.18.12-.38.22-.59.12-.13-.02-.17-.15-.23-.11-.06-.22-.13-.32-.22-.1-.08-.2-.17-.29-.28l-.11-.13.25.32,1,1.29.25.32.02.02c-.55,1.15,4.8-9.96,2.53-5.25h0s-.03.05-.03.05l-.05.07-.1.14c-.14.18-.29.35-.44.51l-.49.48c-.24.26-.49.5-.74.73-.51.45-.98.77-1.8,1.45-.77.61-1.42.97-2.35,1.58-.98.66-1.98,1.25-2.98,1.75-.98.48-2.4,1.32-3.59,1.84-1.36.6-2.7,1.19-4.01,1.77l-.55.24c-.1.04,0,0,0,0l.12-.04.26-.07c.35.01.73.13,1.09.25.36.23.71.43,1.02.66,1.25,1.11,1.87,2.35,1.06,2.46-2.26.33-8.55,2.6-14.43,4.7-5.88,2.18-11.33,4.38-11.71,5.51-2.15,5.29,2.14,12.09,10.06,18.18,3.49,3.01,5.82,3.35,5.28,4.98.01.71,8.49,1.41,13.59,5.5,3.23,2.78,3.15,7.81,7.33,10.48,2.75,2.36,6.2,6.6,10.58,10.69h0c5.46-2.71,12-5.16,16.15-5.9,1.72-.44,3.32-.85,4.82-1.23,2.3-.63,4.43-1.22,6.44-1.78.95-.25,1.88-.5,2.78-.74.91-.25,1.76-.48,2.26-.42,1.18-.03,2.27-.04,3.28-.03,1.02.04,1.95,0,2.86.19.92.21,1.79.46,2.63.74.84.31,1.64.56,2.46,1.03.83.53,1.66,1.12,2.52,1.78.57.57,1.2,1.06,1.88,1.55.69.59,1.44,1.12,2.21,1.62,1.55,1.03,3.24,1.68,4.96,2.71,1.75.89,3.5,1.78,5.3,2.7,1.71,1.05,3.44,2.16,5.23,3.49,3.54,2.76,6.75,4.67,9.16,6.77l1.96,1.53c.55.55,1.05,1.13,1.6,1.72.53.6,1.08,1.22,1.64,1.86l.86,1c.24.5.46,1.1.69,1.67.84,2.37,1.66,4.68,2.46,6.94.24.67.34.89.49,1.24l.42.96.84,1.83.84,1.72c.21.56.33,1.12.5,1.66.32,1.01.64,2.03.97,3.09h0s0,0,0,0c.57-.02,1.19-.04,1.81-.07,1.06-.37,2.11-.75,2.75-1.67.64-.88,2.72-.89,3.69-1.47,6.44-.01,13.73,1.5,18.87-3.32,1.44-1.29,2.52-4.8,1.14-6.15-3.41-3.43-6.69-6.06-9.82-8.4-1.53-1.1-3.13-2.39-4.49-3.15-1.36-.78-2.7-1.55-4.02-2.31-4.46-2.63-8.31-1.92-12.56-3.13h0s0,0,0,0l-.25-1.37c-.38-1.9-.66-4.17-1.12-6.5-.48-2.33-.91-4.79-1.28-7.24-.93-4.82-1.46-9.6-1.84-13.61-.24-3.07-.27-6.61-.25-9.3-.03-2.68.17-4.49-.1-4.53-.33.06-1.06.67-1.97.92-.85.26-1.93.26-1.66-.54.56-1.18,2.01-2.11,2.81-2.59.27-.14,1.21-.62,1.51-.77l-1.43.65h0c-.81.33-2.17.85-4.45,1.6-.71.12-1.09-.02-1.27-.02l-.1.25s-.08-.1-.15-.13c-.3-.32-1.06-.93-4.21-2.05-8.49-2.83-17.9-8.82-20.84-17.26-1.92-4.89-2.52-9.77-2.21-15.95-.02-1.06,1.6-3.89,3.31-7.2.81-1.73,1.73-3.43,2.44-5.14.7-1.71,1.32-3.21,1.72-4.18,2.88-7.25-4.98-18.67-15.94-25.64-2.23-1.23-4.3-2.29-6.79-3.44-1.2-.55-2.4-1.07-3.59-1.56l-.89-.36h-.03s-.01-.02-.01-.02c1.87,1.36-2.56-1.86-2.11-1.53h-.02s-.04.02-.04.02l-.09.02-.18.05-.71.19-1.4.34-.69.15c-.14,0-.17.09-.41.03l-.99-.32c-2.64-.84-5.31-1.54-7.95-2.08-8.37-1.01-16.03-.31-22.67,1.28-4.67.4-8.75-1.43-13.17-.64-9.96,3.27-13.18,10.96-17.75,15.99-9.41,7.18-11.55,11.56-12.53,13.9-.84,2.37.06,2.86-.46,2.83-1.64,1.18-4.97-2.4-7.62-1.72-3.26,1.43-4.47,5.54-4.56,9.11-.77,9.95-1.9,20.72-10.7,21.96.99.54,1.99,1.57,2.47,1.34,12.29-1.98,25.41,1.13,33.8-5.57.48-1.17.99-2.83,1.97-3.66,1.91-1.2,3.38-2.65,4.88-4.08,1.47-.95,4.96.53,8.24,3.09,3.3,2.57,6.33,6.19,7.8,8.97Z"/><g class="cls-22"><path class="cls-18" d="m184.05,261.13l.28,1.52h0s0,0,0,0c4.22,1.19,8.05.54,12.48,3.15,1.32.76,2.66,1.53,4.03,2.32,1.39.83,2.97,2.08,4.51,3.2,3.13,2.35,6.4,4.99,9.81,8.42,1.39,1.35.28,4.85-1.16,6.15-5.17,4.81-12.48,3.27-18.94,3.26-.98.56-3.07.57-3.71,1.45-.64.92-1.7,1.29-2.76,1.66-.56.02-1.11.04-1.62.06h0c-.34-1.06-.66-2.09-.98-3.1-.18-.54-.29-1.1-.52-1.66l-.85-1.72-.85-1.83-.42-.96-.21-.49-.31-.83c-.81-2.29-1.64-4.61-2.49-7.01-.25-.54-.43-1.25-.72-1.59l-.86-1c-.56-.64-1.11-1.25-1.65-1.86-.56-.59-1.02-1.18-1.63-1.71l-1.96-1.53c-2.42-2.11-5.67-4.01-9.25-6.77-1.8-1.34-3.54-2.45-5.25-3.51-1.8-.92-3.6-1.77-5.33-2.71-1.73-1.04-3.42-1.64-4.98-2.71-.78-.49-1.52-1.05-2.21-1.62-.68-.46-1.31-.98-1.88-1.54-.86-.66-1.7-1.25-2.53-1.79-.81-.42-1.62-.72-2.46-1.01-.84-.29-1.71-.53-2.63-.75-.91-.15-1.84-.14-2.86-.17-1.06,0-2.14.01-3.29.02-.48-.08-1.51.29-2.35.48-.9.24-1.83.49-2.79.74-2.02.56-4.17,1.15-6.48,1.79-1.45.36-3.01.75-4.68,1.17-4.09.75-10.54,3.15-15.94,5.84h0c-4.44-4.16-7.93-8.47-10.71-10.91-4.16-2.68-4.07-7.68-7.3-10.47,0,0,2.97-3.07,8.34-8.62,3.69,4.15,7.55,8.46,11.79,12.56,4.28,4.25,8.81,7.56,13.96,10.04h0l8.57-3.96c3.12-1.42,5.72-2.32,8.42-3.43,5.34-2.01,10.35-3.65,14.97-4.86,0,0,3.33-.6,8.26-.23,4.9.3,11.4,2.04,16.6,5.79,5.31,3.65,8.7,9.17,10.46,13.4.73,2.19,1.47,3.97,1.66,5.3.28,1.3.44,2.05.44,2.05Z"/></g><path class="cls-10" d="m88.76,231.41s-5.22-5.61-7.67-10.77c-2.5-5.23-2.48-9.77,6.89-9.65,0,0,2.96.74,7.44,2.09,4.48,1.33,10.48,3.26,16.57,5.39,6.09,2.13,12.28,4.42,17.13,6.38,4.84,1.99,8.35,3.5,9.03,4.89,0,0,.05.14.22.47.16.31.4.76.67,1.28.59,1.02,1.46,2.27,2.45,3.24h0c1.03-.48,1.88-.87,2.6-1.2.01.04-.56.13.42-.03,2.17-.57,4.61-1.2,7.89-2.06,0,0,.48-.11,1.31-.29.82-.22,1.99-.39,3.35-.56,2.72-.49,6.13-.5,9.16-.24,6.2.68,9.99,3.76,10.25,5.86,0,0,.33.52.86,1.35.57.82,1.27,2.05,1.91,3.57,1.41,2.94,2.6,7.15,3.09,10.19,0,0,1.47,9.65,2.37,15.54h0s0,0,0,0c.98.44,2.01.59,3,.26,0,0,1.19.63,2.94,1.38,1.75.76,4.06,1.56,6.18,2.24,4.27,1.76,8.41,3.98,3.68,7.81,0,0-1.25,1.48-3.07,3.03-1.8,1.57-4.22,3.12-5.97,3.76,0,0-1.97.15-5.14-.23h0s0,0,0,0c-.32-1.3-.7-2.86-1.12-4.59-.33-1.78-1.38-3.66-2.1-5.74-.52-1.33-1.06-2.69-1.6-4.06-.6-1.47-1.16-3.05-1.8-4.44l-2.23-3.38-1.08-1.7-1.3-1.58c-.84-1.06-1.67-2.1-2.48-3.11-.86-.98-1.8-1.87-2.62-2.79-1.59-1.87-3.26-3.37-4.59-4.73-1.29-1.43-2.4-2.48-3.15-3.34-.74-.87-1.13-1.56-1.12-2.02,0,0-.29-.31-.85-.81-.58-.43-1.43-1.04-2.5-1.74-1.05-.78-2.37-1.37-3.91-1.94-1.47-.72-3.42-.87-5.46-1.14-2.05-.27-4.29-.11-6.68-.02-2.37.37-4.96.58-7.64,1.41-5.48,1.27-12.1,4.22-18.62,7.3h0c-7.53-4.94-15.35-11.54-26.72-15.28Z"/><path class="cls-11" d="m83.56,231.4s-1.46-.81-3.42-2.26c-1.95-1.41-4.38-3.42-6.34-5.71-3.91-4.56-5.88-9.84,1.21-14,0,0,.97-1.4,2.6-3.34,1.63-1.95,3.93-4.41,6.55-6.72,5.28-4.49,11.72-9.09,17.8-7.25,0,0,2.98.94,7.5,3.04,4.53,2.08,10.56,5.42,16.68,9.47,6.12,4.03,12.35,8.74,17.41,12.79,2.29,1.85,4.48,3.62,6.53,5.28.88.66,1.63,1.33,2.23,1.74.62.6.95.53,1.31,1.13,0,0,.07.25,1.06.4,1,.13,2.9.2,6.47-.6,0,0,.22.02.61.04h0c1.1-.49,2.99-1.42,3.92-1.77.94-.38.97-.24-.93.9,0,0-.94.75-.52,1.52.33.71,2.13,1.93,4.18,1.93,0,0-.03.77.45,1.63.49.77,1.47,1.73,2.8,1.56-.04.07-1.27-.34-3.67-.47-2.32-.32-5.89-.25-9.78.03-3.88.44-8.09,1.19-10.99,2.07-2.93.75-4.46,1.43-3.34.81,0,0-.83.39-2.05.95h0c-.91-1.69-2.72-3.93-6.74-5.89-4.18-2.29-11.01-6.17-22.12-10.35,0,0-6.36-.59-13.26.56-6.86,1.25-14.49,3.91-16.15,12.51Z"/><path class="cls-17" d="m56.52,221.06c-3.52-2.37-7.91-4.54-10.89-6.84-1.24-1.26-1.01-3.27-1.75-4.57-.68-1.8.96-3.63,2.06-4.81,3.64-2.83,5.18-5.62,7.25-6.64.29-.19.46-.27.89-.32,2.52-.67,5.08-1.46,7.45-2.23,2.07-.58,4.09-1.23,6.07-1.95,1.74-.64,3.48-1.28,5.24-1.93,6.65-2.76,10.26-4.55,13.1-6.5,1.43-.78,2.79-2,3.7-2.7.15-.13.49-.44.82-.79.21-.21.42-.42.54-.54l.34-.39.16-.21.08-.11.02-.03h0s0,0,0,0c-1.13,2.35,2.53-5.25-2.53,5.26h0s-.01-.02-.01-.02l-.05-.06-.78-1-.65-.83c.13.17.28.31.45.43.11.14.46.17.42.33-.08.17-.14.33-.19.48l-.15.51c-.1.3-.18.6-.25.88-.47,1.99-.75,5.2-.5,9.92.11,1.15.23,2.34.35,3.57.14,1.3.35,2.55.61,3.81.12.73.24,1.46.36,2.2l.21,1.08c.06.29.01.06,0,.03l-.04-.2c-.09-.56-.27-1.11-.54-1.62-.9-2.25-2.73-3.24-4.88-4.47-3.81-1.93-9.14-11.83-13.54-11.6-3.76-.12-6.08,2.36-8.21,4.97-2.16,2.64-4.18,5.41-7.91,6.3-4.7.56-8.49,1.84-13.85,1.39-4.4-.91-8.32-.49-12.75-.85-.99-.02-4.95-2.15-5.45-2.94-.51-1.26,1.43-1.7,1.89-2.94,1.39-3.22,5.89.15,8.85.73,3.44.35,5.33-2.6,8.24-3.97,1.46-.18,2.93.15,4.87.77,2.9,1.18,3.83-1.72,5.31-3.84,1.51-3.12,6.27-1.59,8.69-3.44,3.34-2.16,3.57-8.93,7.84-8.2-1.86-.44.88-2.06,3.84-3.01,2.96-.99,5.99-1.15,4.77-.12.12-.48,1.57,1.21,2.14,2.53.23.88.81,2.2.71,2.66-.72,3.66,1.39,8.93,2.48,13.29.16.21,1.59,0,3.03.34,1.42.36,2.6,1.34,2.92,3.27.08.4.18.78.18,1.22.01.22-.02-.11-.03-.19l-.04-.41-.06-.83c-.09-1.05-.02-2.4-.08-3.2-.03-.9.04-1.95.14-2.92.02-.76.12-1.6.33-2.53.09-.64.15-.93.35-1.59.03-.1.11-.35.23-.73.03-.08.07-.17.11-.27l.07-.15-.17-.08c-.23-.12-.47-.3-.68-.55.31.39.63.82.98,1.26l.33.43.08.11.04.05h0c1.13-2.34-2.53,5.26,2.54-5.25h0s-.02.04-.02.04l-.14.19c-.19.25-.39.48-.6.69l-.89.88c-.36.34-.74.65-1.12.92-.48.4-1.05.87-1.6,1.25-.6.44-1.03.62-1.85,1.2-.74.49-1.5.94-2.26,1.35l-.58.3c-.28.15.02-.04,0-.02l.37-.11c.5-.14,1.05-.3,1.59-.2,1.1.02,2.19.46,3.12.93,1.86,1,3.03,2.31,2.77,2.86-.95,1.4-3.81,3.47-6.08,3.53-6.37.83-8.87,3.23-14.03,4.71-1.39.32-3.17.15-4.57.47-3.75,1.08-8.06,2.76-8.71,4.14-2.17,2.46-2.59,5.69-1.02,8.23l.55,9.22Z"/><path class="cls-19" d="m178.68,220.36s-.71.69-1.66.7c-.85.04-2.2-.39-.11-2.08,0,0,.43-.41.99-.8.55-.37,1.24-.74.96-.6l1.34-.66c-.07.03.73-.34-1.7.78h0c-.87.34-2.15.78-4.02,1.43,0,0-.72.1-1.27.05-.33-.11-.41.21-.5.27-.06.1,0-.12.33-.19,0,0,.05-.05-.06-.09-.11-.12-.38-.33-1.03-.55-1.28-.63-4.04-1.85-9.79-3.85"/><path class="cls-6" d="m87.25,191.73c.02,1.44-.14,7.78,2.01,17.04l.42,1.66c.11.5,0,.09,0,.12l-.08-.21-.35-.86c-.2-.62-.68-1.07-1.04-1.62-.74-1.08-1.78-1.9-2.43-2.77-4.37-4.66-10.22-8.33-17.09-11.91-.59-.14-1.18.04-1.19.69-.36,4.53-4.51,4.12-5.71,7.2-.59,1.21-.54,3.14-1.74,3.65-6.31,2.61-14.57,2.52-23.77.96-3.94-.77-8.28-2.69-12.56-4.01-.99-.54-2.3-.93-2.96-1.96-.66-.7.64-.98.95-1.64.98.04,2.29.75,3.6.79,2.63.41,4.57-.88,7.2-.15,2.62.41,5.26,1.49,7.85,1.58,1.62-.09,2.91-.38,4.17-.97,5.11-1.39,9.48-3.33,13.24-6.13-.27-3.81,3.49-3.31,5.36-4.25.63-.21,1.53.11,2.44.14,1.83-.59,2.89-2.79,5.14-1.21,4.7,3.78,8.82,7.25,12.21,10.3,1.31,1.29,4.32,3.36,5.31,5.97l.28.97.03.12c.02.08-.04-.23-.05-.32l-.14-.88c-.08-.6-.19-1-.28-1.51-.17-.97-.31-1.94-.4-2.89-.04-.48-.08-.95-.12-1.41-.04-.39-.09-.76-.13-1.13-.17-1.41-.13-2.96-.16-3.94-.04-.93,0-1.73.04-2.33.06-.69.11-1.35.16-1.99.05-.56.19-1.25.29-1.72.05-.67.46-1.82.5-2.01.02-.19.25-.45.17-.6-.24-.11-.46-.26-.65-.45-.05-.03-.28-.33-.16-.18l.49.63.49.63.25.32.12.16.06.08.03.04.02.02h0s0,.01,0,.01c-2.26,4.7,3.09-6.4,2.53-5.26h0s-.01.02-.01.02v-.02s.02,0,.02,0h0s-2.53,5.26-2.53,5.26h0s0,0,0,0h0s-.02-.03-.02-.03c-.06-.08-.16-.2-.27-.34-.3-.39-.72-.92-1.19-1.53,1.66,1.09.04.08-.34,7.87Z"/></g></g><g id="_8UgKfy"><g><path d="m136.31,328.53c-.66.13-1.12.72-1.58,1.21-1.18,1.29-2.71,2.2-4.22,3.08-5.84,3.43-11.68,6.86-17.74,9.89,1.41-3.77,3.84-7.15,6.96-9.69.68-.55,1.4-1.08,1.9-1.79.5-.72.75-1.68.38-2.47-.38-.8-1.35-1.23-2.22-1.09-.87.14-1.62.77-2.03,1.56-.28.53-.41,1.13-.68,1.67-.66,1.33-2.03,2.15-3.4,2.71-1.78.73-3.69,1.14-5.62,1.2-.33.01-.71,0-.92-.26-.27-.32-.12-.81.07-1.19.81-1.6,2.02-3,3.51-4.01.66-.45,1.38-.84,1.87-1.46.49-.63.66-1.6.13-2.19-.48-.54-1.34-.56-2-.25s-1.15.86-1.65,1.37c-2.68,2.76-6.79,5.7-10.73,6.1-.73.07-3.96.48-4.56.11,0-.12,1.17-.55,1.3-.61,1.88-.84,3.48-2.17,5.11-3.41,1.76-1.34,3.45-2.77,5.16-4.17.66-.55,1.35-1.07,2-1.62.31-.26.6-.52.88-.81.1-.11.65-.93.74-.93.26-.39.23-.68.26-1.15.14-2.37-2.08-2.2-3.55-2.08-1.12.09-1.67.34-2.7.79-1.52.66-3.43,1.89-4.73,2.87-2.79,2.11-4.74,4.39-7.25,8.36-1.32,2.09-5.15,2.86-7.25,3.24-1.65.3-3.26.25-4.87-.22-.74-.22-3.02-.93-1.46-1.82,5.04-2.88,9.99-6.28,14.41-10.04.28-.24.56-.48.84-.72.96-.83.67-2.15-.26-2.87-1.21-.94-2.54-.32-3.82.12-3.27,1.11-6.44,2.59-9.29,4.54-3.06,2.09-5.13,5.14-7.15,8.17-.18.27-.49.5-.8.61-2.53.94-5.07,1.7-7.71,2.25-.87.18-1.8.44-2.68.47-.92.03-1.85-.08-2.76-.19-.27-.03-.56-.15-.78-.31-.43-.31-.53-.61.07-.91,2.32-1.19,11.43-5.14,8.93-8.82-2.23-3.29-7.79.34-10.11,2.01-1.29.92-2.4,2.21-2.86,3.76-.27,1.08-.51,2.34-1.76,2.64-1.73.41-3.51.72-5.27.96-1.67.23-3.43.56-5.1.23-1.32-.26-2.4.37-2.59,1.78-.09.72.25,1.51.92,1.8.62.27,1.34.06,1.99-.14,1.94-.61,3.95-1.1,5.97-1.41,1.17-.18,2.36-.28,3.52-.56,1.03-.25,1.99-.75,2.91,0,2.08,1.73,5.05,1.92,7.7,1.65,2.3-.24,4.57-.75,6.78-1.42,1.08-.33,2.15-.68,3.21-1.08.5-.19,1.66-1.07,2.07-.38,1.33,2.22,4.23,2.99,6.44,2.85,3.06-.19,6.78-1.17,9.76-1.87.91-.22,1.71.32,2.52.64.82.32,1.7.44,2.57.42,2.39-.05,4.64-.58,6.87-1.41,2.85-1.06,1.31,1.63,3.51,2.61.75.34,1.61.3,2.43.25,1.56-.09,3.12-.18,4.68-.26-.85,1.84-1.69,3.68-2.54,5.52-.4.88-.82,1.77-1.48,2.47-.71.76-1.66,1.24-2.59,1.71-2.69,1.36-5.37,2.71-8.06,4.07-3.77,1.9-7.62,3.86-10.62,6.83-3,2.98-5.07,7.21-4.42,11.38.12.77.37,1.59,1.02,2.01.61.4,1.41.34,2.12.17,1.63-.4,3.08-1.29,4.48-2.21,7.24-4.74,14.04-10.55,18.21-18.14.9-1.63,1.68-3.36,2.94-4.73,1.49-1.61,3.51-2.58,5.43-3.63,5.58-3.03,10.79-6.95,16.89-8.73.92-.27,1.87-.49,2.69-1,.82-.5,1.5-1.35,1.5-2.31,0-.96-.88-1.91-1.83-1.73Zm-77.94-1.33c1.12-1.29,2.85-2.11,4.51-2.37.24-.04.7-.11.92.05.36.27.13.19.13.54-.01,1.05-5.13,4.2-6.84,4.23-.07,0,.89-1.97.99-2.11.09-.12.18-.24.28-.35Zm20.31-.79c2.61-2.64,5.51-4.9,8.91-6.42.94-.42,1.97-.79,2.97-.55.12.03.25.07.32.18.33.54-2.13,2.04-2.49,2.31-1.65,1.23-3.46,2.39-5.22,3.53-1.73,1.12-3.39,2.58-5.21,3.52-.22.11-2.01.87-2.33.91.11-1.1,2.45-2.87,3.05-3.48Zm14.55,4.84c1.66-3.7,6.47-8.61,10.09-10.42.8-.4,1.73-.51,2.6-.6.08,0,.15,0,.23,0,.23-.3.82-.22.8.26,0,.19-.07.33-.14.45-.02.09-.05.18-.11.29-.13.22-.33.39-.53.55-1.67,1.34-3.47,2.63-5.2,3.94-1.74,1.33-3.29,2.99-5.1,4.2-.46.4-.98.8-1.53,1.08-.07.03-1.16.35-1.12.26Zm10.61,23.02c-1.34,1.86-2.87,3.59-4.62,5.08-1.71,1.46-3.28,3.08-5.08,4.44-2.4,1.81-5.05,3.39-7.84,4.51-2.02.81-1.75-2.43-1.46-3.57.38-1.52,1.04-2.97,1.89-4.29.85-1.33,1.93-2.15,3.26-2.96,1.55-.95,3.13-1.87,4.74-2.73,3.93-2.12,7.89-4.21,11.84-6.3.13-.07.28-.1.42-.14.07.04.15.09.22.13.32.19-3.04,5.39-3.37,5.84Z"/><path d="m259.26,332.2c-.4.08-.79.25-1.19.38-.91.31-1.81.75-2.75.89-1.53.23-3.08.28-4.62.38-1.41.09-2.83.22-4.24.21-1.04,0-2.08-.17-3.11-.34-.19-.03-.47-.45-.44-.65.08-.48.22-1.01.52-1.36.52-.6.79-1.25.45-1.94-.37-.75-.91-1.34-1.87-1.49-1.79-.28-3.07.65-4.34,1.63-.88.67-.84.72-1.16-.33-.38-1.27-1.11-1.88-2.25-1.74-.8.1-1.64.24-2.36.57-2.76,1.27-5.46,2.66-8.23,3.92-1.4.63-2.86,1.15-4.34,1.57-.82.23-1.24-.32-.94-1.1.55-1.44-.98-2.79-2.17-3.92.04.04,2.33-1.57,2.54-1.73,2.26-1.8,5.2-4.87,4.94-8.01-.09-1.01-.97-1.81-1.86-2.16-1.1-.43-2.14.14-2.97.92-1.79,1.67-3.23,3.72-4.77,5.61-1.36,1.67-2.62,3.42-4.06,5.03-1.94,2.18-4.2,4.54-7.1,5.31-1.08.29-2.18.31-3.28.45-.67.08-1.41.33-2-.14-.9-.71-.97-1.94-.54-2.92.57-1.29,1.12-2.8-.13-3.93-.97-.88-2.39-.77-3.63-.73-2.9.85-5.56,1.74-7.99,3.62-1.02.79-1.41,1.79-1.21,3.08.26,1.69,1.08,3.24,2.89,3.54.96.16,1.94-.02,2.88-.28,1.03-.28,2.04-.6,3.08-.85.37-.09.89-.12,1.16.07,1.18.84,2.61,1.08,4.03.88,1.27-.17,2.54-.38,3.8-.59.81-.13,1.61-.27,2.42-.42.7-.13,1.43-.27,2.11-.51.72-.25,1.42-.64,2.1-.99.95-.49,1.87-1.03,2.79-1.57.88-.53,1.74-1.04,2.74-1.29.56-.14.91.24.85.8-.08.7-.18,1.39-.25,2.09-.17,1.75,1.67,3.45,3.36,2.92,2.08-.66,4.11-1.53,6.11-2.43,1.72-.78,3.34-1.78,5.05-2.57.89-.42,1.88-.63,2.84-.88.22-.06.51.14.77.21-.13.26-.21.56-.39.77-.28.31-.65.53-.95.83-1,1.01-.93,2.62.22,3.05.95.36,1.93-.02,2.72-.62.94-.71,1.75-1.59,2.69-2.29.64-.48,1.33-1.01,2.42-.95-.18.57-.31.99-.44,1.41-.23.77-.18,1.48.65,1.92,1.43.76,2.9.79,4.43.59.65-.08,1.3-.14,1.95-.16,2.07-.05,4.14-.04,6.21-.11,1.36-.05,2.72-.22,4.08-.3,1.24-.07,2.44-.18,3.51-.95.56-.4.89-.79.69-1.49-.21-.7-.65-1.08-1.4-.93Zm-68.15,1.83c-1.34.36-3.38.51-3.72-.77-.08-.32-.01-.77.17-1.05.75-1.17,2.05-1.6,3.24-2.09.81-.33,1.93-.66,2.81-.64.29,0,.6.13.75.38.15.24.14.55.08.83-.26,1.35-1.27,2.49-2.52,3.06-.21.09-.49.2-.82.28Zm24.32-6.71c-.33.2-.63.45-.95.67-.22.15-.45.29-.68.44-.09-.1-.19-.19-.28-.29.85-1.03,1.7-2.05,2.53-3.09.45-.56.86-1.17,1.32-1.73.29-.36.64-.67.96-1.01.75-.8,1.46-1.63,2.24-2.4.38-.38.87-.64,1.31-.96l.22.19c-.05.32-.05.66-.16.96-.92,2.57-2.39,4.74-4.73,6.23-.57.36-1.19.65-1.77.99Z"/><path d="m68.41,298.59c-.27-.58-.85-.83-1.46-.6-.51.2-1,.51-1.41.88-.67.62-1.19,1.41-1.91,1.96-6.07,4.63-13.48,8.04-20.38,11.27-8.32,3.9-16.93,7.24-25.76,9.81-.54.16-1.1.26-1.65.38-.03-.08-.05-.16-.08-.24.11-.13.22-.27.34-.4,2.79-2.88,5.58-6,8.4-8.94,1.47-1.54,2.97-3.05,4.53-4.5,1.12-1.04,4.04-2.66,4.07-4.28.02-.8-.56-1.25-1.2-1.5-.71-.28-1.37.07-1.81.63-3.97,5.02-8.02,10.14-12.41,14.8-1.52,1.58-3.17,3.03-4.76,4.55-.94.9-2.16,1.13-3.34,1.43-.93.23-1.92.21-2.86.43-1.11.26-1.87,1.8-1.41,2.8.21.44.66.77,1.05,1.2-1.78,1.38-3.58,2.67-5.43,3.95-1.56,1.08-1.16,3.16.91,2.96,1.12-.11,2.18-.55,2.95-1.39.21-.23.41-.53.37-.84-.03-.25-.21-.46-.21-.71,0-.27.21-.5.41-.69,1.37-1.34,2.7-2.85,4.3-3.92,1.44-.97,3.2-.9,4.84-1.21,3.59-.67,7.21-1.35,10.87-1.49,2.08-.08,8.46-.79,9.14,2,.13.55.04,1.12-.06,1.68-1.42,7.56-4.7,14.51-7.92,21.43-3.42,7.34-7.43,14.41-11.98,21.11-1.65,2.42-3.37,4.8-5.16,7.12-1.02,1.32-2.46,2.7-3.66,4.15-.42-.15-.9-.14-1.31.1-.82.48-1.12,1.35-.94,2.26.16.82,1.13,1.29,1.9,1.08.54-.15.88-.56,1.02-1.04.07-.09.14-.19.19-.3.66-.51,1.15-1.21,1.62-1.9,1.55-2.25,3.09-4.51,4.64-6.76,6.17-8.99,12.3-18.2,16.48-28.32,1.74-4.21,3.52-8.4,5.26-12.6.75-1.81,5.19-9.64,1.69-10.79-2.52-.83-5.18-1.07-7.82-.93-1.69.09-3.36.37-5.04.54-1.07.11-2.14.14-3.2.24-1.15.11-2.29.28-3.43.4-.2.02-.42-.05-.63-.09,0-.08-.02-.15-.03-.23,1.26-.47,2.51-.97,3.78-1.4,15.67-5.3,31.9-11.69,45.96-20.63.81-.52,1.61-1.07,2.34-1.7.55-.47.46-1.17.19-1.75Z"/><path d="m213.61,298.59c-.27-.58-.85-.83-1.46-.6-.51.2-1,.51-1.41.88-.67.62-1.19,1.41-1.91,1.96-6.07,4.63-13.48,8.04-20.38,11.27-8.32,3.9-16.93,7.24-25.76,9.81-.54.16-1.1.26-1.65.38-.03-.08-.05-.16-.08-.24.11-.13.22-.27.34-.4,2.79-2.88,5.58-6,8.4-8.94,1.47-1.54,2.97-3.05,4.53-4.5,1.12-1.04,4.04-2.66,4.07-4.28.02-.8-.56-1.25-1.2-1.5-.71-.28-1.37.07-1.81.63-3.97,5.02-8.02,10.14-12.41,14.8-1.52,1.58-3.17,3.03-4.76,4.55-.94.9-2.16,1.13-3.34,1.43-.93.23-1.92.21-2.86.43-1.11.26-1.87,1.8-1.41,2.8.21.44.66.77,1.05,1.2-1.78,1.38-3.58,2.67-5.43,3.95-1.56,1.08-1.16,3.16.91,2.96,1.12-.11,2.18-.55,2.95-1.39.21-.23.41-.53.37-.84-.03-.25-.21-.46-.21-.71,0-.27.21-.5.41-.69,1.37-1.34,2.7-2.85,4.3-3.92,1.44-.97,3.2-.9,4.84-1.21,3.59-.67,7.21-1.35,10.87-1.49,2.08-.08,8.46-.79,9.14,2,.13.55.04,1.12-.06,1.68-1.42,7.56-4.7,14.51-7.92,21.43-3.42,7.34-7.43,14.41-11.98,21.11-1.65,2.42-3.37,4.8-5.16,7.12-1.02,1.32-2.46,2.7-3.66,4.15-.42-.15-.9-.14-1.31.1-.82.48-1.12,1.35-.94,2.26.16.82,1.13,1.29,1.9,1.08.54-.15.88-.56,1.02-1.04.07-.09.14-.19.19-.3.66-.51,1.15-1.21,1.62-1.9,1.55-2.25,3.09-4.51,4.64-6.76,6.17-8.99,12.3-18.2,16.48-28.32,1.74-4.21,3.52-8.4,5.26-12.6.75-1.81,5.19-9.64,1.69-10.79-2.52-.83-5.18-1.07-7.82-.93-1.69.09-3.36.37-5.04.54-1.07.11-2.14.14-3.2.24-1.15.11-2.29.28-3.43.4-.2.02-.42-.05-.63-.09,0-.08-.02-.15-.03-.23,1.26-.47,2.51-.97,3.78-1.4,15.67-5.3,31.9-11.69,45.96-20.63.81-.52,1.61-1.07,2.34-1.7.55-.47.46-1.17.19-1.75Z"/><path d="m349.2,331.62c-.82-.46-2.2-.8-2.79.18-.49.81-.19,1.57-1.29,1.88-1.3.36-2.75.26-4.09.06-.45-.24-.69-.66-.66-1.09.79-1.33,1.88-2.43,2.87-3.61.93-1.11,1.79-2.27,2.57-3.49.64-.99,1.02-1.91,2.3-2.09,2.68-.37,5.37-.68,8.06-.97.01,0,.02-.02.03-.02.08-.28.12-.51.15-.73-.19-.37-.57-.72-1.04-.97-1.36.18-2.72.34-4.09.49-.58.06-3.09.45-1.94-.98,1.3-1.62,2.71-3.15,4.19-4.6,1.25-1.23,3.23-2.45,3.8-4.17.28-.82,0-1.3-.38-1.83-1.35-1.89-2.87,1.22-3.49,2.13-2.23,3.25-4.93,6.11-7.16,9.37-.33.48-.71.71-1.2.71-1.95,0-4.05.04-5.96-.38-1-.22-1.57,0-2,.95-.18.38-.28,1.01-.09,1.3.54.78,1.83.53,2.63.52.34,0,4.41-.11,4.37.01-.08.21-.11.45-.24.62-3.34,4.48-8.49,7.37-14.04,7.96-.98.1-1.98-.04-2.97-.14-.21-.02-.51-.33-.54-.54-.04-.22.13-.56.32-.72,1.03-.86.91-.78,1.93-1.64.21-.18.97-1.12,1.02-1.41.18-1.18-.11-1.54-1.19-1.75-1.61-.31-3.17,1.05-4.69-.11-.45-.34-1.21-1.49-1.76-1.6-.44-.09-1.06-.07-1.39.18-.79.59-1.3,1.4-1.18,2.5.03.31-.17.78-.43.96-.74.53-1.61.89-2.35,1.42-1.72,1.24-3.66,1.56-5.7,1.46-.66-.03-1.34-.28-1.95-.56-2.02-.92-2.77,2.34-1.82,3.58.87,1.13,3.43.02,4.55-.32,1.93-.58,3.79-1.4,5.59-2.3,1.52-.74,3.27-2.38,4.74-3.23.73-.42,3.11.06,4.07.34-.15-.05-1.27.78-1.46.9-1.28.79-2.14,2.81-1.02,4.15.32.39.83.58,1.32.68,2.72.53,6.12.68,8.92-.29,1.09-.28,2.19-.55,3.29-.81.47.41.82,1.1,1.1,1.41,1.02,1.19,2.01,1.21,3.22,1.36,1.08.13,2.59.07,3.62-.28,1.98-.68,2.34-1.26,4.18-2.26.43-.23.78-.68.82-1.17.03-.46-.36-.84-.76-1.07Z"/><path d="m297.12,318.3c-2.62-1.33-5.46-.2-7.76,1.27-.84.53-1.45,1.14-1.54,2.16-.07.74.2,1.7-.82,1.82-.65.08-1.26-.42-1.47-1.04s-.08-1.3.18-1.9c.63-1.45,1.97-2.48,3.37-3.23,2.79-1.49,6.16-2.38,9.18-1.12,1.19.5,1.78.1,2.62-.74,3.01-3.03,6.49-5.53,9.74-8.29,1.66-1.41,3.27-2.89,4.71-4.53,1.07-1.22,2.11-3.65,3.91-2.18.38.31.52.76.34,1.23-.12.31-.34.57-.54.84-.99,1.28-1.7,2.76-2.4,4.21-4.15,8.57-7.83,17.37-12.09,25.89-.75,1.51-1.71,2.92-2.3,4.49-.36.97-1.65,1.94-2.69,1.78-.28-.04-.64-.35-.74-.62-.4-1.09-.07-2.02.91-2.66,1.46-.96,2.39-2.86,3.21-4.37.95-1.76,1.95-3.99,1.68-6.04-.21-1.6-.99-3.08-2.14-4.2-.77-.75-3.06-2.62-4.23-1.83-3.84,2.61-7.54,5.38-11.5,7.84-2.5,1.55-5.05,3.04-7.63,4.45-2.38,1.3-4.93,3.02-7.51,3.88-.84.35-1.84.43-2.75-.04-.85-.44-1.22-1.22-1.03-2.25.12-.65,1.03-1.46,1.77-1.45.92,0,1.85-.07,2.6.79.2.23,1.02.12,1.44-.08,7.84-3.62,15.07-7.98,22.12-12.94.44-.31.84-.67,1.39-1.12Zm17.54-12.45c-1.13.32-2.96,1.63-3.5,2.29-.32.39-.78.68-1.19.99-.31.24-.66.42-.96.67-2.38,1.94-4.44,4.24-7,5.98-.26.18-.51.37-.75.58-.69.6-.67,1.01.09,1.55.59.42,1.24.77,1.76,1.26.64.6,1.28,1.24,1.73,1.98.51.84.81,1.8,1.2,2.71.26.6.6.7.95.14.5-.79.9-1.65,1.28-2.5.63-1.42,1.2-2.88,1.82-4.31.56-1.29,1.29-2.52,1.71-3.85.56-1.79,1.11-3.57,2.01-5.23.36-.67.54-1.43.85-2.27Z"/><path d="m97.56,331.02c.9-.57,1.77-1.2,2.63-1.86.78-.6,1.54-1.23,2.28-1.89.37-.33.77-.66,1.11-1.03.09-.1.9-.87.9-.88-.25-.74-1.04-1.29-1.88-.74-3.78,2.49-8.33,5.83-12.75,6.98-1.67.43-.96,3.02.71,2.59,1.75-.45,3.39-1.22,5-2.03.69-.35,1.36-.73,2.01-1.14Z"/></g></g><path d="m77.24,331.79c1.31-1.44,3.34-2.57,5.03-3.52,1.42-.8,2.88-1.52,4.19-2.51.26-.2.51-.38.76-.54-.3-.64-1.08-1.13-1.91-.75-1.83.84-3.44,1.68-5.09,2.83-1.97,1.38-4.31,2.11-6.52,2.99-1.58.63-.89,3.22.71,2.59.91-.36,1.86-.7,2.81-1.06,0,0,0-.02.02-.03Z"/><path d="m62.53,328.42c-2.21,1.1-4.49,2.02-6.85,2.77-.55.17-.31,1.04.24.86,2.43-.77,4.78-1.72,7.06-2.86.52-.26.06-1.03-.45-.77Z"/><path d="m315.44,304.44c-5.69,3.33-10.39,8.09-15.21,12.52-.42.39.21,1.02.63.63,4.77-4.38,9.41-9.09,15.03-12.38.5-.29.05-1.06-.45-.77Z"/></g></svg>