<svg id="Layer_1" data-name="Layer 1" xmlns="http://www.w3.org/2000/svg" viewBox="0 0 189.2 158.48"><defs><style>.cls-1{fill:#a57a43;}</style></defs><path class="cls-1" d="M146.86,109.21v6.44H60.58v-1.71h84.57v-3h-4.51v-2.18h-4.5v-2.17H63V67l-3.84,2.38-.9-1.45L61.4,66l-9.74-1.34v7.91H50V65.18l-2.7,1.67-.9-1.45L50,63.16v-.48l.63.09,38-23.64L79.32,33l1-1.42,9.93,6.61L94,35.81l.9,1.45-3.09,1.92,6.15,4.1,4.32-2.68-4.1-2.7.94-1.43,4.76,3.14,2-1.27.9,1.45-1.37.85L142,64.76,141,66.19,103.8,41.64l-4.33,2.69,34.23,22.8V88.27h0v16.57h4.15V107h4.51v2.18ZM132,86.65V68.05L97.88,45.32,64.72,65.93v38.91H132V86.65ZM63.67,64.57,96.32,44.28l-6.16-4.11-36.93,23Z"/><path class="cls-1" d="M45.69,100.58,57.39,106v.79l-11.7,5.46v-1.88l9-4-9-4Z"/><path class="cls-1" d="M45.52,95.05a4.36,4.36,0,0,1,.29-1.7,8.58,8.58,0,0,1,.63-1.18h1.62a6.55,6.55,0,0,0-.68,1.19,3.49,3.49,0,0,0-.33,1.52A3.38,3.38,0,0,0,47.24,96a2.26,2.26,0,0,0,.58,1,1.45,1.45,0,0,0,1,.38,1.23,1.23,0,0,0,1.06-.5,7,7,0,0,0,.7-1.23l.74-1.6a5.52,5.52,0,0,1,1.2-1.82,2.48,2.48,0,0,1,1.76-.61A2.73,2.73,0,0,1,56,92.1a3.83,3.83,0,0,1,1.14,1.47,4.64,4.64,0,0,1,.42,2,4.93,4.93,0,0,1-.35,1.86,7.69,7.69,0,0,1-.78,1.49H54.8a8.62,8.62,0,0,0,.85-1.57,5,5,0,0,0,.37-2,2.72,2.72,0,0,0-.43-1.54,1.37,1.37,0,0,0-1.21-.66,1.11,1.11,0,0,0-.75.27,2.64,2.64,0,0,0-.54.65,6.62,6.62,0,0,0-.38.75l-.88,1.94a3.6,3.6,0,0,1-1.3,1.71,3.31,3.31,0,0,1-1.73.45,2.77,2.77,0,0,1-1.67-.53A3.75,3.75,0,0,1,46,97,4.29,4.29,0,0,1,45.52,95.05Z"/><path class="cls-1" d="M45.41,84a5.33,5.33,0,0,1,.43-2.24A3.48,3.48,0,0,1,47,80.3a2.82,2.82,0,0,1,1.69-.52,2.7,2.7,0,0,1,1.57.49,3,3,0,0,1,1.05,1.22,3,3,0,0,1,.44-1,2.72,2.72,0,0,1,.9-.85,2.89,2.89,0,0,1,1.44-.34,3,3,0,0,1,1.76.56,3.92,3.92,0,0,1,1.25,1.6,6,6,0,0,1,.46,2.45,19.78,19.78,0,0,1-.13,2.26c-.09.79-.19,1.45-.31,2H45.85a17,17,0,0,1-.33-2C45.45,85.44,45.41,84.73,45.41,84Zm1.49.11A13.05,13.05,0,0,0,47,85.44a9.94,9.94,0,0,0,.15,1.13h3.67V83.83a2.54,2.54,0,0,0-.6-1.82,1.91,1.91,0,0,0-1.41-.62,1.45,1.45,0,0,0-1,.38,2.47,2.47,0,0,0-.62,1A4.26,4.26,0,0,0,46.9,84.13Zm9,2.44a10.83,10.83,0,0,0,.16-1.4c0-.51,0-.93,0-1.25a4,4,0,0,0-.55-2.18,1.64,1.64,0,0,0-1.44-.86,1.55,1.55,0,0,0-1.44.85,4.1,4.1,0,0,0-.48,2.06v2.78Z"/></svg>