<svg xmlns="http://www.w3.org/2000/svg" viewBox="0 0 71 92">
  <g fill="none" stroke="#fff" stroke-linecap="round" stroke-miterlimit="10" stroke-width="2" data-name="Group 12">
    <path d="M5 15s30-29 60-3"/>
    <path d="M67 28S33-13 1 32" data-name="Path 2"/>
    <path d="M67 34s6 12 2 28" data-name="Path 3"/>
    <path d="M39 91s-5-17-17-2" data-name="Path 4"/>
    <path d="M50 86s-12-7-7-19" data-name="Path 5"/>
    <path d="M5 80s26-21 31-33" data-name="Path 6"/>
    <path d="M1 69s22-18 25-26 18-11 19 2-31 39-31 39" data-name="Path 7"/>
    <path d="M61 80s-14-9-10-27-4-24-10-26-17-2-24 13l-7 10a33 33 0 0 1-8 7" data-name="Path 8"/>
    <path d="M66 73s-9-8-5-24-12-29-21-31-17-1-25 12-6 8-14 14" data-name="Path 9"/>
  </g>
</svg>