<?xml version="1.0" encoding="UTF-8"?>
<svg width="66px" height="86px" viewBox="0 0 66 86" version="1.1" xmlns="http://www.w3.org/2000/svg" xmlns:xlink="http://www.w3.org/1999/xlink">
    <title>Group 12</title>
    <g id="Page-1" stroke="none" stroke-width="1" fill="none" fill-rule="evenodd" stroke-linecap="round">
        <g id="light-mode-desktop" transform="translate(-374.000000, -2985.000000)" stroke="#B9A59B">
            <g id="Group-12" transform="translate(375.000000, 2986.000000)">
                <path d="M3,14 C21.5324754,-3.63673384 40.1991421,-4.60984015 59,11.0806811" id="Path"></path>
                <path d="M61,26.1196532 C39.9940006,0.729364408 19.6606672,2.02281333 0,30" id="Path-2"></path>
                <path d="M61,32 C64.6301612,39.2752386 64.9658048,47.9419053 62.0069308,58" id="Path-3"></path>
                <path d="M35,84 C31.9412497,73.9987715 26.6079163,73.3748466 19,82.1282253" id="Path-4"></path>
                <path d="M45,80 C37.6362562,75.8168535 35.3560801,69.8168535 38.1594719,62" id="Path-5"></path>
                <path d="M3,74 C19.0606726,61.4602544 28.7273393,51.4602544 32,44" id="Path-6"></path>
                <path d="M0,64.1438385 C13.2879557,52.7311384 20.8691796,44.6754546 22.7436718,39.9767869 C25.5554099,32.9287853 38.9258446,30.3261527 39.9640954,42.2623645 C40.6562626,50.2198391 31.3407559,62.1323842 12.0175753,78" id="Path-7"></path>
                <path d="M55,74 C46.6401964,68.4688784 43.6957196,60.1227356 46.1665694,48.9615715 C48.6374193,37.8004074 45.1947438,30.3596264 35.8385429,26.6392285 C25.5897987,24.4089617 18.363088,28.0147417 14.1584108,37.4565682 C12.4516818,41.2891191 9.97924903,44.0783829 8.21272376,46.50121 C6.48908023,48.8652239 4.08483897,51.0141754 1,52.9480647" id="Path-8"></path>
                <path d="M60,68 C53.9402956,62.9929815 52.4253695,55.5740672 55.4552217,45.7432571 C60,30.9970419 42.9795345,17.871739 36.0485578,17.2490485 C29.1175811,16.626358 19.965274,16.2736694 12.1760561,27.801755 C4.38683828,39.3298407 6.95362925,35.3716977 0,41.3344426" id="Path-9"></path>
            </g>
        </g>
    </g>
</svg>