<svg xmlns="http://www.w3.org/2000/svg" viewBox="0 0 83 73">
  <g fill="#fff" data-name="Group 10">
    <path d="M3 2a1 1 0 0 0-1 1v67a1 1 0 0 0 1 1h77a1 1 0 0 0 1-1V3a1 1 0 0 0-1-1H3m0-2h77a3 3 0 0 1 2 1 3 3 0 0 1 1 2v67a3 3 0 0 1-3 3H3a3 3 0 0 1-3-3V3a3 3 0 0 1 3-3Z"/>
    <path d="M7 6a1 1 0 0 0-1 1v2a1 1 0 0 0 1 1h2a1 1 0 0 0 1-1V7a1 1 0 0 0-1-1H7m0-1h2a2 2 0 0 1 2 2v2a2 2 0 0 1-2 2H7a2 2 0 0 1-2-2V7a2 2 0 0 1 2-2Z" data-name="Rectangle"/>
    <path d="M77 7h-4a1 1 0 0 1 0-2h4a1 1 0 0 1 0 2Z" data-name="Line 4 Copy"/>
    <path d="M68 7h-4a1 1 0 0 1 0-2h4a1 1 0 0 1 0 2Z" data-name="Line 4 Copy 2"/>
    <path d="M60 7h-4a1 1 0 0 1 0-2h4a1 1 0 0 1 0 2Z" data-name="Line 4 Copy 3"/>
    <path d="M50 27H32a1 1 0 0 1 0-2h18a1 1 0 0 1 0 2Z" data-name="Line 4 Copy 4"/>
    <path d="M47 32H35a1 1 0 0 1 0-2h12a1 1 0 0 1 0 2Z" data-name="Line 4 Copy 5"/>
    <path d="M10 18a2 2 0 0 0-2 2v16a2 2 0 0 0 2 2h64a2 2 0 0 0 2-2V20a2 2 0 0 0-2-2H10m0-2h64a4 4 0 0 1 4 4v16a4 4 0 0 1-4 4H10a4 4 0 0 1-4-4V20a4 4 0 0 1 4-4Z" data-name="Rectangle"/>
    <path d="M7 46v20h17V46H7m0-2h17a2 2 0 0 1 2 2v20a2 2 0 0 1-2 2H7a2 2 0 0 1-2-2V46a2 2 0 0 1 2-2Z" data-name="Rectangle Copy 3"/>
    <path d="M32 46v20h19V46H32m0-2h19a2 2 0 0 1 2 2v20a2 2 0 0 1-2 2H32a2 2 0 0 1-2-2V46a2 2 0 0 1 2-2Z" data-name="Rectangle Copy 4"/>
    <path d="M58 46v20h18V46H58m0-2h18a2 2 0 0 1 2 2v20a2 2 0 0 1-2 2H58a2 2 0 0 1-2-2V46a2 2 0 0 1 2-2Z" data-name="Rectangle Copy 5"/>
  </g>
</svg>