<svg xmlns="http://www.w3.org/2000/svg" aria-hidden="true" viewBox="0 0 31 30">
  <path fill="#FFFFFF" d="M11.0342737 24.3507575c0 .119932-.1391129.2158776-.3145161.2158776-.19959677.0179898-.33870967-.0779558-.33870967-.2158776 0-.1199319.1391129-.2158775.31451617-.2158775.1814516-.0179898.3387096.0779558.3387096.2158775Zm-1.88104835-.2698469c-.04233871.119932.07862903.2578537.26008065.2938333.15725806.059966.33870967 0 .375-.119932.03629032-.1199319-.07862904-.2578537-.26008065-.3118231-.15725806-.0419762-.33266129.0179898-.375.1379218Zm2.67338705-.1019422c-.1754032.0419762-.2963709.1559116-.2782258.2938333.0181452.119932.1754033.1978878.3568549.1559116.1754032-.0419762.2963709-.1559116.2782258-.2758435-.0181452-.1139354-.1814516-.1918912-.3568549-.1739014ZM15.8064512.99999995C7.41733825.99999995.99999954 7.31441899.99999954 15.6317022c0 6.6502286 4.2217742 12.3410013 10.25201616 14.3438655.7741935.1379217 1.0463709-.3358096 1.0463709-.7255886 0-.3717891-.0181451-2.4226261-.0181451-3.6819119 0 0-4.23387099.8994899-5.12298389-1.7869866 0 0-.68951613-1.7450104-1.68145161-2.1947553 0 0-1.38508065-.9414661.09677419-.9234763 0 0 1.50604839.119932 2.33467742 1.5471226 1.32459677 2.3146873 3.54435479 1.6490648 4.40927419 1.2532892.1391129-.9594558.5322581-1.6250784.9677419-2.0208539-3.38104835-.3717892-6.79233867-.8575137-6.79233867-6.6262422 0-1.6490648.45967742-2.4765955 1.42741935-3.531997-.15725806-.3897789-.67137096-1.99686755.15725807-4.0716909 1.2641129-.38977895 4.17338705 1.61908181 4.17338705 1.61908181 1.2096775-.33580956 2.5100807-.50971094 3.7983871-.50971094 1.2883065 0 2.5887097.17390138 3.7983871.50971094 0 0 2.9092742-2.01485736 4.1733871-1.61908181.8286291 2.08081995.3145162 3.681912.1572581 4.0716909.9677419 1.0613981 1.5604839 1.8889288 1.5604839 3.531997 0 5.7867183-3.5625 6.2484564-6.9435484 6.6262422.5564516.4737313 1.0282258 1.3732212 1.0282258 2.7824221 0 2.0208539-.0181452 4.5214358-.0181452 5.013157 0 .3897789.2782258.8635102 1.046371.7255885 6.0483871-1.990871 10.1491935-7.6816437 10.1491935-14.3318723 0-8.31728321-6.8044354-14.63170225-15.1935483-14.63170225ZM6.8790318 21.6822709c-.07862903.059966-.06048387.1978877.04233871.3118231.0967742.0959456.2358871.1379218.31451613.059966.07862903-.059966.06048387-.1978878-.04233871-.3118231-.09677419-.0959456-.2358871-.1379218-.31451613-.059966Zm-.6532258-.4857246c-.04233871.0779558.01814516.1739014.1391129.2338674.09677419.059966.21774193.0419762.26008064-.0419762.04233871-.0779558-.01814516-.1739014-.1391129-.2338674-.12096774-.0359796-.21774193-.0179898-.26008064.0419762Zm1.95967742 2.1347894c-.0967742.0779558-.06048388.2578537.07862903.3717891.1391129.1379218.31451613.1559116.39314516.059966.07862903-.0779558.04233871-.2578538-.07862903-.3717891-.13306452-.1379218-.31451613-.1559116-.39314516-.059966Zm-.68951613-.8815001c-.0967742.059966-.0967742.2158775 0 .3537993.09677419.1379218.26008064.1978878.33870967.1379218.0967742-.0779558.0967742-.2338674 0-.3717891-.08467742-.1379218-.24193548-.1978878-.33870967-.119932Z"/>
</svg>