<svg xmlns="http://www.w3.org/2000/svg" viewBox="0 0 31 21">
    <path id="Path_26" data-name="Path 26" d="M35.316,36.985a2.418,2.418,0,0,1-1.027-.342,22.827,22.827,0,0,0-11.464-2.908,31.458,31.458,0,0,0-7.016.855c-.342,0-.856.171-1.027.171a1.35,1.35,0,0,1-1.369-1.37,1.5,1.5,0,0,1,1.2-1.538,34.017,34.017,0,0,1,8.384-1.027,25.388,25.388,0,0,1,13,3.423,1.6,1.6,0,0,1,.856,1.538A1.641,1.641,0,0,1,35.316,36.985Zm2.4-5.819a2.466,2.466,0,0,1-1.2-.341,27.246,27.246,0,0,0-14.2-3.6,28.418,28.418,0,0,0-7.187.858,2.581,2.581,0,0,1-1.027.169,1.714,1.714,0,0,1-1.712-1.71,1.853,1.853,0,0,1,1.369-1.881,31.617,31.617,0,0,1,8.727-1.2A30.634,30.634,0,0,1,38.4,27.573a1.882,1.882,0,0,1,1.027,1.71A1.759,1.759,0,0,1,37.711,31.166Zm2.738-6.842a3.193,3.193,0,0,1-1.2-.341c-4.107-2.4-10.266-3.766-16.256-3.766a37.334,37.334,0,0,0-8.9,1.027c-.343,0-.685.171-1.2.171a1.888,1.888,0,0,1-2.054-2.054,1.924,1.924,0,0,1,1.54-2.054A34.646,34.646,0,0,1,23,15.938c6.5,0,13.347,1.37,18.481,4.278a2.179,2.179,0,0,1,1.2,2.054A2.233,2.233,0,0,1,40.45,24.324Z" transform="translate(-10.847 -15.938)" fill="#fff"/>
</svg>
